<svg width="111" height="54" viewBox="0 0 111 54" fill="none" xmlns="http://www.w3.org/2000/svg">
<g clip-path="url(#clip0_164_6626)">
<path d="M73.2006 51.2219L111 30.2123L107.46 27.2605L69.4321 45.8393L71.1451 49.6592L73.2006 51.2219Z" fill="#FF6517"/>
<path d="M108.259 19.2732C108.259 19.2732 107.232 23.614 107.574 26.2185C107.917 28.823 109.173 29.8648 109.173 29.8648L73.0865 50.3536C73.0865 50.3536 70.4599 46.8809 72.8581 38.8938L108.259 19.2732Z" fill="#DECBB6"/>
<path d="M61.4382 0L22.6111 16.3215L72.858 38.8939L110.429 18.926L61.4382 0Z" fill="#FF6517"/>
<path d="M22.6111 16.3215C22.6111 16.3215 19.071 22.9196 23.2963 27.7813L73.2006 51.2219C73.2006 51.2219 70.5741 49.3119 72.858 39.0675L22.6111 16.3215Z" fill="#C25600"/>
<path d="M54.2437 54L89.5307 24.4823L85.7622 22.3987L50.1326 49.6591L52.1881 52.9582L54.2437 54Z" fill="#FF6517"/>
<path d="M85.7622 14.4116C85.7622 14.4116 85.1912 18.9261 85.7622 21.5306C86.3332 24.1351 87.7036 24.8296 87.7036 24.8296L54.1295 53.3055C54.1295 53.3055 51.1603 50.5274 52.7591 42.0193L85.7622 14.4116Z" fill="#DECBB6"/>
<path d="M37.5707 6.25073L0.799072 31.2539L52.759 42.0192L87.9318 13.5433L37.5707 6.25073Z" fill="#484641"/>
<path d="M0.79915 31.2539C0.79915 31.2539 -2.05579 38.5465 2.62631 42.3664L54.2436 53.9999C54.2436 53.9999 51.5029 52.6108 52.6448 42.0192L0.79915 31.2539Z" fill="#32302B"/>
</g>
<defs>
<clipPath id="clip0_164_6626">
<rect width="111" height="54" fill="white"/>
</clipPath>
</defs>
</svg>
