<svg width="216" height="286" viewBox="0 0 216 286" fill="none" xmlns="http://www.w3.org/2000/svg">
<g clip-path="url(#clip0_160_712)">
<path d="M164.428 266.114C164.428 266.114 164.428 266.114 164.34 266.114C163.015 265.833 149.504 263.769 134.404 279.903C134.404 279.903 134.404 279.903 134.315 279.903C133.079 264.613 122.306 247.073 122.306 247.073C141.292 220.621 158.865 230.563 158.865 230.563C168.579 235.91 164.428 266.114 164.428 266.114Z" fill="#005576" stroke="#1D1D1C" stroke-width="0.25" stroke-miterlimit="10"/>
<path d="M175.114 285.906C175.114 285.906 155.598 285.812 149.858 285.906C144.118 286 134.404 279.997 134.404 279.997C134.404 279.997 134.404 279.997 134.492 279.997C149.593 263.957 163.104 266.02 164.428 266.208C164.517 266.208 164.517 266.208 164.517 266.208C170.345 264.144 178.822 271.086 178.822 271.086C184.298 281.31 175.114 285.906 175.114 285.906Z" fill="white" stroke="black" stroke-width="0.25" stroke-miterlimit="10"/>
<path d="M106.941 276.338C106.941 276.338 94.8424 275.682 79.3003 274.838C80.4483 270.523 83.0975 261.33 87.0713 254.483C98.9045 254.764 98.0215 247.072 98.0215 247.072C103.85 248.48 112.857 248.011 120.452 245.947C125.75 269.21 106.941 276.338 106.941 276.338Z" fill="white" stroke="black" stroke-width="0.25" stroke-miterlimit="10"/>
<path d="M77.0925 273.149L49.4523 254.108C49.4523 254.108 34.6166 260.955 36.0295 271.273C28.4351 270.992 21.9886 270.71 18.1914 270.992C0.088389 271.93 -0.264841 264.051 0.265004 263.206C0.265004 263.206 1.58962 248.855 11.3917 246.416C16.2487 245.196 32.6738 246.791 49.4523 248.667C49.4523 250.731 49.7172 252.607 50.1587 254.201L77.0925 273.149Z" fill="white" stroke="black" stroke-width="0.25" stroke-miterlimit="10"/>
<path d="M80.5365 273.524C80.1833 275.025 79.9184 275.963 79.9184 275.963C79.9184 280.184 74.1784 281.216 74.1784 281.216L39.9151 280.184C36.9127 277.089 35.4114 274.181 35.0582 271.555C33.6453 261.143 48.5693 254.295 48.5693 254.295L76.1212 273.337H76.2095C77.7107 273.337 79.1236 273.431 80.5365 273.524Z" fill="white" stroke="black" stroke-width="0.25" stroke-miterlimit="10"/>
<path d="M96.6967 246.416C93.4293 247.448 90.6918 250.637 88.3958 254.577C84.3337 261.424 81.6845 270.617 80.6248 274.931C79.2119 274.838 77.7106 274.744 76.2977 274.744L49.3639 255.796C48.8341 254.201 48.6575 252.325 48.6575 250.262C48.5692 237.411 56.4285 216.962 56.4285 216.962L56.7818 217.244L57.2233 217.525L58.0181 218.088L58.9895 218.838L60.1374 219.589L60.7556 219.964L61.9919 220.902L62.6101 221.371L86.2764 238.63L86.9829 239.193C90.5152 241.82 93.341 243.977 94.6656 245.103C95.1072 245.665 95.8136 246.041 96.6967 246.416Z" fill="#005576" stroke="#1D1D1C" stroke-width="0.25" stroke-miterlimit="10"/>
<path d="M105.527 258.516C105.527 260.392 103.584 262.831 99.0808 262.831C94.5771 262.831 90.8682 261.33 90.8682 259.454C90.8682 257.578 93.694 257.203 98.1977 257.203C102.79 257.391 105.527 256.734 105.527 258.516Z" fill="#1D1D1C"/>
<path d="M27.9052 269.772C24.2846 270.241 21.1055 269.585 20.9289 268.365C20.7523 267.146 24.1962 266.302 27.9052 265.833C31.5258 265.364 33.9984 265.364 34.175 266.583C34.3516 267.896 31.5258 269.303 27.9052 269.772Z" fill="#1D1D1C"/>
<path d="M39.3849 255.796C36.3824 256.453 33.38 255.984 32.6735 254.764C31.9671 253.545 34.3514 252.513 36.7357 251.294C39.2083 249.98 42.7406 251.106 43.447 252.325C44.1535 253.545 42.3873 255.139 39.3849 255.796Z" fill="#1D1D1C"/>
<path d="M89.3671 271.93C87.4244 270.898 86.3647 269.022 87.0712 267.803C87.7776 266.583 89.8087 266.489 91.8398 267.615C93.7825 268.647 95.4604 269.303 94.8422 270.523C94.0474 271.742 91.3099 272.962 89.3671 271.93Z" fill="#1D1D1C"/>
<path d="M52.9843 269.585C51.0416 268.553 49.9819 266.677 50.6883 265.458C51.3948 264.238 53.4259 264.144 55.4569 265.27C57.3997 266.302 59.0775 266.958 58.4594 268.178C57.7529 269.303 55.0154 270.617 52.9843 269.585Z" fill="#1D1D1C"/>
<path d="M108.088 266.208C106.146 265.176 105.086 263.3 105.792 262.081C106.499 260.861 108.53 260.768 110.561 261.893C112.504 262.925 114.182 263.582 113.563 264.801C112.769 266.02 110.031 267.334 108.088 266.208Z" fill="#1D1D1C"/>
<path d="M102.436 272.774C100.494 271.742 99.434 269.866 100.14 268.647C100.847 267.427 102.878 267.334 104.909 268.459C106.852 269.491 108.53 270.148 107.912 271.367C107.117 272.586 104.379 273.9 102.436 272.774Z" fill="#1D1D1C"/>
<path d="M169.55 280.09C167.607 279.059 166.548 277.183 167.254 275.963C167.961 274.744 169.992 274.65 172.023 275.776C173.966 276.807 175.643 277.464 175.025 278.683C174.319 279.809 171.493 281.122 169.55 280.09Z" fill="#1D1D1C"/>
<path d="M49.0107 276.807C47.0679 275.776 46.0083 273.9 46.7147 272.68C47.4212 271.461 49.4522 271.367 51.4833 272.493C53.4261 273.524 55.1039 274.181 54.4858 275.4C53.691 276.62 50.9535 277.839 49.0107 276.807Z" fill="#1D1D1C"/>
<path d="M152.772 278.684C150.829 277.652 149.769 275.776 150.476 274.556C151.182 273.337 153.213 273.243 155.245 274.369C157.187 275.4 158.865 276.057 158.247 277.276C157.541 278.402 154.715 279.715 152.772 278.684Z" fill="#1D1D1C"/>
<path d="M66.0542 277.839C64.1114 276.807 63.0517 274.931 63.7582 273.712C64.4646 272.493 66.4957 272.399 68.5268 273.524C70.4695 274.556 72.1474 275.213 71.5292 276.432C70.8228 277.558 68.0852 278.871 66.0542 277.839Z" fill="#1D1D1C"/>
<path d="M16.2483 261.987C15.277 259.923 15.1003 257.391 15.7185 256.359C16.3367 255.327 17.7496 255.327 18.721 257.484C19.6923 259.642 21.7234 260.955 21.0169 261.893C20.3988 262.831 17.1314 264.05 16.2483 261.987Z" fill="#1D1D1C"/>
<path fill-rule="evenodd" clip-rule="evenodd" d="M190.214 210.396C190.214 210.396 190.126 210.302 189.861 210.115C189.42 209.74 188.448 208.989 187.212 208.145C186.77 207.864 186.241 207.488 185.622 207.113C185.358 206.926 185.004 206.738 184.739 206.55C182.09 205.05 179.618 204.112 177.41 203.643C177.233 203.549 176.968 203.549 176.792 203.455H176.703C173.613 202.892 170.257 202.892 166.901 204.299C166.813 204.299 166.636 204.393 166.548 204.393C166.371 204.487 166.195 204.581 166.107 204.581C164.87 205.143 164.075 205.706 163.899 205.894C163.899 205.894 163.899 205.894 163.811 205.894L162.663 199.797C164.252 192.949 176.35 191.448 184.828 191.167C161.426 191.167 162.574 199.14 162.663 199.703L159.572 186.195C158.865 177.284 157.452 169.405 154.803 165.278L159.572 186.195C161.073 204.487 159.66 227.093 159.395 230.845C159.395 230.845 141.822 220.902 122.836 247.354C115.241 249.418 106.234 249.793 100.406 248.479C99.4344 248.292 98.5513 248.01 97.7565 247.635L87.9544 240.506L87.248 239.944C79.9184 234.503 69.9397 227.28 63.5816 222.684L62.9634 222.215L61.7271 221.277L61.109 220.902L59.961 220.152L58.9896 219.401L58.1948 218.838L57.7533 218.557L57.4 218.275C46.4499 192.011 57.8416 167.154 58.813 165.09L49.0108 183.194C48.7459 182.537 48.3927 181.974 47.9512 181.412C41.5047 171.938 25.0795 173.72 22.342 174.189C22.2537 174.189 22.2537 174.189 22.2537 174.189H22.1654H22.0771C21.9888 174.189 21.9888 174.189 21.9888 174.189C27.1106 148.3 50.8653 133.292 50.8653 133.292L76.1212 137.137C120.01 168.748 138.996 136.856 138.996 136.856L169.021 142.296C181.737 158.243 189.773 188.916 190.303 191.167C188.89 191.167 187.035 191.073 184.916 191.167C186.594 191.167 188.448 191.261 190.391 191.355C190.391 191.355 190.391 191.355 190.391 191.167C192.157 191.261 193.217 191.355 193.217 191.355C194.983 202.611 190.214 210.396 190.214 210.396Z" fill="white"/>
<path d="M159.572 186.195L162.663 199.703C162.574 199.14 161.426 191.167 184.828 191.167C176.35 191.448 164.252 192.949 162.663 199.797L163.811 205.894C163.899 205.894 163.899 205.894 163.899 205.894C164.075 205.706 164.87 205.143 166.107 204.581C166.195 204.581 166.371 204.487 166.548 204.393C166.636 204.393 166.813 204.299 166.901 204.299C170.257 202.892 173.613 202.892 176.703 203.455H176.792C176.968 203.549 177.233 203.549 177.41 203.643C179.618 204.112 182.09 205.05 184.739 206.55C185.004 206.738 185.358 206.926 185.622 207.113C186.241 207.488 186.77 207.864 187.212 208.145C188.448 208.989 189.42 209.74 189.861 210.115C190.126 210.302 190.214 210.396 190.214 210.396C190.214 210.396 194.983 202.611 193.217 191.355C193.217 191.355 192.157 191.261 190.391 191.167C190.391 191.355 190.391 191.355 190.391 191.355C188.448 191.261 186.594 191.167 184.916 191.167C187.035 191.073 188.89 191.167 190.303 191.167C189.773 188.916 181.737 158.243 169.021 142.296L138.996 136.856C138.996 136.856 120.01 168.748 76.1212 137.137L50.8653 133.292C50.8653 133.292 27.1106 148.3 21.9888 174.189C21.9888 174.189 21.9888 174.189 22.0771 174.189H22.1654H22.2537C22.2537 174.189 22.2537 174.189 22.342 174.189C25.0795 173.72 41.5047 171.938 47.9512 181.412C48.3927 181.974 48.7459 182.537 49.0108 183.194L58.813 165.09C57.8416 167.154 46.4499 192.011 57.4 218.275L57.7533 218.557L58.1948 218.838L58.9896 219.401L59.961 220.152L61.109 220.902L61.7271 221.277L62.9634 222.215L63.5816 222.684C69.9397 227.28 79.9184 234.503 87.248 239.944L87.9544 240.506L97.7565 247.635C98.5513 248.01 99.4344 248.292 100.406 248.479C106.234 249.793 115.241 249.418 122.836 247.354C141.822 220.902 159.395 230.845 159.395 230.845C159.66 227.093 161.073 204.487 159.572 186.195ZM159.572 186.195C158.865 177.284 157.452 169.405 154.803 165.278L159.572 186.195Z" stroke="black" stroke-width="0.25" stroke-miterlimit="10"/>
<path d="M48.569 183.194C48.304 182.537 47.9508 181.974 47.5093 181.412C47.9508 181.974 48.2157 182.537 48.569 183.194Z" stroke="black" stroke-width="0.25" stroke-miterlimit="10"/>
<path d="M49.0105 183.194V194.731C49.0105 194.731 30.7308 187.415 17.9263 202.423L21.5469 174.283C21.5469 174.283 21.5469 174.283 21.6352 174.283H21.7235H21.8118H21.9001C24.7259 174.095 41.9459 173.063 47.9508 181.505C48.304 181.974 48.6573 182.537 49.0105 183.194Z" fill="#C6C5C4" stroke="black" stroke-width="0.25" stroke-miterlimit="10"/>
<path fill-rule="evenodd" clip-rule="evenodd" d="M52.1012 213.961C52.1012 213.961 46.891 224.935 36.2941 222.309C25.6973 219.683 17.8379 202.235 17.8379 202.235C30.4659 187.227 48.4806 194.544 48.4806 194.544L52.1012 213.961Z" fill="white" stroke="black" stroke-width="0.25" stroke-miterlimit="10"/>
<path fill-rule="evenodd" clip-rule="evenodd" d="M190.038 209.552C189.419 222.215 179.176 231.595 179.176 231.595C179.176 231.595 171.14 231.501 167.696 231.595C164.164 231.689 163.987 228.125 163.987 228.125L163.545 205.237C163.545 205.237 163.545 205.237 163.634 205.237C164.34 204.674 165.135 204.299 165.841 203.924C166.018 203.83 166.195 203.736 166.283 203.736C166.371 203.736 166.46 203.643 166.636 203.643C168.844 202.798 172.2 202.048 176.438 202.798H176.527C176.703 202.798 176.968 202.892 177.145 202.986C179.882 203.643 182.443 204.768 184.474 205.894C184.739 206.081 185.092 206.269 185.357 206.457C185.887 206.832 186.417 207.113 186.947 207.488C187.83 208.051 188.713 208.708 189.596 209.458C189.949 209.458 190.038 209.552 190.038 209.552Z" fill="white" stroke="black" stroke-width="0.25" stroke-miterlimit="10"/>
<path d="M162.574 200.172L163.722 206.269C163.722 206.269 174.142 197.452 190.214 210.584C190.214 210.584 194.983 202.798 192.952 191.73C192.952 191.73 164.959 189.572 162.574 200.172Z" fill="#C6C5C4" stroke="black" stroke-width="0.25" stroke-miterlimit="10"/>
<path d="M105.792 216.868C117.058 216.868 126.191 207.293 126.191 195.482C126.191 183.67 117.058 174.095 105.792 174.095C94.526 174.095 85.3931 183.67 85.3931 195.482C85.3931 207.293 94.526 216.868 105.792 216.868Z" fill="url(#paint0_linear_160_712)"/>
<path d="M105.792 202.517C109.986 202.517 113.387 199.199 113.387 195.107C113.387 191.014 109.986 187.696 105.792 187.696C101.598 187.696 98.1978 191.014 98.1978 195.107C98.1978 199.199 101.598 202.517 105.792 202.517Z" fill="#FBEA1F"/>
<path d="M99.4338 190.604C97.5794 190.604 95.8132 191.073 94.312 191.917C95.6366 191.355 97.1378 190.979 98.6391 190.979C104.379 190.979 108.971 195.482 108.971 201.016C108.971 204.768 106.852 207.957 103.761 209.74C107.293 208.145 109.766 204.674 109.766 200.641C109.766 195.107 105.086 190.604 99.4338 190.604Z" fill="url(#paint1_linear_160_712)"/>
<path d="M102.083 189.197C99.699 189.197 97.5796 189.948 95.8135 191.261C97.403 190.229 99.3458 189.666 101.377 189.666C107.117 189.666 112.15 194.262 112.15 199.797C112.15 202.986 110.561 205.706 108.088 207.488C110.914 205.706 112.857 202.704 112.857 199.234C112.769 193.793 107.735 189.197 102.083 189.197Z" fill="url(#paint2_linear_160_712)"/>
<path d="M100.67 190.041C99.5223 190.041 98.4626 190.229 97.4912 190.51C98.1977 190.417 98.9041 190.323 99.6106 190.323C105.351 190.323 110.384 194.919 110.384 200.453C110.384 204.862 107.205 208.52 102.966 209.833C107.647 208.895 111.444 204.956 111.444 200.172C111.444 194.638 106.41 190.041 100.67 190.041Z" fill="url(#paint3_linear_160_712)"/>
<path d="M112.239 190.604C114.093 190.604 115.859 191.073 117.361 191.917C116.036 191.355 114.535 190.979 113.033 190.979C107.293 190.979 102.702 195.482 102.702 201.016C102.702 204.768 104.821 207.957 107.912 209.74C104.379 208.145 101.907 204.674 101.907 200.641C101.907 195.107 106.499 190.604 112.239 190.604Z" fill="url(#paint4_linear_160_712)"/>
<path d="M109.589 189.197C111.974 189.197 114.093 189.948 115.859 191.261C114.27 190.229 112.327 189.666 110.296 189.666C104.556 189.666 99.5224 194.262 99.5224 199.797C99.5224 202.986 101.112 205.706 103.585 207.488C100.759 205.706 98.8159 202.704 98.8159 199.234C98.8159 193.793 103.849 189.197 109.589 189.197Z" fill="url(#paint5_linear_160_712)"/>
<path d="M110.914 190.041C112.062 190.041 113.122 190.229 114.093 190.51C113.387 190.417 112.68 190.323 111.974 190.323C106.234 190.323 101.2 194.919 101.2 200.453C101.2 204.862 104.379 208.52 108.618 209.833C103.938 208.895 100.141 204.956 100.141 200.172C100.141 194.638 105.174 190.041 110.914 190.041Z" fill="url(#paint6_linear_160_712)"/>
<path d="M101.112 187.79C101.465 187.602 101.818 187.415 102.171 187.227C101.906 186.852 101.288 185.82 101.023 185.07C100.758 184.132 100.493 183.006 98.9922 182.443C98.9922 182.443 99.8753 183.475 100.052 185.07C100.317 186.477 100.935 187.415 101.112 187.79Z" fill="#FBEA1F"/>
<path d="M101.907 184.413C101.818 185.726 102.26 186.758 102.437 187.133C102.79 186.946 103.231 186.852 103.585 186.758C103.408 186.383 102.966 185.257 102.79 184.507C102.701 183.569 102.525 182.35 101.2 181.599C101.289 181.693 101.995 182.819 101.907 184.413Z" fill="#FBEA1F"/>
<path d="M103.673 184.038C103.408 185.257 103.673 186.383 103.761 186.852C104.114 186.758 104.556 186.664 104.997 186.664C104.909 186.195 104.556 185.07 104.644 184.319C104.644 183.381 104.733 182.162 103.585 181.224C103.585 181.224 104.026 182.443 103.673 184.038Z" fill="#FBEA1F"/>
<path d="M98.6393 186.102C98.9925 187.321 99.699 188.259 100.052 188.541C100.405 188.259 100.67 188.072 101.024 187.884C100.759 187.509 99.9639 186.664 99.6107 185.914C99.1692 185.07 98.7276 183.944 97.2264 183.663C97.1381 183.757 98.1978 184.601 98.6393 186.102Z" fill="#FBEA1F"/>
<path d="M97.226 187.321C97.7559 188.447 98.639 189.291 98.9922 189.572C99.2571 189.291 99.522 189.01 99.8753 188.728C99.522 188.447 98.5506 187.696 98.1091 187.04C97.5793 186.195 96.8728 185.257 95.3716 185.164C95.3716 185.164 96.5196 185.914 97.226 187.321Z" fill="#FBEA1F"/>
<path d="M96.9611 193.231C97.0494 192.855 97.226 192.48 97.3143 192.105C96.8728 192.011 95.6365 191.73 95.0183 191.355C94.1353 190.886 93.0756 190.229 91.751 190.886C91.751 190.886 93.0756 190.979 94.4002 192.011C95.3716 192.762 96.5196 193.137 96.9611 193.231Z" fill="#FBEA1F"/>
<path d="M105.792 186.571C105.969 186.571 106.145 186.571 106.41 186.571C106.322 186.102 106.234 184.976 106.41 184.226C106.587 183.288 106.852 182.068 105.792 181.036C105.792 181.036 106.057 182.35 105.527 183.85C105.086 185.07 105.086 186.195 105.174 186.664C105.351 186.571 105.527 186.571 105.792 186.571Z" fill="#FBEA1F"/>
<path d="M95.1069 190.323C95.99 191.261 97.0496 191.73 97.4912 191.917C97.6678 191.542 97.8444 191.167 98.021 190.886C97.5795 190.698 96.4315 190.229 95.8133 189.76C95.0186 189.197 94.0472 188.353 92.6343 188.822C92.6343 188.822 93.9589 189.103 95.1069 190.323Z" fill="#FBEA1F"/>
<path d="M95.99 188.728C96.6964 189.76 97.6678 190.417 98.1094 190.698C98.286 190.323 98.5509 190.041 98.8158 189.76C98.3743 189.572 97.4029 188.916 96.8731 188.353C96.1666 187.603 95.3718 186.758 93.8706 186.946C93.8706 186.852 95.1069 187.415 95.99 188.728Z" fill="#FBEA1F"/>
<path d="M110.561 187.884C110.914 188.072 111.267 188.353 111.532 188.541C111.797 188.165 112.415 187.133 112.945 186.571C113.651 185.914 114.623 185.164 114.446 183.663C114.446 183.663 113.916 184.882 112.503 185.726C111.444 186.571 110.825 187.509 110.561 187.884Z" fill="#FBEA1F"/>
<path d="M117.007 191.542C115.682 191.448 114.534 191.917 114.181 192.105C114.358 192.48 114.446 192.855 114.534 193.231C114.976 193.043 116.036 192.574 116.83 192.48C117.802 192.386 119.038 192.293 119.745 190.979C119.833 190.979 118.685 191.636 117.007 191.542Z" fill="#FBEA1F"/>
<path d="M113.563 190.886C113.74 191.261 114.005 191.542 114.093 191.917C114.446 191.636 115.506 191.073 116.301 190.792C117.272 190.51 118.42 190.229 118.95 188.822C118.95 188.822 117.89 189.666 116.301 189.854C114.976 190.041 113.916 190.604 113.563 190.886Z" fill="#FBEA1F"/>
<path d="M117.537 193.324C116.212 193.043 115.064 193.324 114.623 193.418C114.711 193.793 114.799 194.169 114.799 194.638C115.241 194.544 116.389 194.262 117.183 194.262C118.155 194.262 119.391 194.356 120.363 193.231C120.363 193.137 119.126 193.606 117.537 193.324Z" fill="#FBEA1F"/>
<path d="M117.272 195.951C118.243 196.138 119.48 196.42 120.539 195.388C120.539 195.388 119.215 195.669 117.625 195.107C116.389 194.638 115.152 194.731 114.711 194.731C114.711 194.919 114.711 195.107 114.711 195.294C114.711 195.482 114.711 195.669 114.711 195.857C115.241 195.951 116.477 195.857 117.272 195.951Z" fill="#FBEA1F"/>
<path d="M110.384 187.79C110.561 187.415 111.002 186.289 111.532 185.633C112.15 184.882 112.945 183.944 112.503 182.537C112.503 182.537 112.15 183.85 110.914 184.882C109.942 185.726 109.413 186.758 109.324 187.227C109.677 187.415 110.031 187.602 110.384 187.79Z" fill="#FBEA1F"/>
<path d="M93.9587 193.793C95.1067 194.45 96.2546 194.544 96.6962 194.544C96.6962 194.169 96.7845 193.793 96.8728 193.324C96.4313 193.324 95.195 193.231 94.4885 192.949C93.5171 192.574 92.3691 192.199 91.1328 192.949C91.2211 193.043 92.5457 192.949 93.9587 193.793Z" fill="#FBEA1F"/>
<path d="M106.587 186.664C107.028 186.664 107.382 186.758 107.823 186.852C107.823 186.383 107.912 185.257 108.176 184.507C108.53 183.569 108.971 182.443 108.088 181.224C108.088 181.224 108.176 182.537 107.382 183.944C106.675 185.07 106.587 186.195 106.587 186.664Z" fill="#FBEA1F"/>
<path d="M111.708 188.728C112.062 189.01 112.327 189.291 112.592 189.572C112.856 189.197 113.651 188.353 114.358 187.884C115.152 187.321 116.212 186.664 116.3 185.257C116.3 185.257 115.594 186.383 114.093 187.04C112.768 187.509 111.973 188.447 111.708 188.728Z" fill="#FBEA1F"/>
<path d="M112.68 189.76C112.945 190.041 113.21 190.417 113.387 190.698C113.74 190.417 114.623 189.666 115.329 189.291C116.212 188.916 117.36 188.447 117.625 186.946C117.625 186.946 116.742 187.978 115.153 188.353C114.005 188.728 113.033 189.479 112.68 189.76Z" fill="#FBEA1F"/>
<path d="M109.148 187.227C109.236 186.758 109.501 185.633 109.942 184.976C110.384 184.132 111.09 183.1 110.384 181.787C110.384 181.787 110.295 183.1 109.236 184.319C108.441 185.351 108.088 186.477 108 186.852C108.353 186.946 108.794 187.04 109.148 187.227Z" fill="#FBEA1F"/>
<path d="M110.384 202.892C110.031 203.08 109.677 203.267 109.324 203.455C109.589 203.83 110.207 204.862 110.472 205.612C110.737 206.55 111.002 207.676 112.503 208.239C112.503 208.239 111.62 207.207 111.444 205.612C111.267 204.299 110.649 203.267 110.384 202.892Z" fill="#FBEA1F"/>
<path d="M112.945 204.581C112.592 203.361 111.885 202.423 111.532 202.142C111.179 202.423 110.914 202.611 110.561 202.798C110.825 203.174 111.709 204.018 111.973 204.768C112.415 205.612 112.857 206.738 114.358 207.019C114.446 207.019 113.386 206.175 112.945 204.581Z" fill="#FBEA1F"/>
<path d="M107.912 206.738C108.176 205.519 107.912 204.393 107.823 203.924C107.47 204.018 107.028 204.112 106.587 204.112C106.675 204.581 107.028 205.706 106.94 206.457C106.94 207.395 106.852 208.614 108 209.552C108 209.552 107.558 208.333 107.912 206.738Z" fill="#FBEA1F"/>
<path d="M114.358 203.361C113.828 202.235 112.945 201.391 112.592 201.11C112.327 201.391 112.062 201.673 111.708 201.954C112.062 202.235 113.033 202.986 113.475 203.643C114.004 204.487 114.711 205.425 116.212 205.519C116.212 205.519 115.064 204.862 114.358 203.361Z" fill="#FBEA1F"/>
<path d="M109.677 206.269C109.766 204.956 109.324 203.924 109.148 203.549C108.794 203.736 108.353 203.83 108 203.924C108.176 204.299 108.618 205.425 108.794 206.175C108.883 207.113 109.059 208.333 110.384 209.083C110.296 208.989 109.589 207.864 109.677 206.269Z" fill="#FBEA1F"/>
<path d="M114.534 197.545C114.446 197.921 114.269 198.296 114.181 198.671C114.623 198.765 115.859 199.046 116.477 199.421C117.36 199.89 118.42 200.547 119.745 199.89C119.745 199.89 118.42 199.797 117.095 198.765C116.124 197.921 114.976 197.639 114.534 197.545Z" fill="#FBEA1F"/>
<path d="M105.792 204.205C105.616 204.205 105.351 204.205 105.174 204.205C105.262 204.674 105.351 205.8 105.174 206.55C104.997 207.488 104.732 208.708 105.704 209.74C105.704 209.74 105.439 208.426 105.969 206.926C106.41 205.706 106.41 204.581 106.322 204.112C106.145 204.205 105.969 204.205 105.792 204.205Z" fill="#FBEA1F"/>
<path d="M117.625 196.983C116.477 196.326 115.329 196.232 114.888 196.232C114.888 196.607 114.799 196.983 114.711 197.452C115.152 197.452 116.389 197.545 117.095 197.827C118.067 198.108 119.215 198.577 120.451 197.733C120.363 197.639 119.038 197.733 117.625 196.983Z" fill="#FBEA1F"/>
<path d="M116.477 200.453C115.594 199.515 114.534 199.046 114.093 198.859C113.916 199.234 113.74 199.609 113.563 199.89C114.005 200.078 115.153 200.453 115.771 200.922C116.565 201.485 117.537 202.329 118.95 201.86C118.95 201.954 117.625 201.579 116.477 200.453Z" fill="#FBEA1F"/>
<path d="M115.594 201.954C114.888 200.922 113.828 200.266 113.475 199.984C113.298 200.359 113.033 200.641 112.769 200.922C113.21 201.11 114.181 201.766 114.8 202.329C115.506 203.08 116.301 203.924 117.802 203.736C117.714 203.83 116.477 203.361 115.594 201.954Z" fill="#FBEA1F"/>
<path d="M102.348 203.549C102.26 204.018 101.995 205.143 101.553 205.8C101.112 206.644 100.405 207.676 101.112 208.989C101.112 208.989 101.2 207.676 102.26 206.457C103.054 205.425 103.408 204.299 103.496 203.924C103.143 203.83 102.79 203.643 102.348 203.549Z" fill="#FBEA1F"/>
<path d="M94.4886 199.14C95.8132 199.234 96.9612 198.765 97.3144 198.577C97.1378 198.202 97.0495 197.827 96.9612 197.452C96.5196 197.639 95.4599 198.108 94.6652 198.202C93.6938 198.296 92.4575 198.39 91.751 199.703C91.6627 199.703 92.899 199.046 94.4886 199.14Z" fill="#FBEA1F"/>
<path d="M98.8158 201.016C98.5508 200.735 98.2859 200.359 98.1093 200.078C97.7561 200.359 96.873 201.11 96.0782 201.485C95.1952 201.86 94.0471 202.329 93.7822 203.83C93.7822 203.83 94.6653 202.798 96.2548 202.423C97.5794 202.048 98.4625 201.297 98.8158 201.016Z" fill="#FBEA1F"/>
<path d="M98.021 199.89C97.8444 199.515 97.6678 199.234 97.4912 198.859C97.138 199.14 96.0783 199.703 95.2835 199.984C94.3121 200.266 93.1641 200.547 92.6343 201.954C92.6343 201.954 93.694 201.11 95.2835 200.922C96.6081 200.641 97.5795 200.078 98.021 199.89Z" fill="#FBEA1F"/>
<path d="M94.0473 197.358C95.3719 197.639 96.5199 197.358 96.9614 197.264C96.8731 196.889 96.7848 196.514 96.7848 196.045C96.3433 196.138 95.1953 196.42 94.4005 196.42C93.4291 196.42 92.1928 196.326 91.2215 197.452C91.1332 197.545 92.4578 197.076 94.0473 197.358Z" fill="#FBEA1F"/>
<path d="M99.7873 201.954C99.5224 201.673 99.1691 201.391 98.9042 201.11C98.6393 201.485 97.8445 202.329 97.1381 202.798C96.3433 203.361 95.2836 204.018 95.1953 205.425C95.1953 205.425 95.9018 204.299 97.403 203.643C98.7276 203.174 99.5224 202.329 99.7873 201.954Z" fill="#FBEA1F"/>
<path d="M104.997 204.112C104.556 204.112 104.203 204.018 103.761 203.924C103.761 204.393 103.673 205.519 103.408 206.269C103.055 207.207 102.613 208.333 103.496 209.552C103.496 209.552 103.408 208.239 104.203 206.832C104.821 205.706 104.909 204.581 104.997 204.112Z" fill="#FBEA1F"/>
<path d="M101.112 202.892C100.935 203.267 100.493 204.393 99.9635 205.05C99.3454 205.8 98.5506 206.738 98.9921 208.145C98.9921 208.145 99.3454 206.832 100.582 205.8C101.553 204.956 102.083 203.924 102.26 203.455C101.818 203.267 101.465 203.08 101.112 202.892Z" fill="#FBEA1F"/>
<path d="M93.8705 195.576C95.1068 196.045 96.3431 195.951 96.7847 195.951C96.7847 195.763 96.7847 195.576 96.7847 195.388C96.7847 195.2 96.7847 195.013 96.7847 194.731C96.3431 194.731 95.1068 194.919 94.3121 194.731C93.3407 194.544 92.1044 194.262 91.0447 195.294C90.9564 195.294 92.281 195.013 93.8705 195.576Z" fill="#FBEA1F"/>
<path d="M100.935 202.798C100.582 202.611 100.228 202.329 99.9635 202.142C99.6986 202.517 99.0805 203.549 98.5506 204.112C97.8442 204.768 96.8728 205.519 97.0494 207.019C97.0494 207.019 97.5792 205.8 98.9922 204.956C100.052 204.205 100.758 203.174 100.935 202.798Z" fill="#FBEA1F"/>
<path d="M28.9647 246.603C28.9647 246.603 12.3629 249.887 9.80195 254.577C7.24103 259.267 3.17889 262.643 7.59426 264.801C11.3915 266.583 19.7807 270.992 19.7807 270.992C19.1625 272.024 6.44627 269.679 2.64905 267.709C-0.176792 266.302 -0.353407 259.548 3.09058 253.545C3.09058 253.545 6.8878 247.635 12.3629 246.228C12.4512 246.228 18.1028 246.041 28.9647 246.603Z" fill="black"/>
<path d="M43.624 138.732C43.624 138.732 60.2258 146.424 54.4858 156.836C48.6575 167.248 43.624 177.566 43.624 177.566C43.624 177.566 49.4523 180.943 49.0108 183.194C49.0108 183.194 57.6649 161.338 61.1972 160.963C64.7295 160.588 76.3861 171.281 87.3362 169.217C98.2863 167.06 115.418 171.656 129.194 167.341C142.97 163.027 172.023 159.462 175.467 152.615L168.932 142.578L165.577 141.921L50.8652 133.573L43.624 138.732Z" fill="#ECECEB"/>
<path d="M49.6289 129.446C50.8652 127.945 51.5717 127.194 51.5717 127.194" stroke="#EC8004" stroke-width="1.05" stroke-miterlimit="10"/>
<path d="M166.018 126.256C166.018 126.256 166.548 127.007 167.431 128.226C167.608 128.508 167.873 128.789 168.049 129.164" stroke="#EC8004" stroke-width="1.05" stroke-miterlimit="10"/>
<path d="M167.431 128.226C167.431 128.32 167.431 128.32 167.431 128.226ZM167.431 128.226C167.519 128.602 167.519 128.883 167.608 129.258" stroke="#EC8004" stroke-width="1.05" stroke-miterlimit="10"/>
<path d="M17.6615 79.1683C18.1913 80.3877 18.8978 81.4195 19.6042 82.4513C20.3107 83.4831 21.1938 84.5149 21.9885 85.3591C22.8716 86.2972 23.7547 87.1414 24.7261 87.9856C25.6975 88.8298 26.6688 89.5802 27.7285 90.2368L27.3753 90.9872C26.3156 90.2368 25.3442 89.3926 24.4612 88.5484C23.4898 87.7042 22.6067 86.7662 21.7236 85.8281C20.8405 84.8901 20.0458 83.8583 19.3393 82.7327C18.6329 81.6071 17.9264 80.4815 17.4849 79.2621L17.6615 79.1683Z" fill="#1D1D1C"/>
<path d="M20.2222 73.7278L30.1126 79.9187L29.7594 80.5753L20.2222 73.7278Z" fill="#1D1D1C"/>
<path d="M22.2533 68.1935L32.1437 74.572L31.7905 75.1348L22.0767 68.4749L22.2533 68.1935Z" fill="#1D1D1C"/>
<path d="M56.6935 14.2578C54.3092 15.8524 52.1016 17.447 50.0705 19.0416C47.8628 20.5425 45.7434 22.1371 43.7124 23.8255C26.2275 10.5057 14.9241 25.7015 14.9241 25.7015C6.62323 36.7701 18.5447 49.3395 21.2823 51.9659C19.5161 55.6241 18.1915 59.3762 17.1318 63.1282C1.23647 48.4014 1.85463 29.1722 3.35585 19.6045C3.97401 15.7586 6.35831 12.4756 9.8023 10.8809C32.4973 0.656604 56.6935 14.2578 56.6935 14.2578Z" fill="#1D1D1C"/>
<path d="M43.7125 23.9193C33.9987 31.9862 26.3159 41.6477 21.2824 52.1535C18.5449 49.527 6.62336 36.9577 14.9243 25.8891C15.0126 25.7953 26.3159 10.5057 43.7125 23.9193Z" fill="white" stroke="#1D1D1C" stroke-width="0.2625" stroke-miterlimit="10"/>
<path d="M215.735 27.0148C216.707 37.0515 215.912 57.4064 197.102 71.1013C197.014 70.4447 197.014 69.7881 196.926 69.2253C196.749 68.0059 196.572 66.6927 196.396 65.3795C195.601 60.6894 194.188 55.9993 192.245 51.4969C193.482 54.0295 194.453 56.3745 195.071 58.532C195.071 58.532 212.203 45.3998 203.637 32.2676C203.637 32.2676 193.57 16.509 175.644 27.9528C171.846 24.2007 167.608 20.7301 163.016 17.6346C165.488 16.509 189.066 6.56608 209.819 17.8222C213.174 19.6983 215.294 23.1689 215.735 27.0148Z" fill="#1D1D1C"/>
<path d="M195.071 58.6258C194.365 56.4683 193.482 54.1233 192.245 51.5907C188.537 43.0548 182.885 35.0817 175.732 28.0466C193.658 16.6966 203.725 32.3614 203.725 32.3614C212.203 45.4936 195.071 58.6258 195.071 58.6258Z" fill="white" stroke="#1D1D1C" stroke-width="0.2625" stroke-miterlimit="10"/>
<path d="M50.0706 19.0416C47.8629 20.7301 45.8319 22.4185 43.9774 24.0131C43.8891 23.9193 43.8008 23.9193 43.8008 23.8255C45.7435 22.2309 47.8629 20.6363 50.0706 19.0416Z" fill="#F6A74C" stroke="#1D1D1C" stroke-width="0.2625" stroke-miterlimit="10"/>
<path d="M85.3053 86.0157C82.4795 86.3909 79.742 86.6723 77.0928 86.9537C77.446 54.1233 66.4076 45.9626 66.4076 45.9626C38.9439 50.7465 47.3331 84.6087 47.3331 84.6087C41.2399 82.8265 36.5596 80.4815 33.0273 77.9488C33.0273 77.855 33.2923 76.5418 33.2923 76.448C33.9104 73.165 34.6169 70.1633 35.5 67.3493C36.1181 65.3795 36.7363 63.5034 37.4427 61.7212C47.1565 37.7081 65.8777 35.7383 65.8777 35.7383C80.3601 46.713 85.3053 86.0157 85.3053 86.0157Z" fill="#1D1D1C" stroke="#1D1D1C" stroke-width="0.2625" stroke-miterlimit="10"/>
<path fill-rule="evenodd" clip-rule="evenodd" d="M77.181 86.8599C75.3265 87.0476 73.5603 87.1414 71.8825 87.1414C71.3527 74.8534 68.3502 69.4129 65.3478 67.0679C65.6127 66.1299 65.701 65.0043 65.5244 63.7848C65.0828 61.1584 63.5816 59.2824 62.1687 59.5638C60.7558 59.8452 59.961 62.1902 60.4025 64.7229C60.4025 64.9105 60.4908 65.0981 60.4908 65.2857C60.0493 65.2857 59.7844 65.3795 59.7844 65.3795C51.925 67.9121 55.1924 86.2971 55.1924 86.2971C52.3666 85.8281 49.7173 85.2653 47.333 84.6087C47.333 84.6087 38.9438 50.6527 66.4074 45.9626C66.4074 45.9626 77.4459 54.1233 77.181 86.8599Z" fill="#0089CF"/>
<path d="M163.192 126.913C150.652 129.446 140.409 116.97 140.409 116.97C137.053 134.323 120.01 140.889 103.761 140.702C91.7514 142.484 84.8634 138.638 81.5078 135.637C80.6247 135.168 79.8299 134.699 79.0351 134.136C62.6983 123.349 67.4669 111.53 67.4669 111.53C36.2943 131.416 16.8667 94.2703 16.8667 94.2703C24.0196 123.724 49.4521 141.734 78.3287 144.079C86.188 144.735 94.4006 144.173 102.437 142.297C105.616 141.546 116.036 143.985 128.929 144.266C147.827 144.642 172.199 140.608 186.947 115.657C187.212 115.188 187.477 114.719 187.83 114.156C182.355 118.096 172.111 125.131 163.192 126.913ZM151.359 132.916C154.185 129.164 167.519 128.883 167.519 128.883C158.953 136.012 151.359 132.916 151.359 132.916Z" fill="#C6C5C4" stroke="#1D1D1C" stroke-width="0.2625" stroke-miterlimit="10"/>
<path d="M192.246 51.5907C188.537 43.0548 182.885 35.0817 175.732 28.0466C171.935 24.2945 167.696 20.8239 163.104 17.7284C143.323 4.12725 117.273 -2.90785 91.6635 1.87602C76.033 4.78386 61.8155 10.8809 50.0707 19.0416C47.863 20.7301 45.8319 22.4185 43.9774 24.0131C43.8891 23.9193 43.8008 23.9193 43.8008 23.8255C34.087 31.8924 26.4043 41.5539 21.3707 52.0597C19.6046 55.7179 18.28 59.47 17.2203 63.222C14.9243 71.6642 14.3061 80.4815 15.7191 89.2988C15.984 90.9872 16.3372 92.6756 16.7788 94.2702C16.7788 94.2702 36.2064 131.322 67.3789 111.436C67.3789 111.436 62.6103 123.255 78.9472 134.042C79.742 134.511 80.5367 135.074 81.4198 135.543C87.3364 138.638 95.4607 140.514 103.673 140.608C119.922 140.796 136.965 134.23 140.321 116.97C140.321 116.97 150.565 129.446 163.104 126.913C172.023 125.131 182.267 118.096 187.565 114.156C191.274 107.59 198.869 92.3942 196.926 71.1013C196.838 70.4447 196.838 69.7881 196.749 69.2253C196.573 68.0059 196.396 66.6927 196.219 65.3795C195.601 60.6894 194.188 56.0931 192.246 51.5907ZM148.975 12.1004C149.593 11.2561 152.331 12.3818 154.98 14.7268C157.629 16.978 159.307 19.5107 158.689 20.3549C158.071 21.1991 155.333 20.0735 152.684 17.7284C150.035 15.3834 148.357 12.9446 148.975 12.1004ZM145.884 22.2309C148.533 26.5457 147.474 32.7366 142.97 35.8321C138.466 38.9275 133.521 40.3345 130.96 36.0197C128.311 31.7048 129.812 25.7015 134.316 22.6999C138.731 19.6045 143.235 17.916 145.884 22.2309ZM127.516 6.09707C128.929 4.22105 131.402 3.56444 133.433 4.78386C136.612 6.65988 136.347 10.3181 136.347 10.3181C128.311 9.47392 123.366 15.3834 123.366 15.3834C121.865 14.3516 125.309 9.19252 127.516 6.09707ZM111.709 70.8199C112.416 69.0377 113.829 67.9121 114.888 68.3811C115.86 68.8501 117.008 71.2889 116.301 73.0712C115.595 74.8534 113.299 75.3224 112.239 74.8534C111.179 74.4782 111.003 72.696 111.709 70.8199ZM98.8164 33.5808C99.2579 40.6159 98.6397 46.4316 97.3151 46.5254C95.9905 46.6192 94.5776 40.9911 94.0478 33.956C93.6062 26.921 94.2244 21.1053 95.549 21.0115C96.8736 20.9177 98.3748 26.5457 98.8164 33.5808ZM99.0813 69.6943C100.053 69.1315 101.554 69.9757 102.437 71.6642C103.32 73.3526 103.32 75.2286 102.349 75.7914C101.377 76.3542 98.9047 75.8852 97.9333 74.1968C97.0502 72.5084 98.1099 70.2571 99.0813 69.6943ZM94.5776 60.6894C94.0478 57.594 94.6659 54.8737 95.9905 54.5923C97.3151 54.3109 98.7281 56.6559 99.2579 59.8452C99.7877 62.9406 99.1696 65.6609 97.845 65.9423C96.6087 66.2237 95.1075 63.8786 94.5776 60.6894ZM90.1622 4.12725C96.6087 11.4437 92.3699 17.6346 92.3699 17.6346C85.6586 9.09871 77.446 10.5995 77.446 10.5995C76.4746 6.94129 90.1622 4.12725 90.1622 4.12725ZM69.3217 22.6061C73.3838 19.7921 79.2121 20.9177 82.1263 25.7015C85.0404 30.4854 86.365 35.6445 82.3912 38.4585C78.329 41.2725 72.6774 39.6779 69.7632 34.8941C66.8491 30.204 65.2595 25.4201 69.3217 22.6061ZM41.2399 34.6127C45.0371 28.797 51.1303 27.4838 52.19 28.2342C53.2497 29.0784 49.3642 32.3614 45.567 38.1771C41.7698 43.9928 37.7959 45.6812 36.7362 44.837C35.6765 44.0866 37.4427 40.4283 41.2399 34.6127ZM36.383 107.027C36.0298 109.466 34.1753 107.402 29.8483 105.433C23.8434 102.712 21.1058 95.5835 23.6667 95.3959C27.8172 95.1145 27.6406 100.649 31.8793 102.806C35.3233 104.588 36.7362 104.682 36.383 107.027ZM57.7534 97.8347C57.3119 100.93 50.6888 101.305 41.9464 99.9921C33.2039 98.6789 27.7289 89.3926 28.1704 86.2971C28.612 83.2017 35.8532 93.3322 44.6839 94.6455C53.4263 95.9587 58.1949 94.7393 57.7534 97.8347ZM71.8826 87.2352C65.5245 87.4228 60.0494 87.0476 55.1925 86.2971C52.3667 85.8281 49.7174 85.2653 47.3331 84.6087C41.2399 82.8265 36.5596 80.4815 33.0273 77.9488C33.0273 77.855 33.2922 76.5418 33.2922 76.448C33.9104 73.165 34.6169 70.1633 35.4999 67.3493C36.1181 65.3795 36.7362 63.5034 37.4427 61.815C47.1565 37.8019 65.8777 35.8321 65.8777 35.8321C80.2718 46.8068 85.3053 86.1095 85.3053 86.1095C82.4795 86.4847 79.742 86.7662 77.0927 87.0476C75.3266 87.0476 73.5604 87.1414 71.8826 87.2352ZM99.7877 123.63C99.7877 123.63 79.0355 114.719 77.0927 106.933L91.6635 113.406C91.6635 113.406 98.4631 115.751 98.9047 109.56C98.9047 109.091 89.6324 88.4546 89.6324 88.4546L117.979 90.5182L105.174 111.248C105.174 111.248 102.172 118.283 126.633 111.342C126.633 111.342 108.089 126.35 99.7877 123.63ZM118.421 59.3762C118.067 62.5654 116.654 64.9105 115.33 64.7229C114.005 64.5353 113.299 61.815 113.652 58.7196C114.005 55.5303 115.418 53.1853 116.743 53.3729C118.067 53.5605 118.862 56.2807 118.421 59.3762ZM120.452 33.2994C119.569 40.3345 117.802 45.775 116.566 45.6812C115.242 45.4936 114.888 39.6779 115.771 32.6428C116.654 25.6077 118.421 20.1673 119.657 20.2611C120.982 20.5425 121.335 26.3581 120.452 33.2994ZM165.224 106.652C156.393 105.808 150.035 103.838 150.3 100.743C150.565 97.6471 154.892 99.9921 163.722 100.743C172.553 101.587 181.825 93.426 181.56 96.5215C181.296 99.7107 174.054 107.402 165.224 106.652ZM183.768 110.123C179.441 115.282 172.2 115.751 172.818 113.218C173.878 108.997 178.823 110.873 182.002 107.309C184.651 104.307 185.181 102.994 187.212 104.119C189.243 105.151 186.859 106.371 183.768 110.123ZM185.534 82.6389C182.002 85.0777 177.233 87.4228 171.14 89.0174C168.756 89.674 166.107 90.143 163.281 90.5182C158.424 91.1748 152.949 91.4562 146.591 91.081C144.913 90.9872 143.147 90.8934 141.292 90.7058C138.731 90.4244 135.994 90.0492 133.168 89.674C133.168 89.674 138.82 50.4651 153.479 39.7717C153.479 39.7717 172.2 42.1168 181.472 66.3175C182.179 68.0997 182.797 69.9757 183.327 71.9455C184.121 74.7596 184.828 77.7612 185.358 81.1381C185.358 81.1381 185.534 82.4513 185.534 82.6389ZM179.971 49.4333C179.264 50.6527 176.262 44.4618 169.727 40.3345C163.104 36.2073 161.956 32.2676 162.574 31.0482C163.192 29.8288 165.842 31.2358 172.376 35.3631C179 39.3965 180.589 48.2138 179.971 49.4333Z" fill="white" stroke="#1D1D1C" stroke-width="0.2625" stroke-miterlimit="10"/>
<path d="M185.357 81.0443C185.357 81.1381 185.622 82.4513 185.622 82.5451C182.09 84.9839 177.321 87.329 171.228 88.9236C171.228 88.9236 180.235 55.1551 152.86 49.9023C152.86 49.9023 141.645 57.7816 141.38 90.612C138.819 90.3306 136.082 89.9554 133.256 89.5802C133.256 89.5802 138.908 50.3713 153.567 39.6779C153.567 39.6779 172.288 42.0229 181.56 66.2237C182.266 68.0059 182.885 69.8819 183.414 71.8517C184.121 74.7596 184.827 77.7612 185.357 81.0443Z" fill="#1D1D1C" stroke="#1D1D1C" stroke-width="0.2625" stroke-miterlimit="10"/>
<path fill-rule="evenodd" clip-rule="evenodd" d="M171.14 89.0174C168.756 89.674 166.106 90.143 163.281 90.5182C163.281 90.5182 166.901 72.227 159.042 69.6005C159.042 69.6005 158.777 69.5067 158.335 69.5067C158.424 69.3191 158.424 69.1315 158.424 68.9439C158.865 66.3175 158.159 63.9725 156.746 63.691C155.333 63.4096 153.832 65.2857 153.302 67.8183C153.125 69.0377 153.125 70.1633 153.39 71.1013C150.476 73.3526 147.297 78.793 146.59 90.9872C144.913 90.8934 143.146 90.7996 141.292 90.612C141.557 57.7816 152.772 49.9023 152.772 49.9023C180.147 55.2489 171.14 89.0174 171.14 89.0174Z" fill="#0089CF"/>
<path d="M57.7534 97.8347C57.3118 100.93 50.6888 101.305 41.9463 99.9921C33.2039 98.6789 27.7288 89.3926 28.1704 86.2971C28.6119 83.2017 35.8531 93.3322 44.6838 94.6454C53.4263 95.9587 58.1949 94.7392 57.7534 97.8347Z" fill="#1D1D1C" stroke="#1D1D1C" stroke-width="0.2625" stroke-miterlimit="10"/>
<path d="M181.56 96.5215C181.295 99.6169 174.054 107.402 165.223 106.558C156.393 105.714 150.035 103.744 150.299 100.649C150.564 97.5533 154.891 99.8983 163.722 100.649C172.553 101.587 181.825 93.426 181.56 96.5215Z" fill="#1D1D1C" stroke="#1D1D1C" stroke-width="0.2625" stroke-miterlimit="10"/>
<path d="M36.383 107.027C36.0298 109.466 34.1753 107.402 29.8482 105.433C23.8433 102.712 21.1058 95.5835 23.6667 95.3959C27.8172 95.1145 27.6406 100.649 31.8793 102.806C35.3233 104.588 36.7362 104.682 36.383 107.027Z" fill="#1D1D1C" stroke="#1D1D1C" stroke-width="0.2625" stroke-miterlimit="10"/>
<path d="M183.768 110.123C179.441 115.282 172.2 115.751 172.818 113.218C173.878 108.997 178.823 110.873 182.002 107.309C184.651 104.307 185.181 102.994 187.212 104.119C189.243 105.151 186.859 106.371 183.768 110.123Z" fill="#1D1D1C" stroke="#1D1D1C" stroke-width="0.2625" stroke-miterlimit="10"/>
<path d="M126.633 111.342C126.633 111.342 108 126.35 99.7878 123.63C99.7878 123.63 79.0355 114.719 77.0928 106.933L91.6635 113.406C91.6635 113.406 98.4632 115.751 98.9047 109.56C98.9047 109.091 89.6324 88.4546 89.6324 88.4546L117.979 90.5182L105.175 111.248C105.175 111.248 102.172 118.283 126.633 111.342Z" fill="#1D1D1C" stroke="#1D1D1C" stroke-width="0.2625" stroke-miterlimit="10"/>
<path d="M96.4321 92.2066C97.6684 92.957 99.8761 94.1764 102.879 94.4578C106.676 94.833 109.59 93.6136 110.915 92.957L96.4321 92.2066Z" fill="white"/>
<path d="M77.1812 86.9545V86.86" stroke="#1D1D1C" stroke-width="0.2625" stroke-miterlimit="10"/>
<path d="M65.5246 63.8786C65.7012 65.0981 65.6129 66.2237 65.348 67.1617C65.083 68.1935 64.4649 68.9439 63.6701 69.1315C62.3455 69.4129 61.0209 67.7245 60.4027 65.4733C60.4027 65.2857 60.3144 65.0981 60.3144 64.9105C59.8729 62.284 60.6677 59.939 62.0806 59.7514C63.5818 59.3762 65.083 61.346 65.5246 63.8786Z" fill="white" stroke="#1D1D1C" stroke-width="0.2625" stroke-miterlimit="10"/>
<path d="M71.8826 87.2352C65.5244 87.4228 60.0494 87.0476 55.1925 86.2971C55.1925 86.2971 51.9251 67.9121 59.7844 65.4733C59.7844 65.4733 60.0494 65.3795 60.4909 65.3795C61.0208 67.7245 62.4337 69.3191 63.7583 69.0377C64.5531 68.9439 65.0829 68.1935 65.4361 67.0679C68.262 69.5067 71.3527 74.9472 71.8826 87.2352Z" fill="#1D1D1C" stroke="#1D1D1C" stroke-width="0.2625" stroke-miterlimit="10"/>
<path d="M158.424 68.9439C158.424 69.1315 158.335 69.3191 158.335 69.5067C157.806 71.8518 156.393 73.4464 155.068 73.165C154.273 72.9774 153.743 72.227 153.478 71.1952C153.214 70.2571 153.214 69.1315 153.39 67.9121C153.832 65.2857 155.421 63.5035 156.834 63.7849C158.159 63.9725 158.954 66.3175 158.424 68.9439Z" fill="white" stroke="#1D1D1C" stroke-width="0.2625" stroke-miterlimit="10"/>
<path d="M163.28 90.5182C158.424 91.1748 152.948 91.4562 146.59 91.081C147.297 78.7931 150.476 73.4464 153.39 71.1952C153.655 72.227 154.273 72.9774 154.98 73.165C156.304 73.4464 157.717 71.8518 158.247 69.5067C158.688 69.5067 158.953 69.6005 158.953 69.6005C166.813 72.227 163.28 90.5182 163.28 90.5182Z" fill="#1D1D1C" stroke="#1D1D1C" stroke-width="0.2625" stroke-miterlimit="10"/>
<path d="M98.8162 33.5808C99.2577 40.6159 98.6396 46.4316 97.315 46.5254C95.9904 46.6192 94.5774 40.9911 94.0476 33.956C93.6061 26.9209 94.2242 21.1053 95.5488 21.0115C96.8734 20.9177 98.3747 26.5457 98.8162 33.5808Z" fill="#1D1D1C" stroke="#1D1D1C" stroke-width="0.2625" stroke-miterlimit="10"/>
<path d="M45.5669 38.1771C41.7696 43.9928 37.7958 45.6812 36.7361 44.837C35.6764 43.9928 37.4426 40.3345 41.2398 34.6127C45.037 28.797 51.1302 27.4838 52.1899 28.2342C53.2496 29.0784 49.4524 32.3614 45.5669 38.1771Z" fill="#1D1D1C" stroke="#1D1D1C" stroke-width="0.2625" stroke-miterlimit="10"/>
<path d="M179.971 49.4333C179.264 50.6527 176.262 44.4618 169.727 40.3345C163.104 36.2073 161.956 32.2676 162.574 31.0482C163.192 29.8288 165.842 31.2358 172.376 35.3631C178.999 39.3965 180.589 48.2138 179.971 49.4333Z" fill="#1D1D1C" stroke="#1D1D1C" stroke-width="0.2625" stroke-miterlimit="10"/>
<path d="M120.451 33.2994C119.568 40.3345 117.802 45.775 116.566 45.6812C115.241 45.4936 114.888 39.6779 115.771 32.6428C116.654 25.6077 118.42 20.1673 119.657 20.2611C120.981 20.5425 121.334 26.3581 120.451 33.2994Z" fill="#1D1D1C" stroke="#1D1D1C" stroke-width="0.2625" stroke-miterlimit="10"/>
<path d="M118.421 59.3762C118.067 62.5654 116.654 64.9105 115.33 64.7229C114.005 64.5353 113.299 61.815 113.652 58.7196C114.005 55.5303 115.418 53.1853 116.743 53.3729C118.067 53.5605 118.862 56.2807 118.421 59.3762Z" fill="#1D1D1C" stroke="#1D1D1C" stroke-width="0.2625" stroke-miterlimit="10"/>
<path d="M99.2577 59.8452C99.7876 62.9406 99.1694 65.6609 97.8448 65.9423C96.5202 66.2237 95.1073 63.8786 94.5774 60.6894C94.0476 57.594 94.6657 54.8737 95.9903 54.5923C97.3149 54.4047 98.8162 56.7497 99.2577 59.8452Z" fill="#1D1D1C" stroke="#1D1D1C" stroke-width="0.2625" stroke-miterlimit="10"/>
<path d="M102.349 75.7914C101.377 76.3542 98.9047 75.8852 97.9333 74.1968C97.0502 72.5084 98.0216 70.2571 98.993 69.6943C99.9644 69.1315 101.466 69.9757 102.349 71.6642C103.32 73.3526 103.32 75.2286 102.349 75.7914Z" fill="#1D1D1C" stroke="#1D1D1C" stroke-width="0.2625" stroke-miterlimit="10"/>
<path d="M116.301 73.165C115.595 74.9472 113.299 75.4162 112.239 74.9472C111.268 74.4782 111.003 72.696 111.709 70.9137C112.416 69.1315 113.829 68.0059 114.888 68.4749C115.86 68.9439 117.008 71.3827 116.301 73.165Z" fill="#1D1D1C" stroke="#1D1D1C" stroke-width="0.2625" stroke-miterlimit="10"/>
<path d="M82.3908 38.4585C78.3286 41.2725 72.677 39.6779 69.7628 34.894C66.8487 30.1102 65.2591 25.3263 69.3213 22.6061C73.3834 19.792 79.2117 20.9177 82.1259 25.7015C85.04 30.3916 86.4529 35.6445 82.3908 38.4585Z" fill="#1D1D1C" stroke="#1D1D1C" stroke-width="0.2625" stroke-miterlimit="10"/>
<path d="M142.97 35.8321C138.466 38.9275 133.521 40.3345 130.96 36.0197C128.311 31.7048 129.812 25.7015 134.316 22.6999C138.819 19.6045 143.323 17.916 145.884 22.2309C148.533 26.5457 147.474 32.8304 142.97 35.8321Z" fill="#1D1D1C" stroke="#1D1D1C" stroke-width="0.2625" stroke-miterlimit="10"/>
<path d="M167.519 128.883C158.953 136.012 151.359 132.916 151.359 132.916C154.185 129.258 167.519 128.883 167.519 128.883Z" fill="#1D1D1C"/>
<path d="M55.7221 128.789C45.4784 127.851 40.5332 121.66 40.5332 121.66C44.5953 121.191 55.7221 128.789 55.7221 128.789Z" fill="#1D1D1C"/>
<path d="M92.37 17.5408C85.6586 9.00491 77.446 10.5057 77.446 10.5057C76.5629 6.94129 90.1623 4.03345 90.1623 4.03345C96.6087 11.4437 92.37 17.5408 92.37 17.5408Z" fill="#1D1D1C" stroke="#1D1D1C" stroke-width="0.2625" stroke-miterlimit="10"/>
<path d="M136.347 10.3181C128.311 9.47393 123.366 15.3834 123.366 15.3834C121.953 14.3516 125.309 9.19252 127.605 6.19088C129.018 4.31486 131.49 3.65825 133.521 4.87767C136.524 6.65989 136.347 10.3181 136.347 10.3181Z" fill="#1D1D1C" stroke="#1D1D1C" stroke-width="0.2625" stroke-miterlimit="10"/>
<path d="M158.689 20.3549C158.071 21.1991 155.333 20.0735 152.684 17.7284C150.035 15.4772 148.357 12.9446 148.975 12.1004C149.593 11.2561 152.331 12.3818 154.98 14.7268C157.717 16.978 159.307 19.5107 158.689 20.3549Z" fill="#1D1D1C" stroke="#1D1D1C" stroke-width="0.2625" stroke-miterlimit="10"/>
<path d="M23.6664 66.4113C24.1962 67.6307 24.9027 68.6625 25.6091 69.6943C26.3156 70.7261 27.1987 71.7579 27.9934 72.6022C28.8765 73.5402 29.7596 74.3844 30.731 75.2286C31.7023 76.0728 32.6737 76.8232 33.7334 77.4798L33.3802 78.1364C32.3205 77.386 31.3491 76.5418 30.466 75.6976C29.4947 74.8534 28.6116 73.9154 27.7285 72.9774C26.8454 72.0393 26.0507 71.0075 25.3442 69.8819C24.6377 68.7563 23.9313 67.6307 23.4897 66.4113H23.6664Z" fill="#1D1D1C"/>
<path d="M26.2271 60.877L36.2058 67.1617L35.8526 67.7245L26.2271 60.877Z" fill="#1D1D1C"/>
<path d="M28.2582 55.4365L38.1487 61.7212L37.7954 62.3778L28.1699 55.6241L28.2582 55.4365Z" fill="#1D1D1C"/>
<path d="M190.921 70.0695C190.391 72.3208 189.684 74.4782 188.801 76.6356C187.918 78.7931 186.947 80.8567 185.622 82.7327L185.181 82.4513C186.417 80.5753 187.477 78.6054 188.448 76.5418C189.419 74.4782 190.126 72.3208 190.744 70.0695H190.921Z" fill="#1D1D1C"/>
<path d="M186.682 63.7849L179.882 73.7278L179.353 73.2588L186.682 63.7849Z" fill="#1D1D1C"/>
<path d="M183.238 59.5638L176.262 69.3191L175.732 68.8501L183.061 59.3762L183.238 59.5638Z" fill="#1D1D1C"/>
<path d="M77.0928 132.635C80.5368 134.98 84.334 136.668 88.2195 137.7C90.1623 138.169 92.1933 138.169 94.1361 138.638C95.1075 138.92 96.0789 139.107 97.0503 139.295C98.0216 139.482 99.0813 139.67 100.053 139.67L103.055 139.858L106.058 139.764H107.559L109.06 139.576L112.063 139.295C114.094 139.013 116.125 138.544 118.067 138.263L123.984 136.668L124.072 136.856L118.156 138.732C116.125 139.201 114.182 139.764 112.151 140.233L109.06 140.796L107.559 141.077L105.969 141.265L102.879 141.546L99.7878 141.64C98.7281 141.734 97.6684 141.64 96.6087 141.64C95.549 141.64 94.4893 141.734 93.4296 141.546C92.37 141.358 91.3103 141.265 90.3389 140.796C89.3675 140.42 88.3078 140.045 87.3364 139.576C85.3937 138.732 83.4509 137.888 81.6848 136.762C80.1835 135.543 78.4174 134.323 77.0928 132.635Z" fill="#1D1D1C"/>
<path d="M128.841 144.266C98.9929 165.559 83.0093 150.363 78.1523 144.079C86.0117 144.735 94.2243 144.172 102.26 142.296C105.528 141.64 115.948 143.985 128.841 144.266Z" fill="#5B5A5A" stroke="#1D1D1C" stroke-width="0.2625" stroke-miterlimit="10"/>
<path d="M48.569 194.638C48.569 194.638 32.4088 220.902 26.4922 215.461C26.4922 215.461 36.0294 226.436 46.0964 220.808L52.1897 213.961L48.569 194.638Z" fill="#E3E3E3"/>
<path d="M164.429 210.49C164.429 210.49 164.429 210.49 164.959 211.147C167.873 214.711 173.348 225.967 189.508 212.647C189.508 212.647 184.828 227.374 179.176 230.751H167.873C166.813 230.751 165.93 229.907 165.842 228.781L163.811 211.522" fill="#EBEBEB"/>
<path d="M92.6343 231.595C92.6343 231.595 101.642 243.133 115.241 233.565C128.84 223.997 128.84 223.997 128.84 223.997" stroke="#A8A8A7" stroke-width="0.8213" stroke-miterlimit="10"/>
<path d="M49.2754 255.89C49.2754 255.89 33.3801 279.997 49.5404 280.466C65.7006 280.935 65.7006 280.935 65.7006 280.935L39.9149 280.091C39.9149 280.184 24.726 264.051 49.2754 255.89Z" fill="#E9E9E9"/>
<path d="M139.261 275.776C139.261 275.776 141.645 281.591 152.683 280.935C163.81 280.278 171.14 281.029 171.14 281.029C171.14 281.029 180.5 281.216 179.705 273.243C179.705 273.243 181.383 282.717 175.113 285.531H150.211L134.934 279.715L139.261 275.776Z" fill="#E9E9E9"/>
<path d="M27.5521 208.239C26.5807 206.175 26.4041 203.643 27.0222 202.611C27.6404 201.579 29.0533 201.579 30.0247 203.736C30.996 205.894 33.0271 207.207 32.3207 208.145C31.7908 209.177 28.5234 210.396 27.5521 208.239Z" fill="#1D1D1C"/>
<path d="M40.18 211.991C39.2086 209.927 39.032 207.395 39.6501 206.363C40.2683 205.331 41.6812 205.331 42.6526 207.488C43.624 209.646 45.655 210.959 44.9486 211.897C44.3304 212.835 41.0631 214.054 40.18 211.991Z" fill="#1D1D1C"/>
<path d="M42.2107 201.204C41.2394 199.14 41.0627 196.607 41.6809 195.576C42.2991 194.544 43.712 194.544 44.6834 196.701C45.6547 198.859 47.6858 200.172 46.9793 201.11C46.3612 202.048 43.0938 203.267 42.2107 201.204Z" fill="#1D1D1C"/>
<path d="M166.018 219.589C165.046 217.525 164.87 214.992 165.488 213.961C166.106 212.929 167.519 212.929 168.49 215.086C169.462 217.244 171.493 218.557 170.786 219.495C170.168 220.527 166.989 221.746 166.018 219.589Z" fill="#1D1D1C"/>
<path d="M173.083 227.093C172.111 225.029 171.935 222.497 172.553 221.465C173.171 220.433 174.584 220.433 175.555 222.59C176.527 224.748 178.558 226.061 177.851 226.999C177.233 227.937 174.054 229.156 173.083 227.093Z" fill="#1D1D1C"/>
</g>
<defs>
<linearGradient id="paint0_linear_160_712" x1="125.85" y1="199.199" x2="85.5629" y2="192.511" gradientUnits="userSpaceOnUse">
<stop offset="0.00840336" stop-color="#CE1A17"/>
<stop offset="0.5168" stop-color="#AC1917"/>
<stop offset="1" stop-color="#CE1A17"/>
</linearGradient>
<linearGradient id="paint1_linear_160_712" x1="94.2483" y1="200.167" x2="109.724" y2="200.167" gradientUnits="userSpaceOnUse">
<stop stop-color="#CE1A17"/>
<stop offset="1" stop-color="#CE1A17"/>
</linearGradient>
<linearGradient id="paint2_linear_160_712" x1="95.7787" y1="198.413" x2="112.781" y2="198.413" gradientUnits="userSpaceOnUse">
<stop stop-color="#CE1A17"/>
<stop offset="1" stop-color="#CE1A17"/>
</linearGradient>
<linearGradient id="paint3_linear_160_712" x1="97.5134" y1="199.934" x2="111.427" y2="199.934" gradientUnits="userSpaceOnUse">
<stop stop-color="#CE1A17"/>
<stop offset="1" stop-color="#CE1A17"/>
</linearGradient>
<linearGradient id="paint4_linear_160_712" x1="101.88" y1="200.167" x2="117.356" y2="200.167" gradientUnits="userSpaceOnUse">
<stop stop-color="#CE1A17"/>
<stop offset="1" stop-color="#CE1A17"/>
</linearGradient>
<linearGradient id="paint5_linear_160_712" x1="98.8232" y1="198.413" x2="115.826" y2="198.413" gradientUnits="userSpaceOnUse">
<stop stop-color="#CE1A17"/>
<stop offset="1" stop-color="#CE1A17"/>
</linearGradient>
<linearGradient id="paint6_linear_160_712" x1="100.177" y1="199.934" x2="114.091" y2="199.934" gradientUnits="userSpaceOnUse">
<stop stop-color="#CE1A17"/>
<stop offset="1" stop-color="#CE1A17"/>
</linearGradient>
<clipPath id="clip0_160_712">
<rect width="216" height="286" fill="white"/>
</clipPath>
</defs>
</svg>
