<svg width="658" height="384" viewBox="0 0 658 384" fill="none" xmlns="http://www.w3.org/2000/svg">
<path d="M264.5 360.8H180.1L191.3 295.9H253.3L264.5 360.8Z" fill="#475DE3"/>
<path d="M258 323.3H186.6L191.3 295.9H253.3L258 323.3Z" fill="#475DE3"/>
<path d="M292.4 349.7H152.1V360.8H292.4V349.7Z" fill="#475DE3"/>
<path d="M407.6 315.2H36.9999C25.0999 315.2 15.3999 305.5 15.3999 293.6V46.4001C15.3999 34.5001 25.0999 24.8 36.9999 24.8H407.7C419.6 24.8 429.3 34.5001 429.3 46.4001V293.6C429.2 305.6 419.5 315.2 407.6 315.2Z" fill="#475DE3"/>
<path d="M419.1 46.8001V262.3C419.1 269.3 413.5 274.9 406.5 274.9H38.1C31.1 274.9 25.5 269.3 25.5 262.3V46.8001C25.5 39.8001 31.1 34.2001 38.1 34.2001H406.4C413.4 34.2001 419.1 39.8001 419.1 46.8001Z" fill="white"/>
<path d="M110.5 123.4C110.3 124 110 124.1 109.8 124.3C109.6 124.5 109.6 124.6 109.1 124.6C108.7 124.7 108 124.8 108 124.8C108 124.8 107.7 124.9 107.8 125.2C107.9 125.5 108.4 126 108.6 126.2C108.8 126.4 109.3 126.6 109.4 127.1C109.5 127.5 109.5 128.4 109.5 128.8C109.6 129.2 110.5 130.1 111.6 131.5C112.8 132.9 113.3 133.6 113.5 133.7C113.7 133.8 114.2 134.2 115 133.9C115.9 133.6 116.2 133.2 116.6 133.8C117 134.4 117.6 135.4 117.8 135.9C118 136.4 118.7 137.6 117.8 138.5C116.9 139.4 116.2 140.1 116.1 140.2C116 140.2 114.3 141 113.9 141.3C113.5 141.6 112.9 142.2 112.2 142.8C111.5 143.5 110.9 144.1 110.6 144.3C110.4 144.5 108.3 145.5 107.9 146C107.5 146.5 106.3 147.4 106 147.7C105.8 148.1 105.8 149.1 104.7 149.7C103.6 150.4 103 150.1 102.7 150.7C102.5 151.3 102.3 151.9 101.1 152.6C99.9998 153.3 93.8998 156.4 93.8998 156.4C93.8998 156.4 92.8998 157.5 92.9998 158.1C93.0998 158.7 93.4998 158.8 94.0998 159.1C94.6998 159.4 96.4998 159.1 97.8998 159.6C99.2998 160.1 100.7 160.9 101.3 161.1C101.9 161.4 105.5 159.5 107.3 159.5C109.1 159.5 111.2 159.2 111.3 161.1C111.4 163 111.4 164.4 111.4 164.6C111.4 164.8 111.3 166 111.5 166C111.7 165.9 112.5 165.6 112.9 165.5C113.3 165.4 114.2 165 115 165.6C115.7 166.2 116.3 166.8 116.6 166.6C116.8 166.4 117.3 165.8 118 165.6C118.7 165.4 118.6 164.9 120 165.3C121.3 165.7 121.6 165.7 122.9 166.1C124.2 166.5 124.1 166.8 124.7 166.7C125.3 166.5 126.2 166.1 126.5 166.3C126.9 166.5 127 167.4 127.7 168.2C128.4 169 128.5 169.5 129.1 169C129.7 168.5 129.6 168.3 129.7 167.4C129.7 166.5 130.1 163.6 130.6 163.2C131.1 162.8 131.6 161.9 132.4 162.1C133.2 162.3 133.4 162.4 133.5 162.9C133.7 163.4 133.9 164.5 134.1 163.9C134.3 163.3 133.9 162.7 134.5 162.3C135 161.9 137.3 160.7 137.7 160.6C138.1 160.4 138.4 160 137.9 159.6C137.3 159.1 136.4 158.8 136.1 158.2C135.8 157.6 135.8 156.2 137.1 156.6C138.3 156.9 138.1 156.7 138.4 156.6C138.7 156.5 139.6 155.4 140.2 155.9C140.8 156.4 141.2 156.6 140.9 157.7C140.7 158.8 140.8 158.9 141 159.2C141.2 159.5 141.9 158 142.3 158.4C142.7 158.7 142.9 158.9 143 160.3C143.1 161.7 144.9 160.8 145 162.2C145.1 163.6 145.1 164.6 145 165.1C144.9 165.6 144.1 167.6 145.3 167.5C146.4 167.4 147.9 167.3 148.9 167.3C150 167.3 152.1 166.6 152.8 167.2C153.4 167.8 154 168.3 153.5 169.1C152.9 169.9 152.6 170.5 152.6 171C152.7 171.5 153.1 171.3 154.3 171.2C155.5 171.1 159.7 168.5 162.6 169.5C165.5 170.5 165.8 170.5 167 171.1C168.2 171.7 168.7 173.4 170.1 173.5C171.5 173.6 172.1 172.9 174.6 173.5C177 174.1 177.2 174.2 178.2 174.4C179.3 174.6 179.9 173.9 180.9 174C181.9 174.2 182 174.6 182.9 174.4C183.8 174.2 184.4 173.7 185.2 174.1C186 174.6 186.7 174.5 186.7 175.2C186.7 175.9 187.2 176.5 185.9 176.7C184.6 176.9 182.9 176.8 182.3 176.9C181.7 177 181 176.9 180.6 177.1C180.2 177.4 179 178.5 178.5 179C178 179.5 177.6 179.8 177.2 180.2C176.7 180.6 176.1 180.7 176.2 181.5C176.3 182.3 176 182.4 175.9 183.1C175.8 183.9 175.7 184.5 175 184.3C174.4 184.1 172.8 183.4 172.5 183.6C172.3 183.8 173.7 185 173.6 185.4C173.4 185.9 171.1 186.5 169.9 186.5C168.7 186.4 168.2 186.7 167.5 186.7C166.8 186.7 166.6 185.9 165.3 185.2C164 184.4 162.7 183.8 162.2 183.8C161.7 183.8 160.3 183.8 161.7 184.2C163 184.6 164.3 184.7 163.7 185.3C163.1 185.9 162.5 185.8 162.5 187.3C162.5 188.8 162.6 190.2 162.2 190.6C161.8 191 161.1 190.9 160.3 190.6C159.5 190.3 158 189.9 157.5 189.6C157.1 189.2 157.3 188.7 157.1 188.4C157 188.1 156.8 187.4 156.1 188.2C155.4 189 154.8 188.5 154.5 189.5C154.2 190.4 154.6 190.7 154.4 191.5C154.2 192.3 153.8 192.7 153.3 193.1C152.7 193.5 152.2 193.6 152.5 194.7C152.7 195.8 153.1 196.2 152 197C151 197.8 150.8 197.7 150 197.5C149.2 197.3 148.4 197.1 148.2 197.2C148 197.4 147.3 198 146.9 198.2C146.5 198.3 146.8 197.9 146 197.9C145.2 197.9 145.6 198.3 145.2 198.4C144.8 198.5 144.3 198.1 143.9 198.4C143.5 198.7 143.7 199.2 143 199.3C142.3 199.4 142 200 141.3 199.9C140.6 199.8 140.2 198 139.6 197.9C139 197.7 139.7 198.4 139 198.5C138.3 198.7 134.8 198.6 134.3 198.5C133.8 198.4 133 196.8 132.1 196.7C131.2 196.7 131.5 197.2 130.4 196.8C129.3 196.4 128.7 195.7 127.9 195.6C127.2 195.5 125.8 195.4 124.7 195.6C123.6 195.8 122.8 195.9 122.1 196.2C121.4 196.5 120.4 197.2 120.2 197.6C120 198 119.1 198.1 119.7 198.9C120.3 199.6 119.8 199.3 120.7 199.9C121.6 200.5 120.9 200.5 122 201.2C123.1 201.9 123.6 202 124 202.1C124.5 202.2 125.7 202.4 125.3 203.6C124.9 204.9 125.1 206 125.3 206.5C125.5 207.1 125.9 208 125.2 208.4C124.5 208.8 124.2 209 123 208.7C121.8 208.4 121.4 208.6 120.8 209C120.2 209.4 119.1 209.8 119.3 208.8C119.4 207.8 119.6 207.4 120 206.6C120.4 205.8 120.6 205.3 120.3 204.8C120 204.3 119.2 203.1 118.9 202.5C118.6 202 117.9 201.7 118.5 201.2C119.1 200.7 119.5 200.3 118.7 200.4C118 200.4 116.8 200.7 115.6 200.7C114.5 200.7 113.2 200.7 113 200.9C112.8 201.1 112.1 202.2 111.5 202.4C110.8 202.6 110.2 202.5 109.3 203.4C108.4 204.3 108.3 204.9 108.1 205.4C107.9 205.9 107.4 206.7 107 207C106.6 207.3 106.6 207.3 106 207.7C105.4 208.2 104.8 208.5 104.5 208.4C104.2 208.3 103.7 208.4 103.7 207.2C103.7 206.1 104.2 205.7 103.7 205.5C103.2 205.3 101.7 204.6 100.9 204.6C100.1 204.6 97.3998 205.5 96.2998 205.8C95.1998 206 94.6998 206.2 94.6998 206.2C94.6998 206.2 82.9998 202.8 81.5998 202.7C80.1998 202.6 79.1998 203.5 78.4998 204.2C77.7998 204.9 76.8998 204.7 76.3998 204.7C75.8998 204.6 75.6998 204.7 75.3998 204.9C75.0998 205.1 74.3998 205 74.1998 205.1C73.9998 205.2 74.1998 205 73.8998 205.7C73.6998 206.4 73.4998 206.3 73.3998 206.7C73.2998 207.1 73.8998 208.5 73.8998 208.5C73.8998 208.5 74.0998 208.9 73.6998 209.1C73.1998 209.3 72.7998 209.3 72.0998 209.9C71.3998 210.5 70.8998 210.7 70.3998 210.8C69.7998 210.8 70.0998 211.9 69.4998 210.8C68.8998 209.7 68.1998 208.7 67.8998 208.6C67.5998 208.6 67.3998 208.3 67.4998 209.3C67.5998 210.3 67.8998 210.6 67.2998 211.4C66.7998 212.3 65.7998 213 66.2998 213.5C66.7998 214 68.3998 216.3 68.3998 217.6C68.3998 218.9 68.3998 220.2 68.3998 220.8C68.3998 221.4 67.9998 222 69.6998 222C71.2998 222 87.3998 221.8 87.3998 221.8C87.3998 221.8 88.8998 220.9 89.7998 221.1C90.6998 221.4 90.9998 222.6 91.7998 222.5C92.5998 222.4 93.5998 220.9 94.4998 220.9C95.3998 220.9 95.8998 221.4 97.1998 221.6C98.4998 221.8 100.8 220.6 101.8 221.1C102.9 221.6 104.5 222.1 104.5 223.5C104.5 224.9 103.9 225 103.7 225.5C103.5 226 103.4 226.9 103.9 227.6C104.4 228.3 105.4 228.5 106 228.4C106.6 228.3 108.1 226.9 109.3 226.7C110.5 226.5 111 226 112.6 225.7C114.2 225.4 116 223 117.9 222.6C119.7 222.2 120.3 221.1 121.7 221.1C123 221 124.4 220.8 125.6 222.5C126.9 224.2 126.6 224.1 127.3 224.5C128 224.9 127.7 225.1 128.9 225.3C130.1 225.5 131 225.6 131.5 225.5C132 225.5 133.6 226.6 133.9 227.5C134.1 228.5 134.4 228.7 134.3 229.5C134.2 230.4 133.7 231.1 134.3 231.1C134.9 231.1 135 230.3 136.3 230.4C137.6 230.5 138.1 231.2 138.7 231.1C139.3 231 139.4 229.6 140.5 229.6C141.6 229.6 144.6 231.5 144.9 231.7C145.2 231.9 147.8 233.8 148.8 233.7C149.8 233.5 151.1 230.4 151.8 229.9C152.5 229.4 152.1 228.4 154.9 228.2C157.7 228 158.3 227.1 159.7 227.1C161.1 227.1 163.7 226.9 165.7 227C167.7 227.1 178.2 225.7 180.4 225.6C182.6 225.5 182.8 223.8 185.1 223.1C187.4 222.5 188.5 222.3 189.7 222.4C190.9 222.5 190.9 222.4 191.5 222.6C192.1 222.8 191.6 222.3 192.8 221.6C194.1 220.8 194.6 221.1 195.9 220.9C197.2 220.7 197.7 220.5 197.9 220.1C198.1 219.7 197.9 219.1 198.2 218.6C198.6 218.1 199.4 217.6 199.7 216.9C200 216.2 198.9 211.6 199.1 210.9C199.3 210.2 199.6 208.2 200.9 207.6C202.3 207 202.5 206.6 203.2 206.2C204 205.8 204.2 206 204.7 204.9C205.2 203.8 205.3 202.8 206.1 202.1C206.9 201.4 207.2 200.6 207.2 200.6C207.2 200.6 207.1 200.7 207 200.2C206.9 199.8 206.1 199.3 206.9 199C207.7 198.7 208.6 197.6 208.9 197.6C209.2 197.6 209.3 197.8 210.2 197.8C211.1 197.8 211.3 197 212.5 196.3C213.7 195.6 214 194.7 215.5 194.8C217 194.9 217.7 195.2 218.7 195.5C219.7 195.8 221.3 195.3 222.2 194.7C223.2 194.2 223.3 193.7 223.9 193.3C224.5 192.9 225.7 192.6 226.5 192.1C227.2 191.7 228.3 190.2 229.3 189.6C230.3 189 231.9 187.8 232.6 187.6C233.3 187.4 233.3 186.7 234.3 186.2C235.3 185.7 236.6 186.1 237.6 186.1C238.6 186.1 241 186 241.1 186C241.2 185.9 241.6 186 241.1 185.4C240.6 184.9 240.1 184.5 239.8 183.8C239.5 183 238.8 182.2 238.8 181.7C238.8 181.2 237.6 180.1 238.9 179.8C240.3 179.5 241.2 179.2 242.1 179.9C243 180.6 243.8 181.4 244.2 181.3C244.6 181.2 245.5 180.3 248 180.2C250.5 180 250.7 179.7 251.6 179.3C252.6 178.9 253.8 178.4 255.4 177.6C257 176.8 257.4 176.6 257.7 176.1C258 175.6 258.1 175.2 258.6 174.5C259.1 173.8 259.5 172.3 261 172.3C262.5 172.3 262.9 171.7 263.7 172.6C264.5 173.5 264 174.3 264.9 175C265.8 175.7 265.1 176 266.3 176.2C267.5 176.4 268.3 175.9 269.5 176.5C270.7 177.1 270.2 177.8 270.1 178.4C270 179 269.1 179.3 269.1 180.1C269.1 180.9 269.3 182.3 269.5 182.4C269.7 182.5 270 182.4 270.8 181.8C271.7 181.2 271.4 180.6 272.2 181C273 181.4 273.4 182.1 274 182C274.5 181.9 274.7 181.7 275.5 181.1C276.3 180.4 276.2 180 276.9 179.8C277.6 179.6 277.8 180 278.5 179.8C279.2 179.7 279 179.1 280 179C281 178.9 280.8 179.1 282 178.7C283.2 178.3 286.4 176.8 286.8 176.7C287.2 176.6 288 176.9 288.5 177.5C289.1 178.1 289.4 177.7 289.9 177.4C290.5 177.1 290.8 177.1 291.4 177.1C292 177.1 297.2 171.9 297.4 171.8C297.6 171.6 297.2 167.7 297 167C296.8 166.3 295.8 165.7 295.9 165.1C296 164.5 298 162.2 298.5 161.8C299.1 161.4 299 160.8 299.1 160.1C299.2 159.4 300.4 157.3 301 157C301.6 156.7 302.9 156.3 303.8 155.9C304.8 155.6 305.4 154.5 305.9 154.3C306.3 154.1 306.6 154.7 307.4 154.6C308.2 154.5 309.4 153.3 310.1 153.1C310.9 153 313.4 153.9 314.6 153.6C315.8 153.3 315.7 152.3 316.4 152.3C317.1 152.3 318.7 153 319.2 152.8C319.7 152.6 321.4 151.3 322.1 151.2C322.8 151.1 326.4 152 327.6 151.7C328.9 151.4 331.1 149.9 332.3 149.8C333.5 149.7 333.9 150 334.4 149.9C334.8 149.8 338.1 148.3 339.2 148.3C340.3 148.2 345.1 148.2 345.6 148C346.1 147.8 346.7 147.3 347.1 147C347.6 146.8 347.8 145.2 348.3 144.5C348.7 143.8 351.5 139.9 351.8 139.5C352.1 139 352.4 137.2 352.7 136.7C353.1 136.2 353.6 136.1 354.8 135.5C356 134.9 356.3 133.9 357.1 133.5C357.9 133 359.1 133.3 359.8 132.8C360.5 132.3 362.1 130.5 363.3 130C364.5 129.5 368.1 126.4 368.6 125.8C369.2 125.2 371.6 123.2 372.2 122.7C372.8 122.2 373.5 121.1 374.4 121C375.3 120.9 377.1 121 378.1 120.6C379.1 120.2 379.6 119.8 380.7 119C381.8 118.2 383.4 117.4 384 118C384.6 118.6 386 119.4 386.6 119.2C387.2 119 387.6 119.3 388.3 118.5C389 117.7 390.8 115.7 391.2 115.2C391.6 114.7 391.2 113.8 391.8 113.4C392.4 112.9 393.4 112.6 394.4 111.8C395.4 111 394.8 110.6 396 110C397.2 109.3 397.2 109.3 399.9 109C402.6 108.7 402.8 108.6 403.3 108.3C403.8 108 404.4 107.2 405.1 106.9C405.8 106.6 406.8 106.4 406.8 105.9C406.8 105.4 406.7 104.9 406.4 104.9C406.1 104.9 405.6 105.2 405 105.4C404.4 105.6 404.3 106 403.9 105.5C403.4 105 399 101.4 398.6 101.1C398.2 100.7 396.9 100.8 396.6 100.7C396.3 100.5 396.1 99.8 395.6 99.8C395 99.8 394.3 100.1 394 100.1C393.6 100.1 393.3 99.6 392.7 99.6C392.1 99.6 392.1 100 391.4 100C390.6 100 390.4 99.6 389.4 99.6C388.4 99.5 388 100.4 387.2 100.7C386.4 101 381.9 101.1 381.5 100.4C381 99.8 378.5 97.6 377.7 97C376.9 96.3 374.8 95.7 374 95C373.3 94.3 372.2 93.4 372.2 92.9C372.2 92.4 372.3 91.5 372 91.3C371.6 91 371.6 91.8 371 91.9C370.4 92 366.2 92.6 364.9 92.6C363.6 92.6 361.4 92.3 359.4 91.9C357.4 91.5 356.1 91.3 354.3 90.9C352.5 90.4 351.4 90.1 350.6 90.1C349.8 90.1 348 91.3 347.3 91.3C346.6 91.3 342.6 91.2 342.4 91.2C342.2 91.2 340.7 91.6 340.4 92C340.1 92.4 339.7 92.5 339.2 92.5C338.7 92.5 337.6 92.6 337.4 92.7C337.2 92.8 337.2 92.8 336.2 92.6C335.2 92.4 333.3 92 332.9 92.1C332.5 92.2 331.5 92.3 331 92.5C330.5 92.7 328.2 92.2 327.5 92.3C326.8 92.4 325.5 92.7 325.1 92.8C324.7 92.9 324.2 92.4 323.5 92.5C322.8 92.6 321.5 93.1 321.2 93.2C320.8 93.3 319.6 93.1 319.1 93.2C318.6 93.3 316.6 93.8 316.1 93.9C315.6 94 313.6 94.3 313 93.9C312.4 93.6 310.2 93.8 309.7 93.8C309.2 93.8 308.7 92.1 307.2 92C305.7 91.9 297.4 92.9 297.2 92.9C297 93 296.7 93.2 296.7 93.8C296.7 94.4 296.9 94.3 296.3 94.6C295.6 94.9 294.4 94.3 294 94.6C293.6 94.9 294.1 95.5 293.4 95.7C292.8 95.9 286.7 96.4 286.2 96.6C285.8 96.7 285.1 96.6 284.5 97.2C283.9 97.7 283.4 98 282.4 97.9C281.4 97.8 267.9 97.5 267.7 97.5C267.5 97.5 266.9 97.1 266.2 97.7C265.5 98.3 265.2 99.6 265 100.2C264.9 100.8 264.6 101.8 264 102.3C263.4 102.8 263.3 102.8 262.4 103.1C261.4 103.4 245.4 102.8 243.4 102.8C241.4 102.8 240.6 102.4 239 101.4C237.4 100.5 237.5 100.2 236.3 100C235.1 99.8 233.8 99.9 232.7 99.3C231.6 98.7 231.7 99.2 230.5 98.9C229.3 98.6 228.2 98.7 227.2 98.2C226.2 97.7 226.4 97.5 225.5 97.3C224.6 97.1 224.5 97.2 223.8 96.6C223.1 96 223 96 222.5 95.8C222 95.6 222.4 95.8 221.6 95.4C220.8 95 221.1 94.9 220.3 94.8C219.4 94.6 219.9 95 218.9 94.5C217.9 94 217.8 94 217.2 93.7C216.6 93.4 215.9 93.2 215.7 93.1C215.6 93.1 215.5 93.1 214.5 92.6C213.5 92.1 210.1 91 209.7 91.1C209.3 91.3 209.4 91.5 209 92.2C208.6 92.9 206.8 93.2 205.7 93.3C204.6 93.4 202 93.9 201.7 93.8C201.3 93.7 200.1 93.2 199.9 93.2C199.7 93.2 197.7 95.2 197.4 95.5C197.1 95.8 193.9 96 193.1 96.2C192.4 96.4 191 97.1 190.7 97.3C190.4 97.5 190.5 97.6 189.8 97.7C189.1 97.7 188.8 97.6 188.5 97.7C188.3 97.8 188.3 98 187.8 98.2C187.4 98.4 185 99.4 184.7 99.9C184.4 100.5 183.6 100.5 183.7 101.6C183.8 102.7 184.1 103.5 184 104.9C183.9 106.3 183.6 108.2 182.8 109.2C181.9 110.2 181.3 110.1 181.3 110.9C181.3 111.7 181.4 116.1 181.4 116.5C181.4 116.9 181.9 118 182.9 118.7C183.9 119.5 184.2 119.9 184.7 120.2C185.2 120.5 185.1 121.2 184.1 121.7C183.1 122.1 181.8 122.5 180.4 122.5C179.1 122.4 177 122.5 176.7 122C176.4 121.5 173.8 119 172.3 119C170.7 119 163.8 119.4 163.2 119.4C162.6 119.4 161.2 118.3 161.2 118.3C161.2 118.3 158.4 118.1 158 118C157.6 117.9 156.7 117.1 155.3 116.8C153.9 116.5 150.7 115.8 149.6 115.8C148.4 115.8 145.9 115.1 144.4 115.1C142.9 115.1 140.9 115.6 139.5 115.5C138 115.4 133.3 115.9 132.6 115.8C131.9 115.7 128.5 114.3 128.3 114.3C128.1 114.3 126.6 114 125.8 114.3C125 114.6 122.1 116.3 120.7 116.8C119.2 117.3 117.4 117.5 116.4 117.8C115.4 118.1 114.5 118.2 113.9 119.1C113.3 120 113.2 120.3 112.5 120.7C111.8 121.1 111 121.2 110.7 121.7C111 122.6 110.5 123.4 110.5 123.4Z" fill="url(#paint0_linear_163_637)"/>
<path d="M235.3 155.6C243.584 155.6 250.3 149.377 250.3 141.7C250.3 134.023 243.584 127.8 235.3 127.8C227.016 127.8 220.3 134.023 220.3 141.7C220.3 149.377 227.016 155.6 235.3 155.6Z" fill="#F9ED38"/>
<path d="M222.7 133.2C219 133.2 215.6 134.1 212.6 135.7C215.2 134.6 218.1 133.9 221.2 133.9C232.4 133.9 241.5 142.3 241.5 152.8C241.5 159.8 237.4 165.9 231.3 169.1C238.2 166.1 243 159.6 243 152C243 141.6 233.9 133.2 222.7 133.2Z" fill="url(#paint1_linear_163_637)"/>
<path d="M227.9 130.6C223.3 130.6 219 132 215.6 134.5C218.7 132.6 222.5 131.6 226.5 131.6C237.7 131.6 247.6 140.3 247.6 150.7C247.6 156.6 244.4 161.8 239.6 165.2C245.2 161.9 249 156.2 249 149.7C249 139.2 239.1 130.6 227.9 130.6Z" fill="url(#paint2_linear_163_637)"/>
<path d="M225.3 132.1C223.1 132.1 221 132.4 219.1 133C220.5 132.7 221.8 132.6 223.3 132.6C234.5 132.6 244.4 141.3 244.4 151.7C244.4 160 238.1 166.9 229.9 169.4C239.1 167.6 246.5 160.2 246.5 151.2C246.3 140.7 236.5 132.1 225.3 132.1Z" fill="url(#paint3_linear_163_637)"/>
<path d="M247.9 133.2C251.6 133.2 255 134.1 258 135.7C255.4 134.6 252.5 133.9 249.4 133.9C238.2 133.9 229.1 142.3 229.1 152.8C229.1 159.8 233.2 165.9 239.3 169.1C232.4 166.1 227.6 159.6 227.6 152C227.6 141.6 236.7 133.2 247.9 133.2Z" fill="url(#paint4_linear_163_637)"/>
<path d="M242.7 130.6C247.3 130.6 251.6 132 255 134.5C251.9 132.6 248.1 131.6 244.1 131.6C232.9 131.6 223 140.3 223 150.7C223 156.6 226.2 161.8 231 165.2C225.4 161.9 221.6 156.2 221.6 149.7C221.6 139.2 231.5 130.6 242.7 130.6Z" fill="url(#paint5_linear_163_637)"/>
<path d="M245.3 132.1C247.5 132.1 249.6 132.4 251.5 133C250.1 132.7 248.8 132.6 247.3 132.6C236.1 132.6 226.2 141.3 226.2 151.7C226.2 160 232.5 166.9 240.7 169.4C231.5 167.6 224.1 160.2 224.1 151.2C224.3 140.7 234.1 132.1 245.3 132.1Z" fill="url(#paint6_linear_163_637)"/>
<path d="M226.2 127.9C226.9 127.5 227.6 127.2 228.4 126.9C227.9 126.2 226.7 124.3 226.2 122.9C225.7 121.1 225.1 119 222.3 118C222.3 118 224 119.9 224.3 122.9C224.6 125.3 225.7 127.2 226.2 127.9Z" fill="#F9ED38"/>
<path d="M227.6 121.6C227.5 124 228.3 126 228.6 126.8C229.3 126.5 230.1 126.3 230.9 126.1C230.5 125.3 229.6 123.3 229.4 121.8C229.2 120 229 117.8 226.4 116.4C226.5 116.4 227.8 118.6 227.6 121.6Z" fill="#F9ED38"/>
<path d="M231.2 120.7C230.7 123 231.1 125.2 231.3 126C232.1 125.8 232.9 125.7 233.7 125.7C233.5 124.9 232.9 122.7 233 121.3C233.1 119.5 233.3 117.2 230.9 115.5C230.9 115.5 231.9 117.8 231.2 120.7Z" fill="#F9ED38"/>
<path d="M221.2 124.8C221.9 127.1 223.3 128.8 223.9 129.4C224.5 128.9 225.2 128.5 225.9 128.1C225.3 127.5 223.7 125.8 223.1 124.5C222.3 122.8 221.3 120.8 218.4 120.2C218.3 120.2 220.3 121.8 221.2 124.8Z" fill="#F9ED38"/>
<path d="M218.4 127C219.5 129.2 221.2 130.7 221.9 131.2C222.4 130.6 223 130.1 223.6 129.6C222.9 129.1 221.1 127.6 220.2 126.4C219.1 124.9 217.8 123 214.9 122.9C214.9 122.9 217.1 124.3 218.4 127Z" fill="#F9ED38"/>
<path d="M218 138.1C218.2 137.4 218.5 136.7 218.8 136C217.9 135.8 215.6 135.3 214.2 134.6C212.5 133.7 210.4 132.6 207.7 133.7C207.7 133.7 210.4 133.9 212.9 135.8C214.9 137.3 217.2 137.9 218 138.1Z" fill="#F9ED38"/>
<path d="M235.3 125.6C235.7 125.6 236.1 125.6 236.5 125.6C236.4 124.8 236.2 122.5 236.5 121.1C236.9 119.3 237.4 117.1 235.4 115.1C235.4 115.1 236 117.5 234.9 120.3C234 122.5 234.1 124.7 234.2 125.5C234.4 125.6 234.8 125.6 235.3 125.6Z" fill="#F9ED38"/>
<path d="M214.2 132.6C215.9 134.4 218.1 135.3 218.9 135.6C219.2 134.9 219.6 134.2 220 133.6C219.2 133.3 216.9 132.5 215.7 131.6C214.2 130.5 212.3 129 209.4 129.8C209.5 129.8 212 130.4 214.2 132.6Z" fill="#F9ED38"/>
<path d="M216.1 129.7C217.5 131.7 219.5 132.9 220.2 133.3C220.6 132.7 221.1 132.1 221.6 131.5C220.8 131.1 218.8 129.9 217.7 128.9C216.4 127.6 214.8 125.9 211.8 126.2C211.9 126.2 214.3 127.1 216.1 129.7Z" fill="#F9ED38"/>
<path d="M244.7 128.1C245.4 128.5 246 128.9 246.7 129.4C247.2 128.7 248.4 126.8 249.5 125.8C250.9 124.5 252.7 123.1 252.4 120.3C252.4 120.3 251.4 122.6 248.6 124.2C246.4 125.6 245.1 127.4 244.7 128.1Z" fill="#F9ED38"/>
<path d="M257.3 135C254.7 134.9 252.5 135.7 251.7 136C252 136.7 252.3 137.4 252.5 138.1C253.3 137.8 255.5 136.9 257.1 136.7C259 136.5 261.5 136.3 262.9 133.8C262.9 133.8 260.6 135.1 257.3 135Z" fill="#F9ED38"/>
<path d="M250.5 133.6C250.9 134.2 251.3 134.9 251.6 135.6C252.4 135.1 254.4 134 255.9 133.6C257.8 133.1 260.1 132.5 261.1 129.9C261.1 129.9 259.1 131.5 255.8 131.8C253.3 132.1 251.2 133.2 250.5 133.6Z" fill="#F9ED38"/>
<path d="M258.3 138.3C255.8 137.8 253.5 138.3 252.6 138.5C252.8 139.2 252.9 140 253 140.7C253.9 140.5 256.2 139.9 257.8 140C259.8 140.1 262.2 140.2 264 138C263.9 137.9 261.5 138.9 258.3 138.3Z" fill="#F9ED38"/>
<path d="M257.8 143.2C259.7 143.5 262.1 144 264.3 142.1C264.3 142.1 261.7 142.7 258.7 141.6C256.3 140.8 253.9 140.9 253.1 140.9C253.1 141.3 253.1 141.7 253.1 142C253.1 142.4 253.1 142.7 253.1 143.1C253.9 143.1 256.3 143 257.8 143.2Z" fill="#F9ED38"/>
<path d="M244.4 127.9C244.7 127.1 245.6 125.1 246.6 123.9C247.8 122.5 249.4 120.7 248.5 118.1C248.5 118.1 247.9 120.5 245.5 122.5C243.6 124.1 242.6 126.1 242.3 126.9C242.9 127.2 243.7 127.5 244.4 127.9Z" fill="#F9ED38"/>
<path d="M212.1 139.1C214.3 140.3 216.7 140.5 217.6 140.6C217.7 139.8 217.8 139.1 218 138.4C217.1 138.4 214.7 138.2 213.2 137.7C211.4 137.1 209.1 136.2 206.6 137.8C206.6 137.8 209.3 137.6 212.1 139.1Z" fill="#F9ED38"/>
<path d="M236.8 125.7C237.6 125.8 238.4 125.9 239.2 126C239.2 125.2 239.4 122.9 239.9 121.6C240.6 119.9 241.5 117.8 239.8 115.5C239.8 115.5 240 118 238.4 120.6C237.1 122.7 236.8 124.8 236.8 125.7Z" fill="#F9ED38"/>
<path d="M246.9 129.7C247.5 130.2 248.1 130.7 248.6 131.3C249.2 130.6 250.7 128.9 252 128.1C253.6 127.1 255.7 125.9 255.8 123.1C255.8 123.1 254.4 125.2 251.4 126.4C249.1 127.4 247.5 129 246.9 129.7Z" fill="#F9ED38"/>
<path d="M248.9 131.5C249.4 132.1 249.9 132.7 250.3 133.3C251 132.7 252.8 131.3 254.2 130.7C256 129.9 258.2 129 258.8 126.3C258.8 126.3 257.1 128.2 253.9 129C251.4 129.6 249.5 131 248.9 131.5Z" fill="#F9ED38"/>
<path d="M241.8 126.8C242 126 242.5 123.8 243.3 122.5C244.2 120.9 245.5 119 244.2 116.5C244.2 116.5 244 119 241.9 121.3C240.3 123.2 239.7 125.3 239.5 126.1C240.3 126.3 241.1 126.5 241.8 126.8Z" fill="#F9ED38"/>
<path d="M244.4 156.3C243.7 156.7 243 157 242.3 157.3C242.8 158 244.1 159.9 244.5 161.3C245 163.1 245.6 165.2 248.4 166.2C248.4 166.2 246.7 164.3 246.3 161.3C246 158.9 244.8 157 244.4 156.3Z" fill="#F9ED38"/>
<path d="M249.4 159.4C248.7 157.1 247.2 155.4 246.7 154.8C246.1 155.3 245.4 155.7 244.7 156.1C245.3 156.7 246.9 158.4 247.5 159.7C248.3 161.4 249.3 163.4 252.2 163.9C252.2 164 250.2 162.4 249.4 159.4Z" fill="#F9ED38"/>
<path d="M239.4 163.5C239.9 161.2 239.5 159 239.2 158.2C238.4 158.4 237.6 158.5 236.8 158.5C237 159.3 237.6 161.5 237.6 162.9C237.5 164.7 237.4 167 239.7 168.7C239.7 168.8 238.7 166.5 239.4 163.5Z" fill="#F9ED38"/>
<path d="M252.1 157.2C251 155 249.3 153.5 248.6 153C248.1 153.6 247.5 154.1 246.9 154.6C247.6 155.1 249.4 156.6 250.3 157.8C251.4 159.3 252.7 161.2 255.7 161.3C255.7 161.2 253.5 159.9 252.1 157.2Z" fill="#F9ED38"/>
<path d="M242.9 162.7C243 160.3 242.2 158.3 241.8 157.5C241.1 157.8 240.3 158 239.5 158.2C239.9 159 240.8 161 241 162.5C241.2 164.3 241.4 166.5 244.1 167.9C244.1 167.8 242.8 165.7 242.9 162.7Z" fill="#F9ED38"/>
<path d="M252.5 146.2C252.3 146.9 252.1 147.6 251.8 148.3C252.7 148.5 255 149 256.4 149.7C258.1 150.6 260.2 151.7 262.9 150.6C262.9 150.6 260.2 150.4 257.7 148.5C255.6 146.9 253.4 146.3 252.5 146.2Z" fill="#F9ED38"/>
<path d="M235.3 158.7C234.9 158.7 234.5 158.7 234.1 158.7C234.2 159.5 234.4 161.8 234.1 163.2C233.7 165 233.2 167.2 235.2 169.2C235.2 169.2 234.6 166.8 235.8 164C236.7 161.8 236.6 159.6 236.5 158.8C236 158.6 235.7 158.7 235.3 158.7Z" fill="#F9ED38"/>
<path d="M258.4 145.1C256.2 143.9 253.8 143.7 252.9 143.6C252.8 144.4 252.7 145.1 252.5 145.8C253.4 145.8 255.8 146 257.3 146.5C259.1 147.1 261.4 148 263.9 146.4C263.9 146.4 261.2 146.6 258.4 145.1Z" fill="#F9ED38"/>
<path d="M256.3 151.6C254.6 149.8 252.4 148.9 251.6 148.6C251.3 149.3 250.9 150 250.5 150.6C251.3 150.9 253.6 151.7 254.8 152.6C256.4 153.7 258.2 155.2 261.1 154.4C261.1 154.4 258.5 153.8 256.3 151.6Z" fill="#F9ED38"/>
<path d="M254.5 154.5C253.1 152.5 251.1 151.3 250.4 150.9C250 151.5 249.5 152.1 249 152.7C249.8 153.1 251.8 154.3 252.9 155.3C254.2 156.6 255.8 158.3 258.8 158C258.7 158 256.2 157.1 254.5 154.5Z" fill="#F9ED38"/>
<path d="M228.6 157.5C228.4 158.3 227.9 160.5 227.1 161.8C226.2 163.4 224.9 165.3 226.2 167.8C226.2 167.8 226.4 165.3 228.5 163C230.1 161.1 230.7 159 230.9 158.2C230.1 158 229.3 157.7 228.6 157.5Z" fill="#F9ED38"/>
<path d="M213.1 149.2C215.7 149.3 217.9 148.6 218.7 148.2C218.4 147.5 218.2 146.8 218 146.1C217.2 146.4 215 147.3 213.4 147.5C211.5 147.7 209 147.9 207.6 150.3C207.6 150.3 209.9 149.1 213.1 149.2Z" fill="#F9ED38"/>
<path d="M221.6 152.7C221.1 152.1 220.6 151.5 220.2 150.9C219.5 151.5 217.7 152.9 216.3 153.5C214.5 154.3 212.3 155.1 211.7 157.9C211.7 157.9 213.5 156 216.6 155.2C219.1 154.6 220.9 153.2 221.6 152.7Z" fill="#F9ED38"/>
<path d="M220 150.6C219.6 150 219.2 149.3 218.9 148.6C218.1 149.1 216.1 150.2 214.6 150.6C212.7 151.1 210.4 151.6 209.4 154.2C209.4 154.2 211.4 152.6 214.7 152.3C217.2 152.1 219.2 151 220 150.6Z" fill="#F9ED38"/>
<path d="M212.2 145.9C214.7 146.4 217 146 217.9 145.8C217.7 145.1 217.6 144.3 217.5 143.6C216.6 143.8 214.3 144.3 212.7 144.3C210.7 144.2 208.3 144.1 206.5 146.3C206.6 146.2 209 145.3 212.2 145.9Z" fill="#F9ED38"/>
<path d="M223.5 154.6C222.9 154.1 222.3 153.6 221.8 153C221.2 153.7 219.7 155.4 218.4 156.2C216.8 157.2 214.7 158.4 214.6 161.2C214.6 161.2 216 159.1 219 157.9C221.4 156.8 223 155.2 223.5 154.6Z" fill="#F9ED38"/>
<path d="M233.6 158.6C232.8 158.5 232 158.4 231.2 158.2C231.2 159 231 161.3 230.4 162.6C229.7 164.3 228.8 166.4 230.5 168.7C230.5 168.7 230.3 166.2 231.9 163.6C233.3 161.6 233.6 159.4 233.6 158.6Z" fill="#F9ED38"/>
<path d="M226.1 156.3C225.8 157.1 224.9 159.1 223.9 160.3C222.7 161.7 221.1 163.5 222 166.1C222 166.1 222.6 163.7 225.1 161.7C227 160.1 228 158.1 228.3 157.3C227.5 157 226.8 156.7 226.1 156.3Z" fill="#F9ED38"/>
<path d="M211.9 142.5C214.3 143.4 216.7 143.3 217.5 143.2C217.5 142.8 217.5 142.5 217.5 142.1C217.5 141.7 217.5 141.3 217.5 140.9C216.6 141 214.2 141.2 212.7 140.9C210.8 140.6 208.4 140 206.2 141.9C206.2 142 208.8 141.4 211.9 142.5Z" fill="#F9ED38"/>
<path d="M225.8 156.1C225.1 155.7 224.5 155.3 223.8 154.8C223.3 155.5 222.1 157.4 221 158.4C219.6 159.6 217.7 161.1 218.1 163.9C218.1 163.9 219.1 161.6 221.9 160C224 158.6 225.3 156.8 225.8 156.1Z" fill="#F9ED38"/>
<path d="M409.7 297.5C409.7 297.5 430.2 302.7 437.3 318.2C437.3 318.2 411 316.9 408 316.4C405.1 315.9 409.7 297.5 409.7 297.5Z" fill="#475DE3"/>
<path d="M325.1 296.8C325.1 296.8 296 300.6 286.3 314.5C274.6 331.2 301.4 345 325.4 335.4L325.1 296.8Z" fill="#475DE3"/>
<path d="M417 271.1C407.9 254.1 399.6 245.2 399.6 245.2C397.7 243.2 395.2 241.4 392.5 239.7C383.9 234.1 373.8 231.2 363.5 231.2C353.8 231.2 344.2 233.8 335.8 238.8C332.7 240.7 329.7 242.8 327.4 245.1C327.4 245.1 319.1 254 310 271C310 271 318.8 276.7 331.7 280.3C330.7 293.9 327.4 312.2 327.4 312.2C327.4 312.2 347.7 317.6 363.4 317.6C379.2 317.6 399.4 312.2 399.4 312.2C399.4 312.2 396.1 293.9 395.1 280.3C408.2 276.8 417 271.1 417 271.1Z" fill="#F9B928"/>
<path d="M371.3 217.6H363.9H356.5C356.5 217.6 352.7 232.8 350.7 237.4C350.7 237.4 353.1 242.6 363.9 242.6C374.7 242.6 377.1 237.4 377.1 237.4C375.1 232.7 371.3 217.6 371.3 217.6Z" fill="#FFD0B0"/>
<path d="M371.3 217.6H363.9H356.5C356.5 217.6 352.7 232.8 350.7 237.4C350.7 237.4 353.1 242.6 363.9 242.6C374.7 242.6 377.1 237.4 377.1 237.4C375.1 232.7 371.3 217.6 371.3 217.6Z" fill="#FFD0B0"/>
<path d="M327.6 197.9C327.6 197.9 322.8 191.8 314.8 192C306.8 192.1 303.3 207.1 311.5 215C319.7 222.9 328.5 215.7 328.5 215.7L327.6 197.9Z" fill="#FFD0B0"/>
<path d="M400.2 197.9C400.2 197.9 405 191.8 413 192C421 192.1 424.5 207.1 416.3 215C408.1 222.9 399.3 215.7 399.3 215.7L400.2 197.9Z" fill="#FFD0B0"/>
<path d="M334.6 141.2C334.6 141.2 314.2 140.2 308.9 154.3C303.6 168.4 323.5 205.9 323.5 205.9H404.6C404.6 205.9 433.7 158.7 408.7 141.2C391.8 112.9 351.8 106.6 334.6 141.2Z" fill="#222221"/>
<path d="M404.4 211C403.4 221.7 389.4 235.4 365.5 235.6C341.7 235.8 323 223 323.5 206.3C323.7 199.5 324.5 193.4 325.4 188.4C325.4 188.4 333.2 188.2 333.2 177.6C337.2 179 345.2 177.1 346.5 166.4C346.5 166.4 353.6 174 360.2 169.1C363 174.6 376.3 180.7 382.7 173.2C385.1 181.2 397.5 182.8 401.9 181C402.9 191.8 405.2 201.9 404.4 211Z" fill="#FFD0B0"/>
<path d="M347 190.7C339.4 190.7 333.3 197.8 333.3 206.7C333.3 215.5 339.4 222.7 347 222.7C354.6 222.7 360.7 215.6 360.7 206.7C360.7 197.9 354.5 190.7 347 190.7ZM347 220.2C340.6 220.2 335.4 214.1 335.4 206.7C335.4 199.2 340.6 193.2 347 193.2C353.4 193.2 358.6 199.2 358.6 206.7C358.6 214.1 353.4 220.2 347 220.2Z" fill="#1E1415"/>
<path d="M383.9 190.7C376.3 190.7 370.2 197.8 370.2 206.7C370.2 215.5 376.3 222.7 383.9 222.7C391.5 222.7 397.6 215.6 397.6 206.7C397.6 197.9 391.4 190.7 383.9 190.7ZM383.9 220.2C377.5 220.2 372.3 214.1 372.3 206.7C372.3 199.2 377.5 193.2 383.9 193.2C390.3 193.2 395.5 199.2 395.5 206.7C395.5 214.1 390.3 220.2 383.9 220.2Z" fill="#1E1415"/>
<path d="M334.9 201L317.6 189.6L315 194.7L334.9 204.9V201Z" fill="#1E1415"/>
<path d="M396 201L413.3 189.6L415.9 194.7L396 204.9V201Z" fill="#1E1415"/>
<path d="M365.4 206.1C360.9 206.1 356.5 209.2 356.5 209.2L357.8 211.6C358.5 211.1 359.3 210.7 360.1 210.4C363.5 209.1 367.3 209.1 370.8 210.4C371.6 210.7 372.4 211.1 373.1 211.6L374.4 209.2C374.4 209.2 370 206.1 365.4 206.1Z" fill="#1E1415"/>
<path d="M372.3 224.9C371.9 224.6 369.3 224.8 367.5 224.9C366.1 225 364.8 225 363.4 224.9C361.5 224.7 359 224.6 358.6 224.9C357.9 225.3 360.4 230.8 365.5 230.8C370.5 230.8 373 225.4 372.3 224.9Z" fill="white"/>
<path d="M370.2 216.6C369.8 214.8 368.4 211.2 365.4 211C362.4 211.2 361 214.7 360.6 216.6" stroke="black" stroke-width="0.5" stroke-miterlimit="10" stroke-linecap="round"/>
<path d="M312.2 198L323.1 213.8" stroke="black" stroke-width="0.5" stroke-miterlimit="10" stroke-linecap="round" stroke-linejoin="round"/>
<path d="M311.8 208.2L317 204.9" stroke="black" stroke-width="0.5" stroke-miterlimit="10" stroke-linecap="round" stroke-linejoin="round"/>
<path d="M416.4 198L405.5 213.8" stroke="black" stroke-width="0.5" stroke-miterlimit="10" stroke-linecap="round" stroke-linejoin="round"/>
<path d="M416.8 208.2L411.6 204.9" stroke="black" stroke-width="0.5" stroke-miterlimit="10" stroke-linecap="round" stroke-linejoin="round"/>
<path d="M412.3 320.4L430.7 252.8C431.4 250.3 429.5 247.9 426.9 247.9H304.5C301.9 247.9 300.1 250.3 300.7 252.8L319.1 320.4C319.8 322.9 322 324.6 324.5 324.6H406.7C409.4 324.6 411.6 322.9 412.3 320.4Z" fill="black"/>
<path d="M365.4 282.3C373.298 282.3 379.7 278.763 379.7 274.4C379.7 270.037 373.298 266.5 365.4 266.5C357.502 266.5 351.1 270.037 351.1 274.4C351.1 278.763 357.502 282.3 365.4 282.3Z" fill="#2E2A72"/>
<path d="M321.1 298.7C321.2 298.9 321.9 301.1 319.4 301.5C317.3 301.8 312.4 303.5 310 302.6C306.4 301.2 305 295.3 305 295.3C305 295.3 301.4 293.6 300.9 289.7C300.5 286.9 302.6 285.5 302.6 285.5C302.6 285.5 297 279.9 306.2 273.4L307.7 278.9C307.7 278.9 309.4 280.3 311.9 281C315.8 282 317.5 282.3 319.6 283.2C324.4 285.2 322.3 290.5 320.3 290.6C320.3 290.6 323.6 291.5 324.4 293.7C325.8 297 322.8 298.9 321.1 298.7Z" fill="#FFD0B0"/>
<path d="M303.2 285.8C303.2 285.8 304.3 287.2 308.2 288.1C312.6 289.1 319.7 290.4 319.7 290.4" stroke="black" stroke-width="0.5" stroke-miterlimit="10" stroke-linecap="round" stroke-linejoin="round"/>
<path d="M305.5 295.3C305.5 295.3 306.7 296 309.8 296.6C312.9 297.2 320.4 298.5 320.4 298.5" stroke="black" stroke-width="0.5" stroke-miterlimit="10" stroke-linecap="round" stroke-linejoin="round"/>
<path d="M410.3 298.7C410.2 298.9 409.5 301.1 412 301.5C414.1 301.8 419 303.5 421.4 302.6C425 301.2 426.4 295.3 426.4 295.3C426.4 295.3 430 293.6 430.5 289.7C430.9 286.9 428.8 285.5 428.8 285.5C428.8 285.5 434.4 279.9 425.2 273.4L423.7 278.9C423.7 278.9 422 280.3 419.5 281C415.6 282 413.9 282.3 411.8 283.2C407 285.2 409.1 290.5 411.1 290.6C411.1 290.6 407.8 291.5 407 293.7C405.6 297 408.6 298.9 410.3 298.7Z" fill="#FFD0B0"/>
<path d="M428.2 285.8C428.2 285.8 427.1 287.2 423.2 288.1C418.8 289.1 411.7 290.4 411.7 290.4" stroke="black" stroke-width="0.5" stroke-miterlimit="10" stroke-linecap="round" stroke-linejoin="round"/>
<path d="M425.9 295.3C425.9 295.3 424.7 296 421.6 296.6C418.5 297.2 411 298.5 411 298.5" stroke="black" stroke-width="0.5" stroke-miterlimit="10" stroke-linecap="round" stroke-linejoin="round"/>
<path d="M355.4 335.9C355.4 335.9 327.4 305.3 303 307.5C278.6 309.7 278.2 329.7 292.4 337C302.7 342.3 349 351.6 349 351.6L355.4 335.9Z" fill="#FFD0B0"/>
<path d="M349.6 330C349.6 330 353.7 328.8 358.4 329.7C363.1 330.6 366.5 334 371.8 337.8C377.1 341.6 382.2 343.1 385.1 349.6C388 356 384.9 366.2 375.4 368.2C366 370.3 358.7 361.4 355.4 358.5C352.2 355.6 346.9 353.6 346 352C345 350.4 346.6 339.9 352.4 337.4C352.5 337.4 353.4 333.7 349.6 330Z" fill="#2E2A72"/>
<path d="M366 323.1C366 323.1 399.5 299.2 422.2 306.5C445 313.8 441 333.4 425.9 337.6C414.9 340.6 368.7 339.8 368.7 339.8L366 323.1Z" fill="#FFD0B0"/>
<path d="M373 318.6C373 318.6 369.3 316.5 364.5 316.4C359.7 316.3 355.6 318.9 349.7 321.4C343.7 324 338.3 324.3 334.1 330C329.9 335.6 330.7 346.2 339.5 350.3C348.3 354.4 357.3 347.3 361.1 345.2C364.9 343.1 370.4 342.3 371.7 340.9C373 339.5 373.7 329 368.6 325.2C368.6 325.3 368.5 321.4 373 318.6Z" fill="#2E2A72"/>
<path d="M334.1 330C329.9 335.6 330.7 346.2 339.5 350.3C348.3 354.4 357.3 347.3 361.1 345.2C364.9 343.1 370.4 342.3 371.7 340.9C373 339.5 373.7 329 368.6 325.2" stroke="black" stroke-width="0.5" stroke-miterlimit="10" stroke-linecap="round" stroke-linejoin="round"/>
<path d="M354.6 210.3C354.6 210.3 353.6 203.6 347.5 202.9C341.5 202.2 338.5 209.3 338.5 209.3C338.5 209.3 339.9 215.3 346.5 216.1C352.4 216.9 354.6 210.3 354.6 210.3Z" fill="white"/>
<path d="M354.6 210.3C354.6 210.3 354.3 211.3 353.5 212.6C352.4 214.4 350.3 216.5 346.9 216.2C346.8 216.2 346.6 216.2 346.5 216.2C339.9 215.3 338.5 209.4 338.5 209.4C338.5 209.4 341.5 202.3 347.5 203C353.6 203.7 354.6 210.3 354.6 210.3Z" fill="white"/>
<path d="M354.6 210.3C354.1 208.5 353.3 206.7 352 205.4C350.7 204.1 348.9 203.2 347.1 203.2C346.2 203.1 345.3 203.3 344.4 203.6C343.5 203.9 342.7 204.4 342 205C340.6 206.2 339.4 207.7 338.5 209.4C339.2 207.6 340.3 206 341.7 204.7C342.4 204.1 343.3 203.5 344.2 203.2C345.1 202.9 346.1 202.7 347.1 202.8C349.1 202.9 351 203.8 352.3 205.3C353.6 206.6 354.4 208.5 354.6 210.3Z" fill="black"/>
<path d="M353.5 212.6C352.4 214.4 350.3 216.5 346.9 216.2C345.7 215.2 345 213.6 345.5 212C346.1 209.8 348.3 208.5 350.5 209.1C352.2 209.5 353.3 210.9 353.5 212.6Z" fill="black"/>
<path d="M344.3 207.8L348.2 212.2L342.7 210.2" fill="white"/>
<path d="M347.9 195.3C344.8 195.1 342 196.3 340.2 198.2C338.5 199.9 339.3 201.4 340.7 200.5C342.5 199.5 344.6 198.4 347.5 198.4C350.1 198.4 351.8 199.3 352.3 198.4C352.8 197.3 351.1 195.5 347.9 195.3Z" fill="#DD582F"/>
<path d="M376.3 210.3C376.3 210.3 377.3 203.6 383.4 202.9C389.4 202.2 392.4 209.3 392.4 209.3C392.4 209.3 391 215.3 384.4 216.1C378.5 216.9 376.3 210.3 376.3 210.3Z" fill="white"/>
<path d="M376.3 210.3C376.3 210.3 376.7 211.3 377.4 212.6C378.6 214.4 380.6 216.5 384 216.2C384.1 216.2 384.3 216.2 384.4 216.2C391 215.3 392.4 209.4 392.4 209.4C392.4 209.4 389.4 202.3 383.4 203C377.3 203.7 376.3 210.3 376.3 210.3Z" fill="white"/>
<path d="M376.3 210.3C376.6 208.4 377.3 206.6 378.6 205.1C379.9 203.6 381.8 202.7 383.8 202.6C384.8 202.5 385.8 202.7 386.7 203C387.6 203.3 388.5 203.9 389.2 204.5C390.7 205.8 391.7 207.4 392.4 209.2C391.5 207.5 390.4 206 388.9 204.8C388.2 204.2 387.4 203.7 386.5 203.4C385.6 203.1 384.7 202.9 383.8 203C382 203.1 380.2 203.9 378.9 205.2C377.6 206.8 376.8 208.5 376.3 210.3Z" fill="black"/>
<path d="M377.5 212.6C378.7 214.4 380.7 216.5 384.1 216.2C385.3 215.2 386 213.6 385.5 212C384.9 209.8 382.7 208.5 380.5 209.1C378.8 209.5 377.6 210.9 377.5 212.6Z" fill="black"/>
<path d="M386.7 207.8L382.7 212.2L388.2 210.2" fill="white"/>
<path d="M383 195.3C386.1 195.1 388.9 196.3 390.7 198.2C392.4 199.9 391.6 201.4 390.2 200.5C388.4 199.5 386.3 198.4 383.4 198.4C380.8 198.4 379.1 199.3 378.6 198.4C378.2 197.3 379.8 195.5 383 195.3Z" fill="#DD582F"/>
<path d="M158.5 0.5V85.1H69.8999V0.5H158.5ZM159 0H69.3999V85.6H159V0Z" fill="black"/>
<path d="M153.9 6.20001H74.5V79.4H153.9V6.20001Z" fill="#B3C0FF"/>
<path d="M74.5 53.7L95.2 23.2C97.2 20.3 101.4 20.1 103.6 22.8L135.5 61.8L153.8 38.4V79.3H74.5V53.7Z" fill="#B3C0FF"/>
<path d="M136 37C141.688 37 146.3 32.3886 146.3 26.7C146.3 21.0115 141.688 16.4 136 16.4C130.311 16.4 125.7 21.0115 125.7 26.7C125.7 32.3886 130.311 37 136 37Z" fill="white"/>
<path d="M600 10.8H427.8C420.5 10.8 414.6 16.7 414.6 24V62.6C414.6 69.9 420.5 75.8 427.8 75.8H460C457.5 111.4 431 113.6 431 113.6C472.3 113.6 479.8 87.4 481.1 75.8H600.1C607.4 75.8 613.3 69.9 613.3 62.6V24.1C613.2 16.8 607.3 10.8 600 10.8Z" fill="white" stroke="black" stroke-miterlimit="10" stroke-linecap="round" stroke-linejoin="round"/>
<path d="M535.9 316.4H482.7V369.6H535.9V316.4Z" fill="white" stroke="black" stroke-width="1.5" stroke-miterlimit="10" stroke-linecap="round"/>
<path d="M519 342.8C520.2 344.2 520.8 345.9 520.8 347.9C520.8 349.5 520.4 351.1 519.5 352.5C518.6 353.9 517.3 355 515.5 355.9C513.7 356.8 511.4 357.2 508.8 357.2C506.8 357.2 504.9 357 503 356.5C501.1 356 499.4 355.3 498 354.5L500.9 348.6C502 349.3 503.2 349.9 504.6 350.3C506 350.7 507.3 350.9 508.6 350.9C509.9 350.9 511 350.6 511.8 350.1C512.6 349.6 513 348.9 513 348C513 346.2 511.6 345.3 508.8 345.3H505.5V340.3L510.5 334.9H499.6V328.8H519.7V333.7L513.9 339.9C516.1 340.5 517.8 341.4 519 342.8Z" fill="#DF6E1C"/>
<path d="M589.4 316.4H536.2V369.6H589.4V316.4Z" fill="white" stroke="black" stroke-width="1.5" stroke-miterlimit="10" stroke-linecap="round"/>
<path d="M574.5 350.4V356.6H552.9V351.7L563.3 342C564.3 341 565 340.2 565.3 339.6C565.6 339 565.8 338.2 565.8 337.6C565.8 336.7 565.5 336 564.9 335.5C564.3 335 563.4 334.7 562.2 334.7C561.2 334.7 560.2 334.9 559.4 335.4C558.5 335.9 557.8 336.5 557.3 337.4L551.5 334.1C552.6 332.3 554.1 330.9 556.1 329.9C558.1 328.9 560.4 328.4 563 328.4C565.1 328.4 567 328.7 568.6 329.4C570.2 330.1 571.5 331.1 572.4 332.4C573.3 333.7 573.8 335.2 573.8 336.9C573.8 338.4 573.5 339.8 572.8 341.2C572.2 342.5 570.9 344 569.1 345.7L563.9 350.5H574.5V350.4Z" fill="#4BAD51"/>
<path d="M562.5 263.2H509.3V316.4H562.5V263.2Z" fill="white" stroke="black" stroke-width="1.5" stroke-miterlimit="10" stroke-linecap="round"/>
<path d="M539.6 275.6V303.4H531.7V281.7H526.5V275.6H539.6Z" fill="#2E2A72"/>
<path d="M0.800049 372.3H657.1" stroke="black" stroke-width="1.5" stroke-miterlimit="10" stroke-linecap="round"/>
<path d="M251.3 382.7H406.8" stroke="black" stroke-width="0.75" stroke-miterlimit="10" stroke-linecap="round"/>
<path d="M429.2 382.7H535.9" stroke="black" stroke-width="0.75" stroke-miterlimit="10" stroke-linecap="round"/>
<path d="M450.716 47H446.455L451.256 32.4545H456.653L461.455 47H457.193L454.011 36.4602H453.898L450.716 47ZM449.92 41.2614H457.932V44.2159H449.92V41.2614ZM465.952 47.1705C465.256 47.1705 464.641 47.0568 464.105 46.8295C463.575 46.5975 463.158 46.2472 462.855 45.7784C462.552 45.3097 462.401 44.7131 462.401 43.9886C462.401 43.392 462.503 42.883 462.706 42.4616C462.91 42.0355 463.194 41.6875 463.559 41.4176C463.923 41.1477 464.347 40.9418 464.83 40.7997C465.318 40.6577 465.843 40.5653 466.407 40.5227C467.017 40.4754 467.507 40.4186 467.877 40.3523C468.251 40.2812 468.521 40.1842 468.686 40.0611C468.852 39.9332 468.935 39.7652 468.935 39.5568V39.5284C468.935 39.2443 468.826 39.0265 468.608 38.875C468.391 38.7235 468.111 38.6477 467.77 38.6477C467.396 38.6477 467.091 38.7306 466.854 38.8963C466.622 39.0573 466.482 39.3059 466.435 39.642H462.827C462.874 38.9792 463.085 38.3684 463.459 37.8097C463.838 37.2462 464.39 36.7964 465.114 36.4602C465.838 36.1193 466.743 35.9489 467.827 35.9489C468.608 35.9489 469.309 36.0412 469.929 36.2259C470.55 36.4058 471.078 36.6591 471.513 36.9858C471.949 37.3078 472.28 37.6866 472.507 38.1222C472.739 38.553 472.855 39.0218 472.855 39.5284V47H469.191V45.4659H469.105C468.888 45.8731 468.623 46.2022 468.31 46.4531C468.002 46.7041 467.65 46.8864 467.252 47C466.859 47.1136 466.426 47.1705 465.952 47.1705ZM467.23 44.6989C467.529 44.6989 467.808 44.6373 468.069 44.5142C468.334 44.3911 468.549 44.2135 468.715 43.9815C468.881 43.7495 468.963 43.4678 468.963 43.1364V42.2273C468.859 42.2699 468.748 42.3101 468.63 42.348C468.516 42.3859 468.393 42.4214 468.26 42.4545C468.132 42.4877 467.995 42.5185 467.848 42.5469C467.706 42.5753 467.557 42.6013 467.401 42.625C467.098 42.6723 466.849 42.7505 466.655 42.8594C466.466 42.9635 466.324 43.0938 466.229 43.25C466.139 43.4015 466.094 43.572 466.094 43.7614C466.094 44.0644 466.201 44.2964 466.414 44.4574C466.627 44.6184 466.899 44.6989 467.23 44.6989ZM478.536 45.0114L478.479 45.8068C478.431 46.4886 478.318 47.142 478.138 47.767C477.963 48.392 477.776 48.946 477.577 49.429C477.383 49.9119 477.229 50.286 477.115 50.5511H474.7C474.776 50.286 474.883 49.9025 475.02 49.4006C475.162 48.9034 475.29 48.34 475.403 47.7102C475.522 47.0852 475.581 46.4508 475.581 45.8068V45.0114H478.536ZM483.891 47V32.4545H494.118V35.6364H487.839V37.3409H489.317C490.538 37.3409 491.606 37.5374 492.52 37.9304C493.438 38.3234 494.151 38.8774 494.658 39.5923C495.169 40.3073 495.425 41.1477 495.425 42.1136C495.425 43.0795 495.169 43.9295 494.658 44.6634C494.151 45.3973 493.438 45.9702 492.52 46.3821C491.606 46.794 490.538 47 489.317 47H483.891ZM487.839 43.9034H489.317C489.79 43.9034 490.188 43.8253 490.51 43.669C490.837 43.5128 491.083 43.2973 491.249 43.0227C491.419 42.7481 491.504 42.4356 491.504 42.0852C491.504 41.5881 491.317 41.1761 490.943 40.8494C490.569 40.518 490.027 40.3523 489.317 40.3523H487.839V43.9034ZM506.593 32.142L507.559 34.7557C507.265 34.964 506.953 35.1274 506.621 35.2457C506.29 35.3594 505.876 35.4399 505.379 35.4872C504.881 35.5298 504.235 35.5511 503.44 35.5511C502.54 35.5511 501.816 35.6553 501.266 35.8636C500.717 36.072 500.303 36.4247 500.023 36.9219C499.744 37.419 499.557 38.0985 499.462 38.9602H499.548C499.846 38.3068 500.272 37.7836 500.826 37.3906C501.385 36.9976 502.142 36.8011 503.099 36.8011C504.079 36.8011 504.924 37.0095 505.634 37.4261C506.344 37.8381 506.889 38.4181 507.268 39.1662C507.651 39.9143 507.843 40.7926 507.843 41.8011C507.843 42.8902 507.618 43.8395 507.168 44.6491C506.719 45.4588 506.072 46.0862 505.229 46.5312C504.387 46.9763 503.373 47.1989 502.19 47.1989C501.006 47.1989 499.993 46.9669 499.15 46.5028C498.307 46.0388 497.661 45.357 497.211 44.4574C496.761 43.5578 496.536 42.4545 496.536 41.1477V40.4375C496.536 37.6723 497.112 35.6506 498.262 34.3722C499.417 33.0937 501.096 32.4545 503.298 32.4545C503.809 32.4545 504.273 32.4545 504.69 32.4545C505.111 32.4545 505.48 32.4332 505.798 32.3906C506.12 32.348 506.385 32.2652 506.593 32.142ZM502.218 44.3011C502.549 44.3011 502.836 44.2112 503.077 44.0312C503.319 43.8466 503.506 43.5814 503.638 43.2358C503.771 42.8854 503.837 42.464 503.837 41.9716C503.837 41.4697 503.771 41.0436 503.638 40.6932C503.506 40.3428 503.319 40.0753 503.077 39.8906C502.836 39.706 502.549 39.6136 502.218 39.6136C501.958 39.6136 501.723 39.6657 501.515 39.7699C501.307 39.8741 501.129 40.0279 500.982 40.2315C500.84 40.4304 500.731 40.6766 500.656 40.9702C500.58 41.259 500.542 41.5928 500.542 41.9716C500.542 42.7102 500.689 43.2831 500.982 43.6903C501.281 44.0975 501.692 44.3011 502.218 44.3011ZM513.301 45.0114L513.244 45.8068C513.197 46.4886 513.083 47.142 512.903 47.767C512.728 48.392 512.541 48.946 512.342 49.429C512.148 49.9119 511.994 50.286 511.881 50.5511H509.466C509.542 50.286 509.648 49.9025 509.786 49.4006C509.928 48.9034 510.055 48.34 510.169 47.7102C510.287 47.0852 510.347 46.4508 510.347 45.8068V45.0114H513.301ZM518.656 47V32.4545H524.963C526.071 32.4545 527.001 32.6037 527.754 32.902C528.512 33.2003 529.082 33.6217 529.466 34.1662C529.854 34.7107 530.048 35.3523 530.048 36.0909C530.048 36.6259 529.93 37.1136 529.693 37.554C529.461 37.9943 529.134 38.3636 528.713 38.6619C528.292 38.9555 527.799 39.1591 527.236 39.2727V39.4148C527.861 39.4384 528.429 39.5971 528.94 39.8906C529.452 40.1795 529.859 40.5795 530.162 41.0909C530.465 41.5975 530.616 42.1941 530.616 42.8807C530.616 43.6761 530.408 44.384 529.991 45.0043C529.58 45.6245 528.992 46.1122 528.23 46.4673C527.468 46.8224 526.559 47 525.503 47H518.656ZM522.605 43.8466H524.452C525.115 43.8466 525.612 43.7235 525.943 43.4773C526.275 43.2263 526.44 42.857 526.44 42.3693C526.44 42.0284 526.362 41.7396 526.206 41.5028C526.05 41.2661 525.827 41.0862 525.538 40.9631C525.254 40.84 524.911 40.7784 524.509 40.7784H522.605V43.8466ZM522.605 38.3352H524.224C524.57 38.3352 524.875 38.2808 525.141 38.1719C525.406 38.063 525.612 37.9067 525.759 37.7031C525.91 37.4948 525.986 37.2415 525.986 36.9432C525.986 36.4934 525.825 36.1501 525.503 35.9134C525.181 35.6719 524.774 35.5511 524.281 35.5511H522.605V38.3352ZM532.072 47V36.0909H536.845C538.308 36.0909 539.459 36.3395 540.297 36.8366C541.14 37.3338 541.561 38.0795 541.561 39.0739C541.561 39.6136 541.324 40.0919 540.851 40.5085C540.382 40.9252 539.7 41.2045 538.805 41.3466C539.629 41.3845 540.297 41.536 540.808 41.8011C541.324 42.0616 541.701 42.3883 541.938 42.7812C542.179 43.1695 542.3 43.572 542.3 43.9886C542.3 44.6515 542.12 45.2079 541.76 45.6577C541.4 46.1027 540.87 46.4389 540.169 46.6662C539.468 46.8887 538.607 47 537.584 47H532.072ZM535.709 44.2443H537.584C537.901 44.2443 538.15 44.1686 538.33 44.017C538.514 43.8655 538.607 43.6572 538.607 43.392C538.607 43.1174 538.514 42.902 538.33 42.7457C538.15 42.5895 537.901 42.5114 537.584 42.5114H535.709V44.2443ZM535.709 40.5227H536.959C537.162 40.5227 537.335 40.492 537.477 40.4304C537.619 40.3641 537.728 40.2718 537.804 40.1534C537.884 40.035 537.925 39.893 537.925 39.7273C537.925 39.4763 537.828 39.2822 537.634 39.1449C537.444 39.0028 537.181 38.9318 536.845 38.9318H535.709V40.5227ZM547.618 45.0114L547.561 45.8068C547.513 46.4886 547.4 47.142 547.22 47.767C547.045 48.392 546.858 48.946 546.659 49.429C546.465 49.9119 546.311 50.286 546.197 50.5511H543.782C543.858 50.286 543.965 49.9025 544.102 49.4006C544.244 48.9034 544.372 48.34 544.485 47.7102C544.604 47.0852 544.663 46.4508 544.663 45.8068V45.0114H547.618ZM563.2 32.4545V35.6364H556.922V47H552.973V32.4545H563.2ZM571.55 36.0909V39.017H567.374V47H563.596V36.0909H571.55Z" fill="black"/>
<defs>
<linearGradient id="paint0_linear_163_637" x1="66.6477" y1="162.351" x2="407.99" y2="162.351" gradientUnits="userSpaceOnUse">
<stop stop-color="#B01B06"/>
<stop offset="1" stop-color="#B01B06"/>
</linearGradient>
<linearGradient id="paint1_linear_163_637" x1="212.624" y1="151.129" x2="243.002" y2="151.129" gradientUnits="userSpaceOnUse">
<stop stop-color="#B01B06"/>
<stop offset="1" stop-color="#B01B06"/>
</linearGradient>
<linearGradient id="paint2_linear_163_637" x1="215.627" y1="147.831" x2="249.001" y2="147.831" gradientUnits="userSpaceOnUse">
<stop stop-color="#B01B06"/>
<stop offset="1" stop-color="#B01B06"/>
</linearGradient>
<linearGradient id="paint3_linear_163_637" x1="219.032" y1="150.691" x2="246.345" y2="150.691" gradientUnits="userSpaceOnUse">
<stop stop-color="#B01B06"/>
<stop offset="1" stop-color="#B01B06"/>
</linearGradient>
<linearGradient id="paint4_linear_163_637" x1="227.603" y1="151.129" x2="257.981" y2="151.129" gradientUnits="userSpaceOnUse">
<stop stop-color="#B01B06"/>
<stop offset="1" stop-color="#B01B06"/>
</linearGradient>
<linearGradient id="paint5_linear_163_637" x1="221.603" y1="147.831" x2="254.978" y2="147.831" gradientUnits="userSpaceOnUse">
<stop stop-color="#B01B06"/>
<stop offset="1" stop-color="#B01B06"/>
</linearGradient>
<linearGradient id="paint6_linear_163_637" x1="224.26" y1="150.691" x2="251.572" y2="150.691" gradientUnits="userSpaceOnUse">
<stop stop-color="#B01B06"/>
<stop offset="1" stop-color="#B01B06"/>
</linearGradient>
</defs>
</svg>
