<svg width="812" height="446" viewBox="0 0 812 446" fill="none" xmlns="http://www.w3.org/2000/svg">
<path d="M424.181 268.036H359.744C347.058 268.036 336.632 257.736 336.632 244.924V77.1118C336.632 64.4254 346.932 54 359.744 54H424.181C436.867 54 447.293 64.2998 447.293 77.1118V244.924C447.167 257.736 436.867 268.036 424.181 268.036Z" fill="black"/>
<path d="M424.181 268.036H359.744C347.058 268.036 336.632 257.736 336.632 244.924V77.1118C336.632 64.4254 346.932 54 359.744 54H424.181C436.867 54 447.293 64.2998 447.293 77.1118V244.924C447.167 257.736 436.867 268.036 424.181 268.036Z" fill="black"/>
<path d="M341.406 247.813V74.2227C341.406 65.807 348.314 58.8986 356.73 58.8986H426.945C435.36 58.8986 442.269 65.807 442.269 74.2227V247.813C442.269 256.228 435.36 263.137 426.945 263.137H356.73C348.314 263.137 341.406 256.354 341.406 247.813Z" fill="white"/>
<path d="M336.633 108.89C335.754 108.89 335 108.137 335 107.258V88.1652C335 87.2859 335.754 86.5323 336.633 86.5323V108.89Z" fill="black"/>
<path d="M447.167 86.4069C448.047 86.4069 448.8 87.1605 448.8 88.0398V111.528C448.8 112.408 448.047 113.161 447.167 113.161V86.4069Z" fill="black"/>
<path d="M336.633 133.51C335.754 133.51 335 132.756 335 131.877V112.784C335 111.905 335.754 111.152 336.633 111.152V133.51Z" fill="black"/>
<path d="M429.206 260.122H354.595C349.319 260.122 344.923 255.852 344.923 250.451V71.8363C344.923 66.5608 349.194 62.1645 354.595 62.1645H429.206C434.481 62.1645 438.877 66.4352 438.877 71.8363V250.451C438.877 255.852 434.481 260.122 429.206 260.122Z" stroke="black" stroke-width="0.4714" stroke-miterlimit="10"/>
<path d="M458.097 88.1652H440.512V105.75H458.097V88.1652Z" fill="#F9B928"/>
<path d="M479.073 88.1652H461.488V105.75H479.073V88.1652Z" fill="#CC4047"/>
<path d="M437.12 88.1652H419.535V105.75H437.12V88.1652Z" fill="#475DE3"/>
<path d="M465.256 91.8077L475.43 102.108" stroke="#181820" stroke-width="0.4905" stroke-miterlimit="10"/>
<path d="M475.43 91.8077L465.256 102.108" stroke="#181820" stroke-width="0.4905" stroke-miterlimit="10"/>
<path d="M444.28 91.8077L454.454 102.108" stroke="#181820" stroke-width="0.4905" stroke-miterlimit="10"/>
<path d="M454.454 91.8077H444.28V101.982H454.454V91.8077Z" stroke="#181820" stroke-width="0.4905" stroke-miterlimit="10"/>
<path d="M421.167 102.108H435.612" stroke="#181820" stroke-width="0.4905" stroke-miterlimit="10"/>
<path d="M306.102 358.579L288.391 348.405C287.386 347.777 286.13 348.531 286.13 349.787V370.01C286.13 371.14 287.386 371.894 288.391 371.391L306.102 361.217C307.106 360.589 307.106 359.082 306.102 358.579Z" fill="#DF6E1C"/>
<path d="M293.54 385.083C307.484 385.083 318.787 373.779 318.787 359.835C318.787 345.892 307.484 334.588 293.54 334.588C279.597 334.588 268.293 345.892 268.293 359.835C268.293 373.779 279.597 385.083 293.54 385.083Z" stroke="black" stroke-width="0.5004" stroke-miterlimit="10" stroke-linecap="round"/>
<path d="M544.267 41.5761H521.029C517.763 41.5761 515 38.9384 515 35.547V12.3095C515 9.04374 517.638 6.28034 521.029 6.28034H544.267C547.532 6.28034 550.296 8.91813 550.296 12.3095V35.547C550.296 38.9384 547.658 41.5761 544.267 41.5761Z" fill="white" stroke="black" stroke-width="0.75" stroke-miterlimit="10" stroke-linecap="round" stroke-linejoin="round"/>
<path d="M516.759 22.1069C516.759 22.1069 526.179 26.7544 532.962 37.9335C532.962 37.9335 538.363 18.9667 556.451 6.90838L546.151 -4.57764e-05C546.151 -4.57764e-05 535.851 8.5413 531.58 28.5129C531.58 28.5129 525.049 21.8557 516.759 22.1069Z" fill="#475DE3"/>
<path d="M612.472 17.585H561.726C560.722 17.585 559.842 16.7058 559.842 15.7009C559.842 14.6961 560.722 13.8168 561.726 13.8168H612.472C613.477 13.8168 614.356 14.6961 614.356 15.7009C614.356 16.7058 613.602 17.585 612.472 17.585Z" fill="black"/>
<path d="M612.472 24.996H561.726C560.722 24.996 559.842 24.1167 559.842 23.1119C559.842 22.107 560.722 21.2277 561.726 21.2277H612.472C613.477 21.2277 614.356 22.107 614.356 23.1119C614.356 24.1167 613.602 24.996 612.472 24.996Z" fill="black"/>
<path d="M591.621 32.4069H561.726C560.722 32.4069 559.842 31.5276 559.842 30.5227C559.842 29.5179 560.722 28.6386 561.726 28.6386H591.621C592.626 28.6386 593.505 29.5179 593.505 30.5227C593.505 31.5276 592.626 32.4069 591.621 32.4069Z" fill="black"/>
<path d="M248.806 308.008C248.806 308.008 255.714 336.395 256.468 342.676C257.096 347.072 218.66 390.03 218.66 390.03L200.949 377.469C215.017 344.434 225.443 340.164 225.443 340.164L217.027 313.786L248.806 308.008Z" fill="#FFD0B0"/>
<path d="M222.806 388.648L200.07 373.198L192.66 387.015C192.66 387.015 186.882 387.266 179.345 399.074L218.032 430.099C218.032 430.099 222.429 429.219 221.675 426.456C220.293 421.432 212.882 401.335 212.882 401.335L222.806 388.648Z" fill="#475DE3"/>
<path d="M222.806 388.648L200.07 373.198L192.66 387.015C192.66 387.015 186.882 387.266 179.345 399.074L218.032 430.099C218.032 430.099 222.429 429.219 221.675 426.456C220.293 421.432 212.882 401.335 212.882 401.335L222.806 388.648Z" fill="#FFED21"/>
<path d="M202.959 302.732L211.124 343.178C211.124 343.178 207.607 351.971 208.235 361.517C208.863 371.063 216.399 400.455 216.399 400.455L237.25 399.074V306.752L202.959 302.732Z" fill="#FFD0B0"/>
<path d="M237.25 373.701V306.877" stroke="#1F1E1F" stroke-width="0.5" stroke-miterlimit="10" stroke-linecap="round"/>
<path d="M258.352 239.175L269.154 245.078L291.764 213.048C291.387 210.913 290.633 204.758 290.382 200.362C290.257 197.347 293.146 194.082 297.667 189.685C298.547 188.806 303.069 188.429 306.711 188.429C309.726 184.912 315.253 178.381 316.634 177.501C319.398 175.743 323.417 179.009 322.412 181.898C321.659 184.159 316.634 191.193 314.373 194.207C315.127 194.207 318.644 194.333 319.523 196.217C319.774 196.594 319.774 197.347 319.649 197.85C321.156 197.976 322.789 198.604 323.04 199.985C323.166 200.99 323.04 201.869 322.663 203C323.794 203.125 325.05 203.502 325.176 204.633C325.804 209.029 323.668 214.681 316.257 214.933C314.625 220.459 308.972 221.715 306.586 222.092C304.827 225.232 281.715 270.577 270.787 271.958C259.483 273.34 242.777 260.905 242.777 260.905L258.352 239.175Z" fill="#FFD0B0"/>
<path d="M307.716 188.681C307.716 188.681 311.233 188.555 311.987 189.56C312.866 190.816 313.117 195.463 309.223 196.343C305.204 197.096 303.194 197.096 303.194 197.096L300.431 199.608" stroke="black" stroke-width="0.5" stroke-miterlimit="10" stroke-linecap="round" stroke-linejoin="round"/>
<path d="M319.397 199.106C319.397 199.106 318.016 204.507 317.262 206.014C316.508 207.522 311.233 208.778 309.223 208.401C307.213 208.15 305.832 205.386 307.339 203.753C308.846 202.121 311.861 201.995 311.861 201.995C311.861 201.995 311.986 198.855 312.614 197.599" stroke="black" stroke-width="0.5" stroke-miterlimit="10" stroke-linecap="round" stroke-linejoin="round"/>
<path d="M322.538 204.13C322.538 204.13 321.658 206.894 321.03 208.401C320.402 209.908 316.634 211.164 314.75 211.541C312.74 211.918 310.856 210.034 311.484 208.401" stroke="black" stroke-width="0.5" stroke-miterlimit="10" stroke-linecap="round" stroke-linejoin="round"/>
<path d="M315.504 214.681C315.504 214.681 312.866 213.928 314.122 211.667" stroke="black" stroke-width="0.5" stroke-miterlimit="10" stroke-linecap="round" stroke-linejoin="round"/>
<path d="M260.111 179.385C260.111 179.385 260.739 173.984 257.473 172.979C254.082 172.1 248.429 179.385 248.429 179.385H260.111Z" fill="#FFD0B0"/>
<path d="M230.216 254.499L243.028 264.171C250.062 257.388 259.609 239.301 259.609 239.301C259.609 239.301 247.425 228.75 244.912 227.242C243.028 226.112 239.763 226.112 239.763 226.112" fill="#FFED00"/>
<path d="M215.645 224.73C215.645 224.73 205.471 228.875 203.587 232.518C196.93 244.702 202.457 274.345 202.457 274.345L184.118 313.535C184.118 313.535 225.443 340.164 270.913 313.786L251.695 273.089C251.695 273.089 248.303 239.426 246.922 233.648C245.917 229.754 239.888 225.986 239.888 225.986L215.645 224.73Z" fill="#FFEC00"/>
<path d="M251.695 273.089C251.695 273.089 249.685 253.243 248.178 241.436" stroke="black" stroke-width="0.5" stroke-miterlimit="10" stroke-linecap="round" stroke-linejoin="round"/>
<path d="M173.693 105.151C133.121 88.0688 117.546 114.823 120.309 145.095C121.817 166.322 128.851 186.797 130.232 208.15C173.693 188.555 142.542 133.539 164.649 110.05" fill="#222221"/>
<path d="M176.582 99.3733C176.582 99.3733 161.383 92.7161 151.963 110.301C141.788 129.268 158.117 139.693 158.117 139.693L176.582 99.3733Z" fill="black"/>
<path d="M161.006 182.777C161.006 182.777 163.016 209.908 192.283 201.995L182.988 172.854L161.006 182.777Z" fill="#CC4047"/>
<path d="M215.143 206.642L215.771 224.73C215.771 224.73 221.801 229.252 229.714 229.252C237.25 229.252 239.762 225.86 239.762 225.86L235.994 205.386" fill="#FFD0B0"/>
<path d="M216.148 206.643C216.148 206.894 216.274 207.145 216.274 207.396C218.158 219.58 231.975 223.851 239.009 222.469L235.868 205.638L216.148 206.643Z" fill="#FFD0B0"/>
<path d="M190.524 120.852C179.973 128.64 166.659 143.587 168.04 167.327C169.799 196.092 189.268 213.3 224.69 214.933C260.111 216.566 280.208 200.362 277.068 181.647C273.928 162.931 271.416 165.694 273.174 146.476C275.435 122.485 226.197 94.726 190.524 120.852Z" fill="#FFD0B0"/>
<path d="M240.139 119.722C240.139 119.722 242.024 130.775 232.1 141.075C220.796 152.882 202.206 145.848 191.529 147.104C174.949 149.114 167.915 160.67 167.915 160.67H157.489C150.958 155.143 138.774 75.1311 234.613 90.0784C260.865 80.1554 293.271 106.659 272.923 150.496L270.662 141.201C270.788 141.201 244.661 143.964 240.139 119.722Z" fill="#222221"/>
<path d="M173.19 166.825C173.19 166.825 166.91 151.501 153.596 156.902C135.382 164.313 150.455 200.236 178.089 191.193L173.19 166.825Z" fill="#FFD0B0"/>
<path d="M239.134 394.677L211.752 396.938L214.64 412.388C214.64 412.388 210.37 416.156 211.752 430.099H261.241C261.241 430.099 264.13 426.707 261.743 424.949C257.473 421.809 239.134 410.881 239.134 410.881V394.677Z" fill="#FFED00"/>
<path d="M266.643 276.606L308.973 272.21C310.857 272.084 312.364 270.702 312.615 268.818L321.282 225.986C321.659 224.353 320.277 222.971 318.644 223.097L276.315 227.493C274.43 227.619 272.923 229.001 272.672 230.885L264.005 273.717C263.754 275.35 265.01 276.732 266.643 276.606Z" fill="black"/>
<path d="M276.44 151.501C277.947 152.254 280.082 167.83 278.324 172.226C277.194 174.864 201.829 180.642 198.186 179.888C194.544 179.134 193.79 158.66 195.423 157.028C196.93 155.269 270.411 148.612 276.44 151.501Z" fill="black"/>
<path d="M279.203 155.771C280.083 156.148 281.339 165.318 280.334 167.955C279.706 169.463 211.375 174.613 209.24 174.11C207.104 173.608 206.853 161.549 208.235 160.796C209.617 159.916 275.686 154.013 279.203 155.771Z" fill="#CC4047"/>
<path d="M261.618 190.565C261.869 190.313 262.246 190.565 262.12 190.816C261.492 192.951 259.483 197.473 253.202 197.599C248.178 197.975 244.535 194.71 243.028 192.951C242.777 192.7 243.028 192.323 243.405 192.449C249.559 195.463 256.845 195.338 261.618 190.565Z" fill="white"/>
<path d="M224.187 244.576L233.858 252.364L258.226 244.45C258.226 244.45 262.12 235.155 271.792 235.281L270.536 241.31C270.536 241.31 274.43 241.687 277.947 243.697C283.348 242.692 289.88 241.436 291.512 241.31C295.658 240.933 297.165 244.702 295.029 246.46C294.778 246.711 294.15 246.963 293.271 247.465C296.034 248.093 296.788 250.982 295.029 252.489C294.778 252.74 294.025 253.117 293.145 253.494C295.281 254.499 295.783 257.011 294.15 258.267C293.648 258.644 291.136 259.775 288.121 261.156C288.749 261.659 289.252 262.538 288.498 263.668C287.493 265.301 282.594 269.823 280.836 270.702C279.077 271.582 272.294 269.195 272.294 269.195L261.618 263.794C261.618 263.794 243.028 273.968 232.226 275.601C221.8 277.108 208.36 261.282 208.36 261.282L224.187 244.576Z" fill="#FFD0B0"/>
<path d="M292.392 247.339C292.392 247.339 282.343 250.103 279.957 250.354C277.57 250.731 274.304 249.726 274.304 249.726" stroke="black" stroke-width="0.5" stroke-miterlimit="10" stroke-linecap="round" stroke-linejoin="round"/>
<path d="M292.392 253.494C292.392 253.494 282.092 256.383 279.831 256.634C277.57 256.886 273.551 255.629 273.551 255.629" stroke="black" stroke-width="0.5" stroke-miterlimit="10" stroke-linecap="round" stroke-linejoin="round"/>
<path d="M287.116 261.156C287.116 261.156 281.339 263.166 278.826 263.417C276.314 263.668 272.42 262.161 272.42 262.161" stroke="black" stroke-width="0.5" stroke-miterlimit="10" stroke-linecap="round" stroke-linejoin="round"/>
<path d="M260.111 179.385C260.111 179.385 260.739 173.984 257.473 172.979C254.082 172.1 248.429 179.385 248.429 179.385" fill="#FFD0B0"/>
<path d="M260.111 179.385C260.111 179.385 260.739 173.984 257.473 172.979C254.082 172.1 248.429 179.385 248.429 179.385" stroke="black" stroke-width="0.5" stroke-miterlimit="10" stroke-linecap="round" stroke-linejoin="round"/>
<path d="M171.557 182.4L153.218 163.308" stroke="#1F1E1F" stroke-width="0.5" stroke-miterlimit="10" stroke-linecap="round" stroke-linejoin="round"/>
<path d="M154.474 179.009L161.634 171.975" stroke="#1F1E1F" stroke-width="0.5" stroke-miterlimit="10" stroke-linecap="round" stroke-linejoin="round"/>
<path d="M265.386 309.766C265.386 309.766 254.709 319.438 230.09 319.438C209.239 319.438 189.77 309.766 189.77 309.766" stroke="black" stroke-width="0.5" stroke-miterlimit="10" stroke-linecap="round" stroke-linejoin="round"/>
<path d="M1 432.437H825.489" stroke="black" stroke-width="1.5" stroke-miterlimit="10" stroke-linecap="round"/>
<path d="M119.699 445.5H295.927" stroke="black" stroke-width="0.75" stroke-miterlimit="10" stroke-linecap="round"/>
<path d="M577.666 445.5H749.874" stroke="black" stroke-width="0.75" stroke-miterlimit="10" stroke-linecap="round"/>
<path d="M101.235 388.6C156.251 382.445 176.097 429.799 176.097 429.799C176.097 429.799 160.271 412.465 137.284 413.596" stroke="#1F1E1F" stroke-width="0.5" stroke-miterlimit="10" stroke-linecap="round" stroke-linejoin="round"/>
</svg>
