<svg width="80" height="139" viewBox="0 0 80 139" fill="none" xmlns="http://www.w3.org/2000/svg">
<path d="M8.80633 129.905L46.695 137.127C51.098 137.967 55.5074 134.146 56.5701 128.571L77.1727 20.4901C78.2354 14.915 75.5407 9.74038 71.1376 8.90106L33.249 1.67868C28.8459 0.839356 24.4366 4.65978 23.3738 10.2348L2.78018 118.269C1.67152 123.884 4.40326 129.066 8.80633 129.905Z" fill="white"/>
<path d="M47.5878 132.443C49.9559 132.894 52.3073 130.818 52.8699 127.866L73.4725 19.7849C74.0441 16.7865 72.5755 14.0305 70.2444 13.5861L32.3558 6.36372C29.9878 5.91232 27.6364 7.98877 27.0737 10.9403L6.48009 118.975C5.90854 121.973 7.37712 124.729 9.70815 125.173L47.5968 132.396L47.5878 132.443Z" stroke="black" stroke-width="0.75" stroke-miterlimit="10"/>
<path d="M32.7132 4.48963C29.5311 3.88306 26.353 6.67584 25.5939 10.658L5.00022 118.692C4.2322 122.721 6.20604 126.448 9.35109 127.047L47.2397 134.27C50.4218 134.876 53.5999 132.083 54.359 128.101L74.9527 20.0669C75.7207 16.0378 73.7469 12.3115 70.6018 11.712L32.7132 4.48963ZM33.249 1.67868L71.1376 8.90106C75.5407 9.74038 78.2354 14.915 77.1727 20.4901L56.5791 128.524C55.5163 134.099 51.107 137.92 46.7039 137.08L8.81527 129.858C4.41219 129.019 1.71746 123.844 2.78018 118.269L23.3738 10.2348C24.3996 4.65273 28.8459 0.839356 33.249 1.67868Z" fill="black"/>
<path d="M72.6615 43.9545L72.8465 43.9897C73.1795 44.0532 73.5469 43.7348 73.6273 43.3132L75.8599 31.6009C75.9403 31.1792 75.7157 30.748 75.3827 30.6845L75.1977 30.6493L72.6615 43.9545Z" fill="black"/>
<path d="M21.3989 20.3943L21.2139 20.359C20.8809 20.2955 20.5135 20.6139 20.4331 21.0356L17.7004 35.3714C17.62 35.7931 17.8446 36.2243 18.1776 36.2877L18.3626 36.323L21.3989 20.3943Z" fill="black"/>
<path d="M69.8841 58.5248L70.0691 58.56C70.4021 58.6235 70.7696 58.3051 70.8499 57.8835L73.0826 46.1712C73.1629 45.7495 72.9384 45.3183 72.6054 45.2549L72.4204 45.2196L69.8841 58.5248Z" fill="black"/>
<path d="M24.0163 82.8333C18.6778 72.582 21.4315 58.1361 30.1669 50.5676C38.9022 42.999 50.3113 45.1738 55.6498 55.4251C60.9882 65.6765 58.2345 80.1223 49.4992 87.6909C40.7639 95.2595 29.3548 93.0847 24.0163 82.8333Z" stroke="#475DE3" stroke-width="1.5" stroke-miterlimit="10"/>
<path d="M35.4871 91.9256C30.4805 90.9712 28.3691 79.9827 30.7711 67.382C33.173 54.7813 39.1788 45.3401 44.1853 46.2944C49.1919 47.2488 51.3033 58.2373 48.9014 70.838C46.4994 83.4387 40.4936 92.8799 35.4871 91.9256Z" stroke="#475DE3" stroke-width="1.5" stroke-miterlimit="10"/>
<path d="M28.7843 51.8553C31.604 54.9661 36.2495 57.5509 41.7996 58.6089C47.3497 59.6668 52.6114 59.0191 56.3867 57.1169" stroke="#475DE3" stroke-width="1.5" stroke-miterlimit="10"/>
<path d="M50.842 86.4047C48.0223 83.294 43.3768 80.7091 37.8267 79.6512C32.2766 78.5932 27.0149 79.241 23.2396 81.1431" stroke="#475DE3" stroke-width="1.5" stroke-miterlimit="10"/>
<path d="M44.1851 46.2944L35.4868 91.9256" stroke="#475DE3" stroke-width="1.5" stroke-miterlimit="10"/>
<path d="M21.8168 65.6752L57.8184 72.5378" stroke="#475DE3" stroke-width="1.5" stroke-miterlimit="10"/>
<path d="M23.1774 108.223L27.2256 94.4294L15.8486 97.9898L18.0866 101.135L14.6201 105.038L17.473 108.981L20.9025 105.071L23.1774 108.223Z" fill="black"/>
<path d="M15.2773 108.028C12.9272 110.299 7.73571 117.417 13.9532 123.021" stroke="black" stroke-miterlimit="10" stroke-linecap="round"/>
</svg>
