<svg width="89" height="141" viewBox="0 0 89 141" fill="none" xmlns="http://www.w3.org/2000/svg">
<path d="M36.9293 138.708L79.0931 129.75C83.993 128.709 86.9943 123.39 85.8148 117.839L62.9475 10.2139C61.768 4.66237 56.8635 1.02371 51.9636 2.06481L9.79977 11.0235C4.89987 12.0646 1.89857 17.383 3.07811 22.9345L25.9355 130.513C27.0838 136.119 32.0294 139.749 36.9293 138.708Z" fill="white"/>
<path d="M78.1021 125.084C80.7373 124.524 82.3218 121.652 81.6974 118.713L58.8301 11.0885C58.1957 8.10285 55.5491 6.17856 52.955 6.72973L10.7911 15.6884C8.15587 16.2483 6.57135 19.1204 7.19581 22.0594L30.0532 129.637C30.6876 132.623 33.3342 134.547 35.9283 133.996L78.0921 125.038L78.1021 125.084Z" stroke="black" stroke-width="0.75" stroke-miterlimit="10"/>
<path d="M10.3945 13.8225C6.85339 14.5749 4.70612 18.4442 5.54865 22.4096L28.406 129.988C29.2585 134 32.8247 136.606 36.3246 135.863L78.4885 126.904C82.0296 126.152 84.1769 122.282 83.3343 118.317L60.477 10.7388C59.6245 6.72679 56.0583 4.12025 52.5584 4.86389L10.3945 13.8225ZM9.79977 11.0235L51.9636 2.06481C56.8635 1.02371 61.768 4.66237 62.9475 10.2139L85.8049 117.792C86.9844 123.343 83.9831 128.662 79.0832 129.703L36.9194 138.662C32.0194 139.703 27.115 136.064 25.9355 130.513L3.07811 22.9345C1.85739 17.3917 4.89987 12.0646 9.79977 11.0235Z" fill="black"/>
<path d="M67.8726 33.5948L68.0784 33.551C68.449 33.4723 68.6991 33.0291 68.6099 32.6092L66.1319 20.9464C66.0427 20.5265 65.634 20.2233 65.2634 20.302L65.0575 20.3458L67.8726 33.5948Z" fill="black"/>
<path d="M5.18799 33.0664L4.98211 33.1101C4.61153 33.1889 4.36143 33.6321 4.45064 34.0519L7.48375 48.3273C7.57296 48.7471 7.98165 49.0504 8.35223 48.9716L8.55811 48.9279L5.18799 33.0664Z" fill="black"/>
<path d="M70.9551 48.1036L71.161 48.0598C71.5315 47.9811 71.7816 47.5379 71.6924 47.118L69.2144 35.4552C69.1252 35.0353 68.7165 34.7321 68.3459 34.8108L68.14 34.8546L70.9551 48.1036Z" fill="black"/>
<path d="M33.4247 89.2698C23.7086 82.0613 20.6522 67.6765 26.598 57.1403C32.5439 46.6041 45.2403 43.9064 54.9564 51.1149C64.6724 58.3234 67.7288 72.7083 61.783 83.2444C55.8372 93.7806 43.1407 96.4783 33.4247 89.2698Z" stroke="#475DE3" stroke-width="1.5" stroke-miterlimit="10"/>
<path d="M49.0134 92.8927C43.4419 94.0764 36.7641 84.8644 34.0982 72.3169C31.4322 59.7694 33.7875 48.638 39.359 47.4542C44.9305 46.2704 51.6082 55.4825 54.2742 68.03C56.9402 80.5775 54.5849 91.7089 49.0134 92.8927Z" stroke="#475DE3" stroke-width="1.5" stroke-miterlimit="10"/>
<path d="M25.6941 58.8903C29.8841 60.5842 35.7485 61.0447 41.9249 59.7324C48.1012 58.42 53.2818 55.6616 56.4111 52.3638" stroke="#475DE3" stroke-width="1.5" stroke-miterlimit="10"/>
<path d="M62.6472 81.5121C58.4572 79.8182 52.5927 79.3577 46.4164 80.67C40.24 81.9823 35.0595 84.7408 31.9301 88.0386" stroke="#475DE3" stroke-width="1.5" stroke-miterlimit="10"/>
<path d="M39.3589 47.4543L49.0133 92.8928" stroke="#475DE3" stroke-width="1.5" stroke-miterlimit="10"/>
<path d="M24.1338 74.4341L64.1978 65.9216" stroke="#475DE3" stroke-width="1.5" stroke-miterlimit="10"/>
<path d="M42.9372 112.907L41.4871 98.5876L31.1687 106.533L34.7708 108.498L32.779 113.505L37.3434 115.948L39.294 110.95L42.9372 112.907Z" fill="black"/>
<path d="M34.6816 115.977C33.1779 119.027 30.7156 127.693 39.441 130.276" stroke="black" stroke-miterlimit="10" stroke-linecap="round"/>
</svg>
