<svg width="646" height="399" viewBox="0 0 646 399" fill="none" xmlns="http://www.w3.org/2000/svg">
<g clip-path="url(#clip0_163_899)">
<path d="M645.214 386.983H0.687441" stroke="black" stroke-width="1.5" stroke-miterlimit="10" stroke-linecap="round"/>
<path d="M578.827 398.555H445.365" stroke="black" stroke-width="0.75" stroke-miterlimit="10" stroke-linecap="round"/>
<path d="M192.582 398.555H69.1371" stroke="black" stroke-width="0.75" stroke-miterlimit="10" stroke-linecap="round"/>
<path d="M232.945 304.535H333.508C345.194 304.535 354.622 293.854 354.622 280.613V23.9222C354.622 10.6815 345.194 0 333.508 0H232.945C221.258 0 211.83 10.6815 211.83 23.9222V280.502C211.732 293.854 221.258 304.535 232.945 304.535Z" fill="white"/>
<path d="M333.508 293.409C339.793 293.409 344.802 287.623 344.802 280.613V23.9223C344.802 16.8013 339.695 11.1267 333.508 11.1267H232.945C226.66 11.1267 221.651 16.9125 221.651 23.9223V280.502C221.651 287.623 226.758 293.297 232.945 293.297H333.508V293.409Z" stroke="black" stroke-width="0.75" stroke-miterlimit="10"/>
<path d="M232.945 6.67596C224.499 6.67596 217.723 14.4646 217.723 23.9222V280.502C217.723 290.071 224.597 297.748 232.945 297.748H333.508C341.953 297.748 348.73 289.959 348.73 280.502V23.9222C348.73 14.3533 341.855 6.67596 333.508 6.67596H232.945ZM232.945 0H333.508C345.194 0 354.622 10.6815 354.622 23.9222V280.502C354.622 293.742 345.194 304.424 333.508 304.424H232.945C221.258 304.424 211.83 293.742 211.83 280.502V23.9222C211.732 10.6815 221.258 0 232.945 0Z" fill="black"/>
<path d="M354.524 79.6664H355.015C355.899 79.6664 356.685 78.7763 356.685 77.7749V49.9584C356.685 48.957 355.899 48.0669 355.015 48.0669H354.524V79.6664Z" fill="black"/>
<path d="M211.732 48.0669H211.241C210.358 48.0669 209.572 48.957 209.572 49.9584V84.0058C209.572 85.0072 210.358 85.8973 211.241 85.8973H211.732V48.0669Z" fill="black"/>
<path d="M354.524 114.27H355.015C355.899 114.27 356.685 113.38 356.685 112.379V84.5622C356.685 83.5608 355.899 82.6707 355.015 82.6707H354.524V114.27Z" fill="black"/>
<path d="M248.918 190.016C230.241 168.855 230.241 134.547 248.918 113.386C267.595 92.2247 297.877 92.2247 316.554 113.386C335.231 134.547 335.231 168.855 316.554 190.016C297.877 211.177 267.595 211.177 248.918 190.016Z" stroke="#475DE3" stroke-width="1.5" stroke-miterlimit="10"/>
<path d="M282.735 205.842C269.447 205.842 258.675 181.582 258.675 151.656C258.675 121.729 269.447 97.469 282.735 97.469C296.024 97.469 306.796 121.729 306.796 151.656C306.796 181.582 296.024 205.842 282.735 205.842Z" stroke="#475DE3" stroke-width="1.5" stroke-miterlimit="10"/>
<path d="M246.006 116.941C254.747 122.838 267.906 126.732 282.637 126.732C297.368 126.732 310.528 122.949 319.268 116.941" stroke="#475DE3" stroke-width="1.5" stroke-miterlimit="10"/>
<path d="M319.366 186.482C310.626 180.585 297.466 176.69 282.735 176.69C268.004 176.69 254.845 180.473 246.104 186.482" stroke="#475DE3" stroke-width="1.5" stroke-miterlimit="10"/>
<path d="M282.735 97.469V205.842" stroke="#475DE3" stroke-width="1.5" stroke-miterlimit="10"/>
<path d="M234.909 151.656H330.464" stroke="#475DE3" stroke-width="1.5" stroke-miterlimit="10"/>
<path d="M259.166 248.568L262.799 215.188L235.4 228.318L242.667 234.549L235.694 245.008L244.926 252.796L251.8 242.337L259.166 248.568Z" fill="black"/>
<path d="M238.837 251.573C233.927 257.803 224.106 276.385 242.765 286.51" stroke="black" stroke-miterlimit="10" stroke-linecap="round"/>
<path d="M145.934 230.877L128.65 259.139C126.882 262.143 125.999 265.703 126.195 269.264L129.927 340.363C129.927 340.363 137.096 344.146 147.211 340.919C147.211 340.919 159.978 287.289 153.202 274.159L171.959 246.788L145.934 230.877Z" fill="#FFD0B0"/>
<path d="M137.194 342.143C137.194 342.143 134.052 334.577 131.695 332.574C131.695 332.574 123.544 334.466 118.928 339.361C118.928 339.361 125.606 345.147 127.079 347.484L121.972 358.165C121.972 358.165 112.839 356.941 108.223 365.62C103.313 374.967 107.634 386.204 107.634 386.204H129.239L155.068 355.94C155.068 355.94 156.148 346.928 147.309 340.919C147.211 340.919 141.908 342.811 137.194 342.143Z" fill="#475DE3"/>
<path d="M168.62 247.567L137.194 359.612C137.194 359.612 142.105 367.623 156.344 365.064C156.344 365.064 175.2 323.562 181.191 309.097C187.181 294.632 184.039 286.287 184.039 286.287L197.689 257.47L168.62 247.567Z" fill="#FFD0B0"/>
<path d="M152.907 303.645L137.194 359.501" stroke="black" stroke-width="0.25" stroke-miterlimit="10" stroke-linecap="round" stroke-linejoin="round"/>
<path d="M165.183 252.797L162.826 262.477C169.406 267.15 179.325 270.043 187.672 271.823L193.761 267.372L193.663 272.936C198.966 273.826 202.698 274.16 202.698 274.16C202.698 274.16 219.884 226.093 219.982 218.082C220.08 209.959 217.134 202.504 217.134 202.504L185.315 192.935C185.413 190.376 185.413 188.93 185.413 188.93L170.977 185.703L140.73 236.997C140.73 236.886 152.023 246.232 165.183 252.797Z" fill="#2E2A72"/>
<path d="M201.519 199.5C201.519 199.5 198.278 206.399 200.439 215.522C202.894 226.093 213.991 229.876 213.991 229.876L212.125 235.662C212.125 235.662 198.966 230.21 195.43 219.194C191.698 207.734 195.725 197.164 195.725 197.164" fill="black"/>
<path d="M211.045 96.5791C211.045 96.5791 224.499 104.59 232.552 115.717C238.837 124.284 229.115 175.578 224.499 197.942C226.954 207.845 219.884 207.845 219.884 207.845C209.081 209.514 189.538 199.166 169.307 192.045C169.307 192.045 165.87 191.378 166.067 187.261C166.263 183.144 170.289 179.695 170.289 179.695C170.289 179.695 177.458 131.962 178.539 126.621C179.619 121.28 191.698 104.924 191.698 104.924L211.045 96.5791Z" fill="#475DE3"/>
<path d="M203.483 74.7708L210.947 96.5789C210.947 96.5789 204.072 105.146 191.6 104.924L189.832 81.7805L203.483 74.7708Z" fill="#FFD0B0"/>
<path d="M189.931 81.6693L191.208 99.1381C206.135 94.3536 202.796 80.6679 201.225 75.3271L189.931 81.6693Z" fill="#FFD0B0"/>
<path d="M161.156 159.667L152.121 131.962C151.63 130.293 152.613 128.624 154.184 128.624H189.833C191.797 128.624 193.564 129.959 194.252 132.073L203.287 159.778C203.778 161.447 202.796 163.116 201.225 163.116H165.576C163.513 163.116 161.844 161.67 161.156 159.667Z" fill="black"/>
<path d="M170.682 153.325C170.486 152.546 170.388 151.878 170.29 151.433C169.799 149.208 173.334 148.651 174.807 150.988C175.691 152.434 178.342 158.443 178.342 158.443L183.94 160.223L190.815 159.778C190.815 159.778 191.699 156.106 195.136 155.995C197.984 155.995 198.082 158.443 196.903 160.668C195.725 163.005 194.448 165.341 194.448 165.341L196.314 168.234C196.314 168.234 210.652 166.009 219.196 164.34L216.348 151.099L239.525 144.312C239.525 144.312 241.293 157.553 242.373 169.236C243.06 177.136 243.06 184.479 238.052 187.038C236.284 188.04 233.927 188.596 231.079 188.707C217.232 189.152 194.841 180.473 194.841 180.473C194.841 180.473 182.467 174.576 178.048 171.35C178.048 171.35 173.334 166.676 172.548 166.009C171.861 165.23 166.165 156.663 165.085 154.66C164.103 153.213 166.656 150.098 170.682 153.325Z" fill="#FFD0B0"/>
<path d="M171.075 154.771C171.075 154.771 173.629 161.892 174.021 162.671C174.414 163.338 178.441 166.676 178.441 166.676" stroke="black" stroke-width="0.25" stroke-miterlimit="10" stroke-linecap="round" stroke-linejoin="round"/>
<path d="M219.982 164.34C219.982 164.34 229.115 162.893 233.043 172.24" stroke="black" stroke-width="0.25" stroke-miterlimit="10" stroke-linecap="round" stroke-linejoin="round"/>
<path d="M225.285 107.594C225.285 107.594 234.811 115.939 236.284 121.391C237.364 125.508 241.784 151.656 241.784 151.656L215.661 156.106C215.661 156.106 209.474 129.959 210.161 122.059C210.849 114.048 221.651 105.703 225.285 107.594Z" fill="#475DE3"/>
<path d="M205.546 77.4412C205.546 77.4412 200.439 89.0128 188.458 91.1269C176.477 93.241 173.727 79.2214 175.003 69.2075C176.28 59.3048 179.521 48.6233 191.797 47.1768C204.367 45.8416 215.563 60.1949 205.546 77.4412Z" fill="#FFD0B0"/>
<path d="M205.349 70.2089C205.349 70.2089 200.537 67.4273 200.93 61.5302C200.93 61.5302 193.466 62.9766 192.19 56.5232C192.19 56.5232 186.101 61.6414 180.405 56.5232C180.405 56.5232 177.852 59.0823 175.986 64.3118C175.986 64.3118 167.835 47.3994 179.226 47.7332C179.226 47.7332 179.619 33.1573 191.306 31.4884C201.814 29.9306 210.456 47.5107 210.456 47.5107C210.456 47.5107 217.232 47.0656 219.687 53.074C223.321 61.9752 209.572 74.1032 209.572 74.1032L205.349 70.2089Z" fill="#222221"/>
<path d="M203.974 69.7639C204.858 67.3161 209.474 63.533 213.009 67.5386C217.527 72.4343 211.929 82.782 202.992 79.8891C202.992 79.7779 203.09 72.1005 203.974 69.7639Z" fill="#FFD0B0"/>
<path d="M157.523 362.505C157.523 362.505 165.968 369.292 162.04 386.093H110.973C110.973 386.093 106.652 368.513 115.687 363.173C119.713 360.725 126.49 361.281 129.141 362.394C131.989 360.28 132.775 359.278 132.775 359.278L131.498 350.599C131.498 350.599 136.605 348.93 143.97 352.157C149.077 354.383 150.157 357.498 150.157 357.498L148.193 363.061C148.291 363.061 152.612 364.73 157.523 362.505Z" fill="#475DE3"/>
<path d="M110.973 386.093C110.973 386.093 106.652 368.513 115.687 363.173C119.713 360.725 126.49 361.281 129.141 362.394C131.989 360.28 132.775 359.278 132.775 359.278L131.498 350.599C131.498 350.599 136.605 348.93 143.97 352.157C149.077 354.383 150.157 357.498 150.157 357.498" stroke="black" stroke-width="0.25" stroke-miterlimit="10" stroke-linecap="round" stroke-linejoin="round"/>
<path d="M165.477 251.573L170.388 232.324L167.54 225.091" stroke="black" stroke-width="0.5" stroke-miterlimit="10" stroke-linecap="round" stroke-linejoin="round"/>
<path d="M206.429 229.653L194.35 265.369" stroke="black" stroke-width="0.5" stroke-miterlimit="10" stroke-linecap="round" stroke-linejoin="round"/>
<path d="M211.733 131.628L214.581 156.106" stroke="black" stroke-width="0.5" stroke-miterlimit="10" stroke-linecap="round" stroke-linejoin="round"/>
<path d="M211.732 69.3188L205.644 75.3272" stroke="black" stroke-width="0.25" stroke-miterlimit="10" stroke-linecap="round" stroke-linejoin="round"/>
<path d="M211.045 74.4371L208.983 71.9893" stroke="black" stroke-width="0.25" stroke-miterlimit="10" stroke-linecap="round" stroke-linejoin="round"/>
<path d="M171.959 180.585C171.959 180.585 180.405 183.255 186.985 188.93C193.663 194.604 200.046 201.837 205.644 202.838" stroke="black" stroke-width="0.25" stroke-miterlimit="10" stroke-linecap="round" stroke-linejoin="round"/>
<path d="M177.262 67.8723C177.753 66.8709 180.994 64.3117 182.86 69.5413C182.762 69.5413 178.539 72.1004 177.262 67.8723Z" fill="white"/>
<path d="M182.762 69.5413C182.762 69.5413 181.78 70.2088 180.503 70.3201C179.325 70.4314 177.95 70.0976 177.262 68.2061C177.262 68.0948 177.164 67.9835 177.164 67.8723C177.655 66.8709 180.994 64.3117 182.762 69.5413Z" fill="white"/>
<path d="M180.503 70.32C179.423 70.4313 178.048 70.0975 177.36 68.5398C177.655 68.0947 178.244 66.8708 179.619 67.3159C180.994 67.6497 180.699 69.5412 180.503 70.32Z" fill="black"/>
<path d="M181.387 68.2061L179.619 68.7624L181.682 69.2075" fill="white"/>
<path d="M177.262 67.8722C178.343 66.3145 180.699 65.9807 181.878 67.7609C182.369 68.3173 183.155 70.4313 182.565 68.5398C181.485 65.8694 178.637 65.3131 177.262 67.8722Z" fill="black"/>
<path d="M178.637 63.6442C179.128 63.5329 179.717 63.4216 180.405 63.4216C181.682 63.5329 182.762 64.2005 182.958 64.5343C183.155 64.9794 182.86 65.6469 182.271 65.2019C181.878 64.8681 181.289 64.5343 180.208 64.423C179.717 64.3118 179.226 64.423 178.834 64.423C177.753 64.5343 177.655 63.978 178.637 63.6442Z" fill="black"/>
<path d="M189.342 71.2102C189.833 70.2088 193.074 67.6496 194.939 72.8791C194.841 72.8791 190.618 75.5495 189.342 71.2102Z" fill="white"/>
<path d="M194.841 72.8792C194.841 72.8792 193.859 73.5468 192.582 73.6581C191.404 73.7693 190.029 73.4356 189.342 71.544C189.342 71.4328 189.243 71.3215 189.243 71.2102C189.734 70.3201 193.073 67.6497 194.841 72.8792Z" fill="white"/>
<path d="M192.681 73.6579C191.6 73.7692 190.225 73.4354 189.538 71.8777C189.833 71.4326 190.422 70.2087 191.797 70.6537C193.172 71.0988 192.877 72.8791 192.681 73.6579Z" fill="black"/>
<path d="M193.565 71.5439L191.699 72.1003L193.761 72.6566" fill="white"/>
<path d="M189.342 71.2102C190.422 69.6524 192.779 69.3186 193.957 71.0989C194.448 71.6552 195.234 73.7693 194.645 71.8778C193.564 69.2074 190.716 68.7623 189.342 71.2102Z" fill="black"/>
<path d="M194.841 67.8722C194.448 67.5384 193.957 67.2046 193.27 66.9821C192.091 66.537 191.011 66.7595 190.52 66.8708C190.127 67.0933 190.225 67.9835 190.815 67.7609C191.306 67.6497 192.091 67.6497 193.073 67.9835C193.564 68.0947 193.957 68.3173 194.35 68.5398C195.234 69.0961 195.529 68.5398 194.841 67.8722Z" fill="black"/>
<path d="M183.744 72.9905C183.744 72.9905 181.682 76.551 181.583 77.1073C181.485 77.6637 183.744 79.3326 183.744 79.3326C183.744 79.3326 182.467 77.6637 182.565 76.9961C182.664 76.3285 183.744 72.9905 183.744 72.9905Z" fill="#FFD0B0"/>
<path d="M180.405 81.8918C180.405 81.8918 180.798 84.6735 183.155 85.0073C186.003 85.4524 186.886 82.0031 186.886 82.0031L180.405 81.8918Z" fill="white"/>
<path d="M369.021 67.7966H428.85C432.669 67.7966 435.803 70.6543 435.803 74.137V111.822C435.803 115.305 432.669 118.162 428.85 118.162H418.177C418.177 124.056 420.135 135.398 434.334 135.398C434.334 135.398 410.441 138.702 407.993 118.162H369.021C365.202 118.162 362.068 115.305 362.068 111.822V74.137C362.068 70.6543 365.104 67.7966 369.021 67.7966Z" fill="white" stroke="black" stroke-width="0.5" stroke-miterlimit="10" stroke-linecap="round" stroke-linejoin="round"/>
<path d="M374.402 95.6907C374.248 95.6907 374.138 95.6273 374.072 95.5007C374.005 95.374 373.998 95.2507 374.052 95.1307L376.992 88.1507C377.065 87.9707 377.192 87.8807 377.372 87.8807C377.545 87.8807 377.668 87.9707 377.742 88.1507L380.692 95.1407C380.752 95.2673 380.742 95.3907 380.662 95.5107C380.588 95.6307 380.482 95.6907 380.342 95.6907C380.262 95.6907 380.188 95.6707 380.122 95.6307C380.062 95.5907 380.012 95.5307 379.972 95.4507L377.222 88.7807H377.532L374.762 95.4507C374.728 95.5307 374.678 95.5907 374.612 95.6307C374.552 95.6707 374.482 95.6907 374.402 95.6907ZM375.062 93.8307L375.362 93.1607H379.422L379.722 93.8307H375.062ZM383.978 95.7407C383.464 95.7407 383.004 95.6207 382.598 95.3807C382.191 95.134 381.868 94.8007 381.628 94.3807C381.394 93.9607 381.278 93.4873 381.278 92.9607C381.278 92.4273 381.398 91.9507 381.638 91.5307C381.884 91.1107 382.218 90.7807 382.638 90.5407C383.058 90.294 383.531 90.1707 384.058 90.1707C384.584 90.1707 385.054 90.294 385.468 90.5407C385.888 90.7807 386.218 91.1107 386.458 91.5307C386.704 91.9507 386.831 92.4273 386.838 92.9607L386.528 93.2007C386.528 93.6807 386.414 94.114 386.188 94.5007C385.968 94.8807 385.664 95.184 385.278 95.4107C384.898 95.6307 384.464 95.7407 383.978 95.7407ZM384.058 95.0407C384.444 95.0407 384.788 94.9507 385.088 94.7707C385.394 94.5907 385.634 94.344 385.808 94.0307C385.988 93.7107 386.078 93.354 386.078 92.9607C386.078 92.5607 385.988 92.204 385.808 91.8907C385.634 91.5773 385.394 91.3307 385.088 91.1507C384.788 90.964 384.444 90.8707 384.058 90.8707C383.678 90.8707 383.334 90.964 383.028 91.1507C382.721 91.3307 382.478 91.5773 382.298 91.8907C382.118 92.204 382.028 92.5607 382.028 92.9607C382.028 93.354 382.118 93.7107 382.298 94.0307C382.478 94.344 382.721 94.5907 383.028 94.7707C383.334 94.9507 383.678 95.0407 384.058 95.0407ZM386.448 95.6907C386.334 95.6907 386.241 95.6573 386.168 95.5907C386.094 95.5173 386.058 95.424 386.058 95.3107V93.6007L386.248 92.8107L386.838 92.9607V95.3107C386.838 95.424 386.801 95.5173 386.728 95.5907C386.654 95.6573 386.561 95.6907 386.448 95.6907ZM388.245 97.3107C388.179 97.3107 388.125 97.2907 388.085 97.2507C388.052 97.2173 388.035 97.1707 388.035 97.1107C388.035 97.0107 388.065 96.9173 388.125 96.8307C388.185 96.7507 388.245 96.664 388.305 96.5707C388.372 96.4773 388.405 96.364 388.405 96.2307C388.405 96.1107 388.382 96.0107 388.335 95.9307C388.289 95.8507 388.232 95.7773 388.165 95.7107C388.105 95.6507 388.052 95.584 388.005 95.5107C387.959 95.4307 387.935 95.334 387.935 95.2207C387.935 95.054 387.989 94.9207 388.095 94.8207C388.209 94.7207 388.349 94.6707 388.515 94.6707C388.715 94.6707 388.879 94.7507 389.005 94.9107C389.132 95.064 389.195 95.2807 389.195 95.5607C389.195 95.7473 389.169 95.944 389.115 96.1507C389.062 96.3573 388.989 96.5473 388.895 96.7207C388.802 96.9007 388.699 97.044 388.585 97.1507C388.472 97.2573 388.359 97.3107 388.245 97.3107ZM394.061 95.6907C393.934 95.6907 393.828 95.6573 393.741 95.5907C393.661 95.5173 393.621 95.4207 393.621 95.3007V88.2707C393.621 88.1573 393.658 88.064 393.731 87.9907C393.804 87.9173 393.898 87.8807 394.011 87.8807H398.271C398.371 87.8807 398.454 87.9173 398.521 87.9907C398.594 88.0573 398.631 88.1473 398.631 88.2607C398.631 88.374 398.594 88.464 398.521 88.5307C398.454 88.5973 398.371 88.6307 398.271 88.6307H394.401V91.0807H396.871C397.338 91.0807 397.751 91.1807 398.111 91.3807C398.478 91.574 398.764 91.844 398.971 92.1907C399.178 92.5307 399.281 92.924 399.281 93.3707C399.281 93.824 399.178 94.2273 398.971 94.5807C398.764 94.9273 398.478 95.2007 398.111 95.4007C397.751 95.594 397.338 95.6907 396.871 95.6907H394.061ZM394.401 94.9407H396.871C397.191 94.9407 397.474 94.874 397.721 94.7407C397.968 94.6073 398.161 94.4207 398.301 94.1807C398.441 93.9407 398.511 93.6607 398.511 93.3407C398.511 93.0207 398.441 92.744 398.301 92.5107C398.161 92.2707 397.968 92.0873 397.721 91.9607C397.474 91.834 397.191 91.7707 396.871 91.7707H394.401V94.9407ZM403.178 95.7407C402.651 95.7407 402.185 95.6207 401.778 95.3807C401.371 95.1407 401.051 94.8107 400.818 94.3907C400.591 93.964 400.478 93.4773 400.478 92.9307H400.888C400.888 92.4573 400.988 92.0407 401.188 91.6807C401.395 91.314 401.675 91.0273 402.028 90.8207C402.388 90.614 402.798 90.5107 403.258 90.5107C403.758 90.5107 404.201 90.6207 404.588 90.8407C404.981 91.0607 405.288 91.3673 405.508 91.7607C405.728 92.154 405.838 92.604 405.838 93.1107C405.838 93.624 405.725 94.0807 405.498 94.4807C405.271 94.874 404.958 95.184 404.558 95.4107C404.158 95.6307 403.698 95.7407 403.178 95.7407ZM403.178 95.0407C403.551 95.0407 403.881 94.9607 404.168 94.8007C404.455 94.634 404.678 94.4073 404.838 94.1207C405.005 93.8273 405.088 93.4907 405.088 93.1107C405.088 92.7373 405.005 92.4073 404.838 92.1207C404.678 91.834 404.455 91.6107 404.168 91.4507C403.881 91.2907 403.551 91.2107 403.178 91.2107C402.798 91.2107 402.461 91.2907 402.168 91.4507C401.875 91.6107 401.645 91.834 401.478 92.1207C401.318 92.4073 401.238 92.7373 401.238 93.1107C401.238 93.4907 401.318 93.8273 401.478 94.1207C401.645 94.4073 401.875 94.634 402.168 94.8007C402.461 94.9607 402.798 95.0407 403.178 95.0407ZM400.478 92.9607V92.1407C400.485 91.254 400.721 90.4607 401.188 89.7607C401.655 89.054 402.381 88.5107 403.368 88.1307L404.838 87.5507C404.945 87.5107 405.038 87.5073 405.118 87.5407C405.198 87.574 405.258 87.6407 405.298 87.7407C405.331 87.8473 405.331 87.9407 405.298 88.0207C405.271 88.1007 405.195 88.164 405.068 88.2107L403.508 88.8507C402.921 89.0773 402.448 89.364 402.088 89.7107C401.735 90.0573 401.478 90.4473 401.318 90.8807C401.158 91.3073 401.078 91.7607 401.078 92.2407L401.088 92.9607H400.478ZM407.259 97.3107C407.192 97.3107 407.139 97.2907 407.099 97.2507C407.066 97.2173 407.049 97.1707 407.049 97.1107C407.049 97.0107 407.079 96.9173 407.139 96.8307C407.199 96.7507 407.259 96.664 407.319 96.5707C407.386 96.4773 407.419 96.364 407.419 96.2307C407.419 96.1107 407.396 96.0107 407.349 95.9307C407.302 95.8507 407.246 95.7773 407.179 95.7107C407.119 95.6507 407.066 95.584 407.019 95.5107C406.972 95.4307 406.949 95.334 406.949 95.2207C406.949 95.054 407.002 94.9207 407.109 94.8207C407.222 94.7207 407.362 94.6707 407.529 94.6707C407.729 94.6707 407.892 94.7507 408.019 94.9107C408.146 95.064 408.209 95.2807 408.209 95.5607C408.209 95.7473 408.182 95.944 408.129 96.1507C408.076 96.3573 408.002 96.5473 407.909 96.7207C407.816 96.9007 407.712 97.044 407.599 97.1507C407.486 97.2573 407.372 97.3107 407.259 97.3107ZM410.145 95.6907C410.018 95.6907 409.912 95.6573 409.825 95.5907C409.745 95.5173 409.705 95.4207 409.705 95.3007V88.2707C409.705 88.1573 409.742 88.064 409.815 87.9907C409.888 87.9173 409.982 87.8807 410.095 87.8807H412.525C412.925 87.8807 413.285 87.9673 413.605 88.1407C413.932 88.3073 414.188 88.5373 414.375 88.8307C414.568 89.124 414.665 89.464 414.665 89.8507C414.665 90.2107 414.568 90.5307 414.375 90.8107C414.182 91.0907 413.928 91.304 413.615 91.4507C414.062 91.5707 414.422 91.7973 414.695 92.1307C414.968 92.4573 415.105 92.874 415.105 93.3807C415.105 93.834 415.002 94.234 414.795 94.5807C414.588 94.9273 414.302 95.2007 413.935 95.4007C413.575 95.594 413.162 95.6907 412.695 95.6907H410.145ZM410.485 94.9407H412.695C413.015 94.9407 413.298 94.8773 413.545 94.7507C413.792 94.624 413.985 94.444 414.125 94.2107C414.265 93.9773 414.335 93.7007 414.335 93.3807C414.335 93.0807 414.265 92.8207 414.125 92.6007C413.985 92.374 413.792 92.2007 413.545 92.0807C413.298 91.954 413.015 91.8907 412.695 91.8907H410.485V94.9407ZM410.485 91.1407H412.525C412.925 91.1407 413.255 91.0273 413.515 90.8007C413.775 90.574 413.905 90.2573 413.905 89.8507C413.905 89.4507 413.775 89.1473 413.515 88.9407C413.255 88.734 412.925 88.6307 412.525 88.6307H410.485V91.1407ZM416.948 95.6907C416.828 95.6907 416.731 95.6573 416.658 95.5907C416.591 95.5173 416.558 95.4207 416.558 95.3007V90.6007C416.565 90.4873 416.601 90.3973 416.668 90.3307C416.741 90.2573 416.835 90.2207 416.948 90.2207C417.061 90.2207 417.151 90.2573 417.218 90.3307C417.291 90.3973 417.328 90.4907 417.328 90.6107V92.5107H419.438V92.6507C419.785 92.6507 420.091 92.714 420.358 92.8407C420.631 92.9673 420.841 93.144 420.988 93.3707C421.141 93.5907 421.218 93.844 421.218 94.1307C421.218 94.4373 421.141 94.7073 420.988 94.9407C420.841 95.174 420.631 95.3573 420.358 95.4907C420.091 95.624 419.785 95.6907 419.438 95.6907H416.948ZM417.328 94.9807H419.438C419.738 94.9807 419.985 94.904 420.178 94.7507C420.371 94.5973 420.468 94.3773 420.468 94.0907C420.468 93.7907 420.371 93.564 420.178 93.4107C419.985 93.2507 419.738 93.1707 419.438 93.1707H417.328V94.9807ZM418.448 92.9407V92.5107H419.438C419.671 92.5107 419.861 92.434 420.008 92.2807C420.155 92.1273 420.228 91.9307 420.228 91.6907C420.228 91.4773 420.148 91.2973 419.988 91.1507C419.835 90.9973 419.638 90.9207 419.398 90.9207H416.958V90.2207H419.398C419.705 90.2207 419.975 90.284 420.208 90.4107C420.448 90.5307 420.635 90.6973 420.768 90.9107C420.908 91.124 420.978 91.3707 420.978 91.6507C420.978 92.084 420.831 92.4073 420.538 92.6207C420.251 92.834 419.885 92.9407 419.438 92.9407H418.448ZM422.705 95.8507C422.545 95.8507 422.408 95.794 422.295 95.6807C422.181 95.5673 422.125 95.4307 422.125 95.2707C422.125 95.104 422.181 94.964 422.295 94.8507C422.415 94.7373 422.551 94.6807 422.705 94.6807C422.865 94.6807 423.001 94.7407 423.115 94.8607C423.228 94.974 423.285 95.1107 423.285 95.2707C423.285 95.424 423.228 95.5607 423.115 95.6807C423.008 95.794 422.871 95.8507 422.705 95.8507ZM424.863 95.8507C424.703 95.8507 424.566 95.794 424.453 95.6807C424.34 95.5673 424.283 95.4307 424.283 95.2707C424.283 95.104 424.34 94.964 424.453 94.8507C424.573 94.7373 424.71 94.6807 424.863 94.6807C425.023 94.6807 425.16 94.7407 425.273 94.8607C425.386 94.974 425.443 95.1107 425.443 95.2707C425.443 95.424 425.386 95.5607 425.273 95.6807C425.166 95.794 425.03 95.8507 424.863 95.8507ZM427.021 95.8507C426.861 95.8507 426.725 95.794 426.611 95.6807C426.498 95.5673 426.441 95.4307 426.441 95.2707C426.441 95.104 426.498 94.964 426.611 94.8507C426.731 94.7373 426.868 94.6807 427.021 94.6807C427.181 94.6807 427.318 94.7407 427.431 94.8607C427.545 94.974 427.601 95.1107 427.601 95.2707C427.601 95.424 427.545 95.5607 427.431 95.6807C427.325 95.794 427.188 95.8507 427.021 95.8507Z" fill="black"/>
<path d="M285.78 57.0794C288.038 57.0794 289.904 54.9653 289.904 52.4062V32.9346C289.904 30.3755 288.038 28.2615 285.78 28.2615H232.945C230.686 28.2615 228.82 30.3755 228.82 32.9346V52.4062C228.82 54.9653 230.686 57.0794 232.945 57.0794H285.78Z" fill="white" stroke="black" stroke-width="0.5" stroke-miterlimit="10" stroke-linecap="round" stroke-linejoin="round"/>
<path d="M238.248 34.4924C242.569 33.1572 244.926 38.4979 244.926 38.4979C244.926 38.4979 247.283 33.1572 251.604 34.4924C256.416 36.0501 256.219 46.9542 244.926 51.2935C233.632 46.9542 233.436 36.0501 238.248 34.4924Z" fill="#CC4047"/>
<path d="M265.746 34.4924C270.067 33.1572 272.424 38.4979 272.424 38.4979C272.424 38.4979 274.781 33.1572 279.102 34.4924C283.914 36.0501 283.718 46.9542 272.424 51.2935C261.13 46.9542 260.934 36.0501 265.746 34.4924Z" fill="#CC4047"/>
<g clip-path="url(#clip1_163_899)">
<path d="M614.1 352.089C603.361 361.173 560.401 375.945 532.863 368.329C532.955 368.146 533.139 367.962 533.23 367.779C535.342 366.953 537.178 365.852 538.83 364.659C540.023 364.659 541.308 364.476 542.41 363.65C545.347 361.264 551.038 361.173 554.435 360.989C557.923 360.806 556.821 365.852 556.821 365.852C556.821 365.852 556.821 365.852 557.923 365.852C559.024 365.852 578.209 364.567 580.412 364.567C582.615 364.567 602.626 356.402 604.37 355.484C606.665 354.291 618.874 342.823 620.893 339.061C622.913 335.299 625.116 325.757 627.135 320.711C629.154 315.665 625.85 311.077 616.212 308.233C606.573 305.389 609.786 300.251 599.23 318.325C592.713 329.427 582.707 333.556 576.098 335.116C576.465 334.932 576.832 334.84 577.199 334.657C588.215 330.069 595.65 319.426 596.292 307.499C596.843 296.948 601.066 279.24 624.473 289.608C641.271 297.223 626.768 341.263 614.1 352.089Z" fill="#1D1D1C"/>
<path d="M423.446 352.64C423.446 352.64 403.894 358.42 411.88 368.88C412.522 369.705 415.184 370.531 416.194 370.531C417.387 370.531 417.387 370.531 420.875 369.981C420.875 369.981 425.19 371.632 429.32 371.54C429.32 371.54 422.344 361.998 438.683 353.282L423.446 352.64Z" fill="#B3B2B1" stroke="#1D1D1C" stroke-width="0.25" stroke-miterlimit="10"/>
<path d="M616.12 308.416C606.481 305.572 609.694 300.434 599.138 318.509C592.62 329.611 582.615 333.739 576.006 335.299C566.092 339.153 555.444 339.153 549.753 338.786C549.937 341.722 549.937 345.025 549.753 348.878C549.753 348.878 547.366 358.512 538.921 364.751C540.115 364.751 541.4 364.567 542.501 363.742C545.439 361.356 551.13 361.264 554.526 361.081C558.014 360.897 556.913 365.944 556.913 365.944C556.913 365.944 556.913 365.944 558.014 365.944C559.116 365.944 578.392 365.21 580.504 364.659C585.093 363.466 602.81 356.585 604.462 355.576C610.612 351.814 618.965 342.914 620.985 339.153C623.004 335.391 625.207 325.849 627.227 320.803C629.062 315.848 625.758 311.169 616.12 308.416ZM554.985 346.86C554.985 345.025 557.923 344.658 562.604 344.658C567.286 344.658 570.223 344.015 570.223 345.85C570.223 347.685 568.203 350.071 563.522 350.071C558.841 350.163 554.985 348.695 554.985 346.86ZM572.242 359.613C567.561 360.255 563.522 359.429 563.338 357.594C563.063 355.759 567.561 354.658 572.242 354.016C576.924 353.374 580.045 353.374 580.32 355.117C580.504 356.86 576.924 358.879 572.242 359.613ZM586.011 345.116C583.166 347.41 579.861 348.052 578.76 346.676C577.658 345.3 579.769 342.823 581.972 339.978C584.175 337.042 588.031 337.042 589.224 338.419C590.326 339.887 588.857 342.914 586.011 345.116ZM597.577 333.005C596.109 331.17 596.109 327.409 599.23 324.931C602.351 322.454 604.37 317.041 605.839 318.876C607.307 320.711 608.96 329.427 605.839 331.904C602.718 334.382 599.046 334.84 597.577 333.005ZM610.612 345.759C607.491 348.236 603.819 348.695 602.351 346.86C600.882 345.025 602.259 341.538 605.38 339.061C608.501 336.584 610.796 334.29 612.172 336.125C613.641 337.96 613.733 343.281 610.612 345.759Z" fill="white" stroke="#1D1D1C" stroke-miterlimit="10"/>
<path d="M391.134 260.706C392.511 259.513 393.429 258.963 393.429 258.963" stroke="#EC8004" stroke-miterlimit="10"/>
<path d="M528.366 315.298C507.804 329.06 498.992 351.998 496.88 358.237C493.851 359.521 490.73 359.613 486.508 362.824C486.6 362.09 486.141 356.585 486.141 355.851C489.629 350.621 491.832 343.465 492.75 339.611C493.117 339.795 493.392 339.978 493.392 339.978C503.306 328.968 505.417 294.929 505.784 280.616C505.968 280.616 506.152 280.616 506.335 280.616C510.374 288.323 521.114 308.508 528.366 315.298Z" fill="white" stroke="#1D1D1C" stroke-width="0.25" stroke-miterlimit="10"/>
<path d="M505.233 277.68C505.233 277.68 505.601 278.414 506.243 279.698C506.427 279.974 506.519 280.341 506.702 280.616" stroke="#EC8004" stroke-miterlimit="10"/>
<path d="M506.243 279.698C506.243 279.974 506.243 280.341 506.243 280.616" stroke="#EC8004" stroke-miterlimit="10"/>
<path d="M550.671 338.143C549.203 317.5 537.912 319.151 530.752 316.582C529.834 316.215 528.824 315.573 527.723 314.472C507.437 328.326 500.369 344.199 498.257 350.53C498.257 350.53 497.064 357.962 496.972 357.962C493.943 359.246 491.74 358.512 487.793 361.632C483.937 365.76 485.039 366.861 483.662 369.981C486.508 373.926 491.648 377.321 495.779 375.211L509.364 375.945C509.364 375.945 524.877 380.624 534.332 367.779C534.148 367.779 534.057 367.687 533.873 367.687C533.965 367.595 534.148 367.595 534.24 367.504C536.351 366.678 538.187 365.577 539.84 364.384C548.285 358.145 550.671 348.419 550.671 348.419C550.855 344.382 550.855 341.079 550.671 338.143ZM544.796 353.099C540.207 357.87 534.607 357.228 530.844 355.943C528.641 355.209 526.713 354.016 524.969 352.456C521.297 348.97 513.587 340.988 514.596 335.116C515.147 331.721 517.626 328.143 520.196 325.298C523.776 321.353 528.916 319.243 534.24 319.885C535.434 319.977 536.535 320.16 536.994 320.16C538.096 320.16 543.052 326.858 545.623 330.528C546.908 332.363 547.826 334.382 548.285 336.584C548.376 337.042 548.468 337.593 548.56 338.143C549.203 342.364 549.111 348.603 544.796 353.099Z" fill="#005576" stroke="#1D1D1C" stroke-width="0.25" stroke-miterlimit="10"/>
<path d="M388.197 358.053L371.858 350.621C371.582 350.53 372.041 350.254 372.409 350.254C376.906 350.713 388.931 351.998 390.308 351.814H390.4C390.584 351.355 384.158 347.961 377.916 344.841C376.447 344.107 373.969 343.281 372.409 342.547C371.95 342.364 372.225 341.722 372.684 341.813C376.172 342.547 379.752 343.19 383.24 343.924H383.332C392.419 347.41 399.671 345.667 404.444 343.924C404.536 343.557 404.536 343.373 404.536 343.373L358.731 331.629C358.731 331.629 353.683 341.355 355.794 351.08C355.794 351.08 390.675 368.421 396.367 365.118C396.55 365.026 396.734 364.934 396.826 364.751C396.917 364.384 397.101 363.925 397.193 363.558L396.367 363.191L388.197 358.053Z" fill="#C6C4C3" stroke="#1D1D1C" stroke-width="0.25" stroke-miterlimit="10"/>
<path d="M382.23 343.557C382.139 343.557 381.863 343.465 381.863 343.465C377.733 342.364 374.52 341.813 370.481 341.263C370.022 341.171 369.747 341.813 370.206 341.997C371.95 342.823 374.52 343.648 376.172 344.474C382.781 347.777 389.758 351.355 389.574 351.906C389.574 351.906 389.39 351.539 389.299 351.539C387.738 350.988 375.162 349.337 370.206 350.346C369.838 350.438 369.288 350.53 369.655 350.713L387.096 358.604L395.908 364.017L396.826 364.476C400.589 360.163 402.976 351.631 404.077 346.493C404.353 345.208 404.444 344.199 404.536 343.557C399.579 345.392 393.337 344.474 382.23 343.557Z" fill="#4F4F4F"/>
<path d="M396.55 364.751C390.951 368.054 356.253 350.897 356.253 350.897C356.253 350.897 344.962 346.217 334.957 354.842C334.223 355.484 333.672 356.035 333.029 356.585C328.164 361.631 329.449 369.981 335.6 373.375L339.088 375.302C339.547 375.577 340.097 375.669 340.648 375.669H340.832C331.377 358.695 343.769 355.668 349.093 356.31C343.769 355.668 331.377 358.695 340.924 375.761H344.228C343.861 359.796 352.398 356.402 352.398 356.402C352.398 356.402 343.769 359.888 344.228 375.761H382.047C382.414 375.761 382.69 375.669 382.965 375.486C385.26 374.293 396.091 368.329 397.101 364.384C396.826 364.567 396.734 364.659 396.55 364.751Z" fill="#B3B2B1"/>
<path d="M396.55 364.751C395.632 365.21 394.623 365.21 393.613 365.118C392.603 365.026 391.685 364.843 390.676 364.659C388.748 364.292 386.912 363.65 384.984 363.099C381.221 361.907 377.641 360.439 373.969 358.971C370.389 357.503 366.809 355.943 363.229 354.291C361.485 353.466 359.649 352.64 357.905 351.814C356.987 351.447 356.161 350.897 355.243 350.621C354.325 350.346 353.316 350.071 352.398 349.979C348.542 349.337 344.503 349.704 340.924 351.172C339.088 351.906 337.435 352.823 335.875 354.108C335.508 354.383 335.049 354.658 334.682 355.025L333.58 356.035C333.213 356.402 332.846 356.677 332.57 357.044L332.111 357.594C331.928 357.778 331.836 357.961 331.744 358.237C329.541 361.448 329.449 365.944 331.377 369.338C332.387 370.99 333.764 372.458 335.508 373.375L338.078 374.752C338.537 374.935 338.904 375.21 339.363 375.394C339.822 375.577 340.281 375.669 340.832 375.669V375.761C339.638 373.742 338.721 371.632 337.986 369.338C337.344 367.136 336.976 364.659 337.619 362.365C337.894 361.264 338.537 360.163 339.271 359.246C340.097 358.42 341.107 357.686 342.117 357.227C344.228 356.218 346.707 355.851 349.001 356.126V356.31C348.451 356.218 347.808 356.218 347.257 356.218C346.707 356.126 346.064 356.218 345.513 356.31C344.32 356.493 343.218 356.86 342.209 357.319C341.199 357.87 340.189 358.512 339.455 359.338C338.721 360.255 338.17 361.264 337.894 362.365C337.344 364.567 337.619 366.953 338.262 369.155C338.904 371.357 339.822 373.559 340.924 375.577H344.228C343.953 373.742 344.136 371.907 344.32 369.981C344.595 368.146 344.871 366.311 345.513 364.567C346.156 362.824 346.982 361.081 348.083 359.613C349.277 358.145 350.654 356.86 352.398 356.126V356.218C350.745 357.044 349.46 358.328 348.359 359.796C347.257 361.264 346.431 362.916 345.789 364.567L345.33 365.852L344.962 367.136C344.687 368.054 344.595 368.971 344.503 369.797C344.412 370.715 344.32 371.632 344.228 372.55C344.228 373.467 344.228 374.385 344.228 375.302C344.412 375.302 344.32 375.302 344.32 375.394C344.32 375.394 344.32 375.394 344.32 375.486C344.32 375.486 344.32 375.577 344.228 375.577H372.776H379.936H381.68C381.955 375.577 382.231 375.577 382.598 375.486C382.873 375.394 383.148 375.302 383.424 375.119C384.434 374.568 385.535 374.018 386.545 373.375C388.564 372.183 390.584 370.898 392.511 369.43C393.429 368.696 394.347 367.962 395.173 367.136C396 366.311 396.826 365.393 397.101 364.2H397.193L396.55 364.751ZM396.55 364.659L397.009 364.384L397.101 364.292V364.384C396.734 365.577 395.908 366.494 395.082 367.32C394.255 368.146 393.338 368.971 392.42 369.614C390.492 371.082 388.472 372.366 386.453 373.559C385.443 374.201 384.434 374.752 383.332 375.302C383.057 375.394 382.781 375.577 382.506 375.669C382.231 375.761 381.863 375.761 381.588 375.761H379.844H372.684H344.136H344.045L343.953 375.669C343.953 375.669 343.953 375.669 343.953 375.577C343.953 375.577 343.953 375.577 344.045 375.486V372.733C344.136 371.816 344.136 370.898 344.32 369.981C344.503 369.063 344.595 368.146 344.779 367.32L345.146 365.944L345.605 364.659C346.248 362.916 347.074 361.264 348.175 359.796C349.277 358.328 350.654 357.044 352.306 356.218V356.31C350.745 357.227 349.369 358.512 348.359 359.98C347.257 361.448 346.431 363.099 345.88 364.843C345.238 366.586 344.962 368.329 344.595 370.164C344.503 371.082 344.412 371.999 344.32 372.917V374.293C344.32 374.752 344.32 375.21 344.136 375.669V375.761H340.832C339.638 373.742 338.629 371.632 337.894 369.43C337.527 368.329 337.344 367.136 337.252 365.944C337.16 364.751 337.252 363.558 337.527 362.457C337.894 361.356 338.445 360.255 339.271 359.429C340.097 358.604 341.107 357.961 342.209 357.411C343.31 356.952 344.412 356.585 345.605 356.493L347.349 356.31C347.9 356.218 348.542 356.31 349.093 356.31V356.493C346.798 356.218 344.412 356.585 342.3 357.594C341.291 358.053 340.281 358.787 339.455 359.613C338.721 360.439 338.078 361.54 337.803 362.641C337.16 364.843 337.527 367.32 338.17 369.522C338.812 371.724 339.822 373.926 340.924 375.944V376.036H340.832C340.373 376.036 339.822 375.944 339.363 375.761C338.904 375.577 338.537 375.302 338.078 375.119L335.508 373.467C333.764 372.55 332.387 371.082 331.377 369.43C329.449 366.035 329.541 361.54 331.744 358.237C331.928 358.053 332.02 357.87 332.203 357.594L332.662 357.044C332.938 356.677 333.305 356.31 333.672 356.035L334.773 355.025C335.141 354.658 335.508 354.383 335.967 354.108C337.527 352.915 339.271 351.906 341.015 351.172C344.687 349.704 348.726 349.337 352.581 349.979C353.591 350.163 354.509 350.346 355.427 350.621C356.345 350.897 357.263 351.447 358.089 351.814C359.833 352.64 361.669 353.466 363.413 354.291C366.993 355.943 370.573 357.503 374.153 358.971C377.733 360.439 381.404 361.907 385.168 363.099C387.004 363.742 388.931 364.292 390.859 364.659C391.777 364.843 392.787 365.026 393.796 365.118C394.623 365.118 395.632 365.118 396.55 364.659Z" fill="#1D1D1C"/>
<path d="M570.315 345.942C570.315 347.777 568.295 350.163 563.614 350.163C558.932 350.163 555.077 348.695 555.077 346.86C555.077 345.025 558.015 344.658 562.696 344.658C567.377 344.75 570.315 344.107 570.315 345.942Z" fill="#1D1D1C"/>
<path d="M572.243 359.613C567.561 360.255 563.522 359.429 563.339 357.594C563.063 355.759 567.561 354.658 572.243 354.016C576.924 353.374 580.045 353.374 580.32 355.117C580.504 356.86 576.924 358.879 572.243 359.613Z" fill="#1D1D1C"/>
<path d="M586.012 345.116C583.166 347.41 579.861 348.052 578.76 346.676C577.658 345.3 579.77 342.823 581.973 339.978C584.176 337.042 588.031 337.042 589.224 338.419C590.326 339.887 588.857 342.823 586.012 345.116Z" fill="#1D1D1C"/>
<path d="M610.612 345.759C607.491 348.236 603.819 348.695 602.351 346.86C600.882 345.025 602.259 341.538 605.38 339.061C608.501 336.584 610.796 334.29 612.173 336.125C613.641 337.96 613.733 343.282 610.612 345.759Z" fill="#1D1D1C"/>
<path d="M605.839 331.904C602.718 334.382 599.046 334.84 597.578 333.005C596.109 331.17 596.109 327.409 599.23 324.931C602.351 322.454 604.37 317.041 605.839 318.876C607.308 320.711 608.96 329.427 605.839 331.904Z" fill="#1D1D1C"/>
<path d="M544.796 353.007C540.207 357.87 534.607 357.136 530.844 355.943C528.641 355.209 526.713 353.925 524.969 352.365C521.297 348.878 513.586 340.712 514.596 334.749C515.147 331.262 517.625 327.684 520.196 324.748C523.776 320.711 529.008 318.417 534.24 319.243C534.791 319.335 536.351 319.335 536.994 319.518C544.245 321.078 543.511 326.491 545.622 330.069C546.816 331.996 547.825 334.015 548.284 336.217C548.376 336.675 548.468 337.226 548.56 337.776C549.202 342.089 549.11 348.42 544.796 353.007Z" fill="#0077A8"/>
<path d="M505.968 280.249C505.509 294.47 503.398 328.601 493.668 339.611C493.668 339.611 493.484 339.52 493.025 339.244C492.107 338.694 489.996 337.685 487.059 336.584C479.164 333.464 464.753 329.519 447.679 332.363C447.587 333.372 447.496 334.015 447.496 334.015C444.007 334.015 439.326 348.511 439.326 348.511C439.051 348.419 438.775 348.236 438.5 348.144C432.166 345.025 427.117 340.529 423.079 335.574C418.764 330.161 415.552 324.197 413.257 318.509C408.392 331.446 405.821 339.244 404.536 343.281C404.261 343.19 404.536 343.281 404.169 343.19L358.823 331.629C361.21 288.231 383.607 266.486 390.951 260.523C423.813 272.45 471.178 277.863 505.968 280.249Z" fill="white" stroke="#1D1D1C" stroke-width="0.25" stroke-miterlimit="10"/>
<path d="M368.002 209.143C368.278 210.336 368.829 211.437 369.379 212.538C369.93 213.639 370.573 214.648 371.307 215.657C372.041 216.666 372.776 217.584 373.602 218.501C374.428 219.419 375.254 220.245 376.172 221.07L375.713 221.529C374.887 220.612 373.969 219.786 373.235 218.777C372.409 217.859 371.766 216.85 371.032 215.749C370.389 214.74 369.747 213.639 369.196 212.538C368.645 211.437 368.186 210.244 367.911 209.051L368.002 209.143Z" fill="#1D1D1C"/>
<path d="M371.399 204.555L380.119 211.987L379.66 212.446L371.399 204.555Z" fill="#1D1D1C"/>
<path d="M374.245 199.876L382.873 207.308L382.414 207.858L374.061 200.059L374.245 199.876Z" fill="#1D1D1C"/>
<path d="M416.561 156.203C413.991 157.304 411.604 158.405 409.309 159.506C406.923 160.515 404.628 161.616 402.425 162.809C387.463 147.578 374.061 159.689 374.061 159.689C364.147 168.406 373.785 182.076 376.08 184.921C373.785 187.948 371.858 191.16 370.205 194.463C356.987 178.131 360.659 160.515 363.688 151.982C364.881 148.587 367.819 146.018 371.307 145.193C395.081 139.596 416.561 156.203 416.561 156.203Z" fill="#1D1D1C"/>
<path d="M402.333 162.809C391.593 168.589 382.506 176.113 375.989 184.921C373.786 182.076 364.055 168.406 373.969 159.689C373.969 159.689 387.463 147.578 402.333 162.809Z" fill="white" stroke="#1D1D1C" stroke-width="0.25" stroke-miterlimit="10"/>
<path d="M569.581 195.013C568.938 204.372 564.899 222.997 544.337 232.355C544.337 231.805 544.429 231.163 544.429 230.52C544.521 229.328 544.521 228.135 544.521 226.942C544.521 222.446 543.878 217.951 542.685 213.547C543.511 216.116 544.062 218.409 544.337 220.428C544.337 220.428 563.155 211.253 556.913 197.857C556.913 197.857 549.57 181.709 530.293 189.141C527.172 185.012 523.592 181.159 519.645 177.489C522.215 176.938 546.816 171.8 565.266 185.655C568.204 187.765 569.764 191.343 569.581 195.013Z" fill="#1D1D1C"/>
<path d="M544.337 220.428C543.97 218.409 543.511 216.024 542.685 213.547C540.482 205.106 536.168 196.756 530.293 189.141C549.57 181.709 556.913 197.857 556.913 197.857C563.247 211.345 544.337 220.428 544.337 220.428Z" fill="white" stroke="#1D1D1C" stroke-width="0.25" stroke-miterlimit="10"/>
<path d="M409.309 159.506C406.923 160.699 404.628 161.891 402.608 163.084C402.517 162.992 402.517 162.992 402.425 162.901C404.628 161.616 406.923 160.515 409.309 159.506Z" fill="#F6A74C" stroke="#1D1D1C" stroke-width="0.25" stroke-miterlimit="10"/>
<path d="M432.992 226.942C430.147 226.85 427.485 226.667 424.914 226.392C430.422 196.298 420.967 186.939 420.967 186.939C393.337 186.664 396.091 219.235 396.091 219.235C390.4 216.574 386.269 213.547 383.148 210.702C383.148 210.611 383.607 209.418 383.699 209.326C384.801 206.39 385.994 203.729 387.279 201.344C388.197 199.601 389.115 198.041 390.125 196.573C403.435 176.204 422.069 177.581 422.069 177.581C434.369 190.059 432.992 226.942 432.992 226.942Z" fill="#1D1D1C" stroke="#1D1D1C" stroke-width="0.25" stroke-miterlimit="10"/>
<path fill-rule="evenodd" clip-rule="evenodd" d="M424.822 226.392C422.987 226.208 421.243 226.025 419.59 225.75C421.059 214.372 418.948 208.867 416.469 206.207C416.928 205.381 417.112 204.372 417.112 203.271C417.112 200.793 415.918 198.775 414.542 198.775C413.165 198.775 411.971 200.793 411.971 203.271C411.971 203.454 411.971 203.638 411.971 203.821C411.512 203.729 411.329 203.729 411.329 203.729C403.251 204.647 403.526 222.08 403.526 222.08C400.773 221.162 398.386 220.245 396.091 219.144C396.091 219.144 393.337 186.572 420.875 186.847C420.967 186.939 430.422 196.298 424.822 226.392Z" fill="#0089CF"/>
<path d="M502.296 277.772C489.628 278.047 481.642 264.743 481.642 264.743C475.584 280.066 457.868 283.185 442.08 280.249C430.055 279.79 423.996 275.111 421.151 271.808C420.325 271.258 419.682 270.615 418.948 270.065C404.72 257.403 411.237 247.311 411.237 247.311C377.732 260.248 364.698 222.813 364.698 222.813C366.901 251.073 388.839 271.992 416.653 278.965C424.272 280.891 432.258 281.717 440.519 281.442C443.732 281.35 453.554 285.295 466.038 287.773C484.396 291.351 508.813 291.718 527.172 271.349C527.447 270.982 527.814 270.615 528.273 270.157C522.49 272.909 511.292 277.588 502.296 277.772ZM489.812 281.258C493.208 278.322 506.243 280.249 506.243 280.249C496.788 285.387 489.812 281.258 489.812 281.258Z" fill="#C6C5C4" stroke="#1D1D1C" stroke-width="0.25" stroke-miterlimit="10"/>
<path d="M542.685 213.547C540.482 205.106 536.168 196.756 530.293 189.141C527.172 185.012 523.592 181.159 519.645 177.489C502.571 161.708 478.338 150.881 452.636 150.881C436.847 150.881 422.069 154.001 409.309 159.598C406.923 160.79 404.628 161.983 402.608 163.176C402.517 163.084 402.517 163.084 402.425 162.992C391.593 168.589 382.506 176.113 375.988 184.921C373.693 187.948 371.766 191.16 370.114 194.463C366.442 201.803 364.514 209.877 364.514 218.134C364.514 219.786 364.606 221.345 364.698 222.905C364.698 222.905 377.732 260.248 411.329 247.311C411.329 247.311 404.811 257.312 419.039 269.973C419.682 270.615 420.416 271.166 421.242 271.716C426.566 275.57 434.093 278.689 442.171 280.157C457.96 283.093 475.676 279.974 481.734 264.652C481.734 264.652 489.72 277.864 502.388 277.588C511.383 277.405 522.49 272.726 528.273 270.065C532.955 264.652 542.777 251.99 544.337 232.172C544.337 231.622 544.429 230.979 544.429 230.337C544.521 229.144 544.521 227.952 544.521 226.759C544.521 222.446 543.878 217.951 542.685 213.547ZM506.886 169.874C507.62 169.231 510.098 170.699 512.301 173.268C514.596 175.837 515.79 178.406 515.055 179.049C514.321 179.691 511.842 178.223 509.639 175.654C507.345 173.177 506.151 170.608 506.886 169.874ZM502.204 178.682C504.04 183.086 502.021 188.591 497.156 190.701C492.29 192.811 487.242 193.27 485.406 188.866C483.57 184.462 485.957 179.232 490.822 177.214C495.687 175.103 500.368 174.369 502.204 178.682ZM486.875 160.79C488.527 159.322 491.097 159.139 492.841 160.607C495.595 162.901 494.769 166.112 494.769 166.112C487.058 163.91 481.275 168.589 481.275 168.589C480.082 167.396 484.213 163.268 486.875 160.79ZM461.081 217.492C462.09 216.024 463.651 215.198 464.569 215.84C465.487 216.391 466.221 218.868 465.211 220.336C464.202 221.896 461.907 221.896 460.989 221.254C460.071 220.795 460.071 219.052 461.081 217.492ZM454.563 181.159C453.921 187.673 452.269 192.903 450.983 192.811C449.698 192.719 449.148 187.306 449.882 180.7C450.525 174.186 452.177 168.956 453.462 169.14C454.655 169.14 455.206 174.553 454.563 181.159ZM448.964 214.281C449.974 213.914 451.351 215.015 451.993 216.666C452.636 218.318 452.269 220.061 451.259 220.428C450.249 220.795 447.862 219.969 447.22 218.226C446.577 216.574 447.954 214.648 448.964 214.281ZM446.027 205.289C446.027 202.353 447.036 199.968 448.413 199.968C449.698 199.968 450.8 202.353 450.8 205.289C450.8 208.225 449.79 210.611 448.413 210.611C447.128 210.611 446.027 208.225 446.027 205.289ZM450.8 152.625C455.94 160.423 450.8 165.378 450.8 165.378C445.659 156.386 437.398 156.386 437.398 156.386C437.031 152.9 450.8 152.625 450.8 152.625ZM427.484 166.02C431.89 164.185 437.398 166.204 439.509 171.066C441.621 175.929 442.08 180.975 437.673 182.81C433.267 184.737 428.035 182.26 425.924 177.397C423.904 172.534 423.078 167.855 427.484 166.02ZM398.202 172.259C402.884 167.58 409.034 167.396 409.952 168.314C410.87 169.231 406.556 171.617 401.874 176.296C397.193 180.975 393.154 181.893 392.236 180.975C391.226 179.966 393.521 176.938 398.202 172.259ZM381.863 237.952C381.129 240.063 379.66 237.861 375.805 235.383C370.389 231.897 368.828 224.832 371.307 225.107C375.346 225.566 374.336 230.612 378.1 233.273C381.221 235.475 382.597 235.75 381.863 237.952ZM404.169 233.09C403.251 235.842 396.734 235.108 388.38 232.356C380.027 229.603 376.172 220.153 377.09 217.4C378.008 214.648 383.515 225.199 391.869 227.86C400.222 230.612 405.087 230.337 404.169 233.09ZM419.59 225.75C413.44 224.924 408.116 223.639 403.526 222.079C400.773 221.162 398.386 220.244 396.091 219.143C390.4 216.483 386.269 213.455 383.24 210.611C383.24 210.519 383.699 209.326 383.791 209.234C384.892 206.298 386.086 203.638 387.371 201.252C388.289 199.509 389.207 197.949 390.216 196.481C403.526 176.113 422.16 177.489 422.16 177.489C434.461 190.059 433.084 226.942 433.084 226.942C430.238 226.851 427.576 226.667 425.006 226.392C422.987 226.208 421.242 225.933 419.59 225.75ZM441.07 263.918C441.07 263.918 422.252 252.174 421.61 244.742L434.644 253.183C434.644 253.183 440.886 256.486 442.263 250.889C442.355 250.43 436.664 229.97 436.664 229.97L464.018 236.668L448.23 253.55C448.23 253.55 444.191 259.514 469.159 257.312C469.25 257.22 448.689 267.863 441.07 263.918ZM469.526 208.133C468.608 210.978 466.956 212.904 465.67 212.537C464.385 212.17 464.11 209.51 465.028 206.757C465.946 203.913 467.598 201.986 468.883 202.353C470.076 202.72 470.352 205.289 469.526 208.133ZM475.676 184.554C473.748 190.793 471.086 195.564 469.893 195.197C468.608 194.83 469.25 189.416 471.178 183.177C473.106 176.938 475.768 172.167 476.961 172.534C478.246 172.901 477.604 178.315 475.676 184.554ZM507.528 259.422C499.083 257.128 493.117 254.284 493.851 251.44C494.585 248.595 498.441 251.531 506.977 253.733C515.514 256.027 525.795 250.155 525.061 252.908C524.418 255.844 516.065 261.716 507.528 259.422ZM525.061 265.844C520.012 269.881 512.852 269.056 513.862 266.762C515.606 263.092 520.012 265.661 523.776 262.908C526.805 260.615 527.631 259.514 529.375 260.89C531.211 262.174 528.641 262.908 525.061 265.844ZM531.211 240.888C527.356 242.54 522.399 243.824 516.157 244.283C513.678 244.467 511.016 244.467 508.171 244.375C503.306 244.191 497.89 243.457 491.832 242.081C490.179 241.714 488.435 241.255 486.691 240.797C484.213 240.154 481.642 239.329 478.889 238.411C478.889 238.411 490.73 203.454 506.702 196.114C506.702 196.114 524.51 201.436 529.742 225.291C530.109 227.034 530.476 228.869 530.66 230.796C531.027 233.548 531.119 236.393 531.119 239.512C531.303 239.512 531.211 240.797 531.211 240.888ZM531.119 209.418C530.293 210.427 528.365 204.28 522.582 199.325C516.799 194.463 516.249 190.609 517.075 189.6C517.901 188.591 520.196 190.334 525.979 195.197C531.762 200.151 531.945 208.409 531.119 209.418Z" fill="white" stroke="#1D1D1C" stroke-width="0.25" stroke-miterlimit="10"/>
<path d="M531.211 239.42C531.211 239.512 531.211 240.797 531.211 240.888C527.356 242.54 522.399 243.824 516.157 244.283C516.157 244.283 530.385 214.831 504.499 205.289C504.499 205.289 492.29 210.702 486.783 240.705C484.304 240.063 481.734 239.237 478.98 238.319C478.98 238.319 490.822 203.362 506.794 196.022C506.794 196.022 524.602 201.344 529.834 225.199C530.201 226.942 530.568 228.777 530.752 230.704C531.119 233.365 531.303 236.301 531.211 239.42Z" fill="#1D1D1C" stroke="#1D1D1C" stroke-width="0.25" stroke-miterlimit="10"/>
<path fill-rule="evenodd" clip-rule="evenodd" d="M516.157 244.283C513.679 244.466 511.108 244.466 508.171 244.375C508.171 244.375 514.597 228.227 507.437 224.465C507.437 224.465 507.161 224.373 506.794 224.281C506.886 224.098 506.978 224.006 506.978 223.823C507.896 221.529 507.528 219.235 506.152 218.776C504.775 218.318 503.031 219.694 502.204 221.988C501.837 223.089 501.654 224.098 501.746 225.015C498.533 226.667 494.586 230.979 491.832 242.173C490.18 241.806 488.435 241.347 486.691 240.888C492.199 210.794 504.408 205.473 504.408 205.473C530.385 214.831 516.157 244.283 516.157 244.283Z" fill="#0089CF"/>
<path d="M404.169 233.089C403.251 235.842 396.734 235.108 388.381 232.355C380.028 229.695 376.172 220.153 377.09 217.4C378.008 214.648 383.516 225.199 391.869 227.86C400.222 230.612 405.087 230.337 404.169 233.089Z" fill="#1D1D1C" stroke="#1D1D1C" stroke-width="0.25" stroke-miterlimit="10"/>
<path d="M525.153 252.999C524.418 255.843 516.065 261.716 507.62 259.422C499.175 257.128 493.209 254.284 494.035 251.439C494.769 248.595 498.625 251.531 507.161 253.733C515.514 256.027 525.887 250.155 525.153 252.999Z" fill="#1D1D1C" stroke="#1D1D1C" stroke-width="0.25" stroke-miterlimit="10"/>
<path d="M381.863 237.952C381.129 240.062 379.66 237.86 375.805 235.383C370.389 231.897 368.829 224.832 371.307 225.107C375.346 225.566 374.336 230.612 378.1 233.273C381.221 235.475 382.598 235.75 381.863 237.952Z" fill="#1D1D1C" stroke="#1D1D1C" stroke-width="0.25" stroke-miterlimit="10"/>
<path d="M525.061 265.844C520.012 269.881 512.852 269.056 513.862 266.762C515.606 263.092 520.012 265.661 523.775 262.908C526.805 260.615 527.631 259.514 529.375 260.89C531.211 262.174 528.641 262.908 525.061 265.844Z" fill="#1D1D1C" stroke="#1D1D1C" stroke-width="0.25" stroke-miterlimit="10"/>
<path d="M469.159 257.22C469.159 257.22 448.597 267.863 440.978 263.917C440.978 263.917 422.161 252.173 421.518 244.742L434.645 253.183C434.645 253.183 440.886 256.486 442.263 250.797C442.355 250.338 436.664 229.878 436.664 229.878L464.018 236.576L448.23 253.458C448.23 253.458 444.191 259.422 469.159 257.22Z" fill="#1D1D1C" stroke="#1D1D1C" stroke-width="0.25" stroke-miterlimit="10"/>
<path d="M442.722 234.466C443.824 235.383 445.751 236.851 448.689 237.585C452.36 238.594 455.39 237.952 456.767 237.585L442.722 234.466Z" fill="white"/>
<path d="M417.112 203.271C417.112 204.372 416.837 205.473 416.47 206.207C416.011 207.124 415.276 207.675 414.542 207.675C413.257 207.675 412.155 205.931 411.972 203.729C411.972 203.546 411.972 203.362 411.972 203.179C411.972 200.702 413.165 198.683 414.542 198.683C415.919 198.683 417.112 200.793 417.112 203.271Z" fill="white" stroke="#1D1D1C" stroke-width="0.25" stroke-miterlimit="10"/>
<path d="M419.59 225.749C413.44 224.924 408.116 223.639 403.527 222.079C403.527 222.079 403.251 204.647 411.329 203.729C411.329 203.729 411.604 203.729 411.972 203.821C412.155 206.023 413.165 207.766 414.542 207.766C415.276 207.766 416.01 207.216 416.469 206.298C418.948 208.867 421.059 214.372 419.59 225.749Z" fill="#1D1D1C" stroke="#1D1D1C" stroke-width="0.25" stroke-miterlimit="10"/>
<path d="M506.978 223.731C506.886 223.914 506.886 224.006 506.794 224.19C505.876 226.208 504.224 227.401 503.03 226.942C502.296 226.667 501.837 225.933 501.745 224.832C501.654 223.914 501.745 222.905 502.204 221.804C503.122 219.51 504.866 218.042 506.151 218.593C507.528 219.143 507.896 221.437 506.978 223.731Z" fill="white" stroke="#1D1D1C" stroke-width="0.25" stroke-miterlimit="10"/>
<path d="M508.171 244.375C503.306 244.191 497.89 243.457 491.832 242.081C494.494 230.979 498.441 226.575 501.745 224.924C501.837 225.933 502.296 226.759 503.03 227.034C504.315 227.493 505.876 226.3 506.794 224.281C507.253 224.373 507.436 224.465 507.436 224.465C514.688 228.135 508.171 244.375 508.171 244.375Z" fill="#1D1D1C" stroke="#1D1D1C" stroke-width="0.25" stroke-miterlimit="10"/>
<path d="M454.472 181.159C453.829 187.673 452.177 192.903 450.892 192.719C449.607 192.628 449.056 187.214 449.79 180.608C450.433 174.094 451.993 168.864 453.37 168.956C454.655 169.14 455.206 174.553 454.472 181.159Z" fill="#1D1D1C" stroke="#1D1D1C" stroke-width="0.25" stroke-miterlimit="10"/>
<path d="M401.874 176.204C397.193 180.884 393.062 181.801 392.144 180.884C391.226 179.966 393.521 176.938 398.202 172.259C402.884 167.58 409.034 167.396 409.952 168.314C410.87 169.231 406.556 171.617 401.874 176.204Z" fill="#1D1D1C" stroke="#1D1D1C" stroke-width="0.25" stroke-miterlimit="10"/>
<path d="M531.119 209.418C530.293 210.427 528.365 204.28 522.582 199.325C516.799 194.463 516.249 190.609 517.075 189.6C517.901 188.591 520.196 190.334 525.979 195.197C531.762 200.151 531.945 208.409 531.119 209.418Z" fill="#1D1D1C" stroke="#1D1D1C" stroke-width="0.25" stroke-miterlimit="10"/>
<path d="M475.676 184.554C473.749 190.793 471.087 195.564 469.893 195.197C468.608 194.83 469.251 189.416 471.178 183.086C473.106 176.847 475.768 172.076 476.961 172.443C478.155 172.901 477.604 178.315 475.676 184.554Z" fill="#1D1D1C" stroke="#1D1D1C" stroke-width="0.25" stroke-miterlimit="10"/>
<path d="M469.526 208.133C468.608 210.978 466.955 212.904 465.67 212.537C464.385 212.17 464.11 209.51 465.028 206.757C465.946 204.005 467.598 201.986 468.883 202.353C470.076 202.72 470.352 205.289 469.526 208.133Z" fill="#1D1D1C" stroke="#1D1D1C" stroke-width="0.25" stroke-miterlimit="10"/>
<path d="M450.8 205.289C450.8 208.225 449.79 210.611 448.413 210.611C447.128 210.611 446.027 208.225 446.027 205.289C446.027 202.353 447.037 199.968 448.413 199.968C449.699 199.968 450.8 202.353 450.8 205.289Z" fill="#1D1D1C" stroke="#1D1D1C" stroke-width="0.25" stroke-miterlimit="10"/>
<path d="M451.259 220.428C450.249 220.795 447.863 219.969 447.22 218.226C446.578 216.483 447.955 214.648 448.964 214.281C449.974 213.914 451.351 215.015 451.994 216.666C452.544 218.409 452.269 220.061 451.259 220.428Z" fill="#1D1D1C" stroke="#1D1D1C" stroke-width="0.25" stroke-miterlimit="10"/>
<path d="M465.212 220.428C464.202 221.988 461.907 221.988 460.989 221.345C460.071 220.795 460.163 219.052 461.173 217.492C462.183 215.932 463.743 215.198 464.661 215.84C465.487 216.483 466.13 218.868 465.212 220.428Z" fill="#1D1D1C" stroke="#1D1D1C" stroke-width="0.25" stroke-miterlimit="10"/>
<path d="M437.674 182.81C433.268 184.645 428.035 182.26 425.924 177.397C423.813 172.534 423.079 167.855 427.485 166.02C431.891 164.185 437.398 166.204 439.51 171.066C441.621 175.837 442.08 180.884 437.674 182.81Z" fill="#1D1D1C" stroke="#1D1D1C" stroke-width="0.25" stroke-miterlimit="10"/>
<path d="M497.156 190.701C492.29 192.811 487.242 193.27 485.406 188.866C483.57 184.462 485.957 179.232 490.822 177.214C495.687 175.103 500.368 174.369 502.204 178.773C504.04 183.086 502.021 188.682 497.156 190.701Z" fill="#1D1D1C" stroke="#1D1D1C" stroke-width="0.25" stroke-miterlimit="10"/>
<path d="M506.243 280.249C496.788 285.387 489.812 281.258 489.812 281.258C493.208 278.322 506.243 280.249 506.243 280.249Z" fill="#1D1D1C"/>
<path d="M397.193 261.165C387.371 258.504 383.516 251.99 383.516 251.99C387.555 252.265 397.193 261.165 397.193 261.165Z" fill="#1D1D1C"/>
<path d="M450.8 165.286C445.66 156.294 437.398 156.294 437.398 156.294C437.123 152.808 450.8 152.533 450.8 152.533C455.94 160.423 450.8 165.286 450.8 165.286Z" fill="#1D1D1C" stroke="#1D1D1C" stroke-width="0.25" stroke-miterlimit="10"/>
<path d="M494.769 166.112C487.059 163.91 481.276 168.589 481.276 168.589C480.082 167.396 484.121 163.268 486.875 160.79C488.527 159.231 491.097 159.139 492.841 160.607C495.595 162.901 494.769 166.112 494.769 166.112Z" fill="#1D1D1C" stroke="#1D1D1C" stroke-width="0.25" stroke-miterlimit="10"/>
<path d="M515.055 179.14C514.321 179.783 511.843 178.315 509.64 175.746C507.345 173.177 506.151 170.608 506.886 169.965C507.62 169.323 510.099 170.791 512.302 173.36C514.596 175.837 515.79 178.498 515.055 179.14Z" fill="#1D1D1C" stroke="#1D1D1C" stroke-width="0.25" stroke-miterlimit="10"/>
<path d="M375.988 198.408C376.264 199.601 376.814 200.702 377.365 201.803C377.916 202.904 378.558 203.913 379.293 204.922C380.027 205.931 380.762 206.849 381.588 207.766C382.414 208.684 383.24 209.51 384.158 210.335L383.699 210.794C382.873 209.877 381.955 209.051 381.22 208.042C380.394 207.124 379.752 206.115 379.017 205.014C378.375 204.005 377.732 202.904 377.182 201.803C376.631 200.702 376.172 199.509 375.896 198.316L375.988 198.408Z" fill="#1D1D1C"/>
<path d="M379.293 193.82L388.013 201.252L387.554 201.711L379.293 193.82Z" fill="#1D1D1C"/>
<path d="M382.23 189.141L390.859 196.665L390.4 197.123L382.047 189.325L382.23 189.141Z" fill="#1D1D1C"/>
<path d="M538.463 230.245C537.545 232.172 536.535 234.099 535.342 235.934C534.148 237.769 532.863 239.42 531.303 240.98L530.936 240.613C532.496 239.145 533.873 237.494 535.066 235.75C536.26 234.007 537.361 232.172 538.371 230.154L538.463 230.245Z" fill="#1D1D1C"/>
<path d="M535.342 223.823L527.081 231.713L526.622 231.163L535.342 223.823Z" fill="#1D1D1C"/>
<path d="M532.68 219.327L524.327 227.126L523.868 226.575L532.496 219.052L532.68 219.327Z" fill="#1D1D1C"/>
<path d="M417.387 268.23C420.416 270.982 423.721 273.184 427.393 274.744C429.229 275.478 431.248 275.845 432.992 276.671C433.91 277.038 434.828 277.405 435.746 277.772C436.664 278.139 437.582 278.506 438.591 278.689L441.529 279.332L444.466 279.79L445.935 280.066L447.404 280.157L450.433 280.341C452.452 280.433 454.472 280.341 456.491 280.433L462.55 279.974V280.157L456.491 280.891C454.472 280.983 452.452 281.167 450.341 281.258H447.312H445.751L444.191 281.167L441.07 280.891L438.041 280.433C437.031 280.341 436.021 280.066 435.012 279.882C434.002 279.699 432.9 279.607 431.982 279.24C430.973 278.873 429.963 278.598 429.045 278.047C428.127 277.497 427.209 276.946 426.383 276.396C424.639 275.295 422.895 274.193 421.334 272.817C419.957 271.533 418.397 270.065 417.387 268.23Z" fill="#1D1D1C"/>
<path d="M485.406 355.851C484.947 356.402 484.121 356.585 483.479 356.218C478.889 353.374 460.163 343.006 441.437 351.264C440.428 351.722 439.51 352.181 438.683 352.64C427.852 358.237 427.118 364.567 428.219 368.696C428.678 370.44 429.504 371.816 429.963 372.55C430.238 372.917 430.606 373.1 431.065 373.192L440.703 374.201L441.437 374.293C441.437 374.293 448.505 379.89 462.274 376.954C462.458 376.954 462.55 376.954 462.733 376.954L472.922 377.871C472.922 377.871 480.633 378.789 485.59 370.256C487.426 367.137 486.232 362.274 486.783 356.31C486.875 355.576 486.875 354.842 486.875 354.108C486.324 354.658 485.865 355.301 485.406 355.851ZM441.437 374.11C442.447 364.568 445.935 359.521 445.935 359.521C445.935 359.521 442.447 364.659 441.437 374.11ZM462.55 376.77C468.425 366.494 467.507 356.952 467.507 356.952C467.507 356.952 468.516 366.494 462.55 376.77Z" fill="#999999" stroke="#1D1D1C" stroke-width="0.2513" stroke-miterlimit="10"/>
<path d="M494.126 338.878C493.117 342.639 491.005 349.612 487.517 354.75C486.783 355.76 486.691 356.585 486.416 358.237C486.416 358.237 463.376 342.823 441.529 351.998C440.519 352.457 439.601 352.824 438.683 353.282C438.683 351.539 438.683 349.612 438.867 347.41C439.142 347.502 439.417 347.686 439.693 347.777C439.693 347.777 444.099 333.648 447.679 333.648C447.679 333.648 447.679 333.006 447.862 331.996C465.211 329.244 480.082 333.097 488.16 336.125C491.005 337.318 493.117 338.327 494.126 338.878Z" fill="#808485" stroke="#1D1D1C" stroke-width="0.2495" stroke-miterlimit="10"/>
<path d="M485.59 374.477C485.498 374.293 485.406 374.018 485.314 373.743C484.396 370.898 480.082 353.741 511.475 358.879C540.574 363.65 528.641 376.403 524.418 380.165C523.592 380.899 522.674 381.358 521.573 381.541C519.278 381.908 514.964 382.367 511.384 380.807C510.466 380.44 509.456 380.257 508.446 380.349C506.06 380.716 501.286 381.083 497.247 379.982C492.107 378.605 489.17 381.908 485.59 374.477Z" fill="#B3B2B1" stroke="#1D1D1C" stroke-width="0.25" stroke-miterlimit="10"/>
<path d="M497.431 368.329C497.431 368.329 492.658 372.458 495.595 379.706L497.431 368.329Z" fill="#B3B2B1"/>
<path d="M497.431 368.329C497.339 368.604 497.156 368.788 496.972 368.971C496.789 369.155 496.697 369.338 496.513 369.522C496.238 369.981 495.962 370.348 495.779 370.806C495.32 371.724 495.044 372.641 494.953 373.651C494.861 374.66 494.861 375.669 495.044 376.678C495.136 377.137 495.228 377.688 495.412 378.146C495.595 378.605 495.779 379.064 495.871 379.523L495.412 379.706C495.228 379.247 495.044 378.697 494.953 378.238C494.861 377.688 494.677 377.229 494.677 376.678C494.494 375.669 494.585 374.568 494.677 373.559C494.861 372.55 495.136 371.54 495.595 370.623C495.779 370.164 496.146 369.705 496.421 369.338C496.605 369.155 496.697 368.88 496.88 368.696C496.972 368.604 497.064 368.513 497.156 368.421C497.156 368.421 497.247 368.329 497.431 368.329Z" fill="#1D1D1C"/>
<path d="M512.761 370.531C512.761 370.531 509.456 373.376 509.548 380.257L512.761 370.531Z" fill="#B3B2B1"/>
<path d="M512.761 370.531C512.302 371.357 511.843 371.999 511.384 372.733C511.017 373.467 510.649 374.293 510.374 375.119C510.099 375.945 510.007 376.77 509.823 377.688C509.731 378.514 509.64 379.431 509.64 380.257H509.181C509.181 379.339 509.181 378.514 509.272 377.596C509.364 376.679 509.548 375.853 509.823 375.027C510.099 374.201 510.374 373.376 510.833 372.55C511.475 371.724 511.934 370.898 512.761 370.531Z" fill="#1D1D1C"/>
<path d="M467.323 356.86C467.323 356.86 469.158 366.035 462.641 376.77L467.323 356.86Z" fill="#B3B2B1"/>
<path d="M467.323 356.86C467.782 357.686 467.69 358.604 467.782 359.429C467.782 360.347 467.782 361.173 467.69 362.09C467.598 363.833 467.323 365.577 466.864 367.32C466.405 368.971 465.854 370.715 465.211 372.274C464.936 373.1 464.477 373.834 464.11 374.66C463.743 375.394 463.284 376.22 462.825 376.954L462.549 376.77C462.916 376.036 463.375 375.302 463.834 374.476C464.202 373.651 464.569 372.917 464.936 372.091C465.67 370.531 466.129 368.88 466.588 367.228C467.047 365.577 467.323 363.833 467.414 362.09C467.506 361.264 467.506 360.347 467.506 359.521C467.323 358.604 467.139 357.778 467.323 356.86Z" fill="#1D1D1C"/>
<path d="M446.486 358.696C446.486 358.696 442.814 360.989 441.345 374.293L446.486 358.696Z" fill="#B3B2B1"/>
<path d="M446.486 358.696C446.118 359.338 445.751 359.797 445.384 360.439C445.017 360.989 444.742 361.632 444.466 362.274C443.915 363.558 443.456 364.843 443.181 366.219C442.447 368.88 441.988 371.632 441.621 374.385H441.345C441.529 373.009 441.621 371.632 441.896 370.256C442.08 368.88 442.447 367.504 442.722 366.127C443.089 364.751 443.548 363.467 444.099 362.182C444.374 361.54 444.742 360.898 445.109 360.347C445.384 359.613 445.751 358.879 446.486 358.696Z" fill="#1D1D1C"/>
<path d="M424.639 337.318L423.262 352.64L438.592 353.19L438.5 348.052C435.287 346.768 429.596 343.281 424.639 337.318Z" fill="#005576" stroke="#1D1D1C" stroke-width="0.25" stroke-miterlimit="10"/>
<path d="M422.803 360.255C420.325 362.366 420.784 361.815 419.774 364.568C419.59 365.485 419.682 366.403 419.866 367.32C419.957 367.779 420.141 368.238 420.233 368.605L420.784 369.889L420.6 369.981L419.957 368.696C419.774 368.238 419.59 367.779 419.498 367.32C419.315 366.403 419.223 365.393 419.315 364.476C419.59 362.549 420.967 360.898 422.619 360.072L422.803 360.255Z" fill="#1D1D1C"/>
<path d="M411.604 302.177C411.604 302.177 409.677 314.105 416.928 326.124" stroke="#1D1D1C" stroke-width="0.25" stroke-miterlimit="10"/>
<path d="M450.708 304.379C452.269 310.435 447.955 326.858 447.496 333.739" stroke="#1D1D1C" stroke-width="0.25" stroke-miterlimit="10"/>
<path d="M494.035 355.759C497.431 349.612 503.581 332.547 503.857 331.721C503.857 331.721 503.857 331.721 503.857 331.629L512.026 302.361C512.026 302.177 512.118 302.086 512.026 301.902C511.567 300.067 508.63 288.69 507.62 289.699L506.794 290.617C506.702 290.8 506.61 290.984 506.519 291.167C506.06 295.021 501.562 334.198 495.228 341.722C495.136 341.813 495.044 341.997 495.044 342.18L493.117 355.392C493.117 355.943 493.759 356.218 494.035 355.759Z" fill="#D9D9D9"/>
<path d="M340.648 375.761L382.873 375.486L389.757 371.449C389.757 371.449 378.467 364.659 369.104 368.329C359.741 371.999 350.103 369.889 350.103 369.889C350.103 369.889 336.976 372.458 335.599 365.485C334.222 358.512 333.029 356.677 333.029 356.677C333.029 356.677 322.748 368.696 340.648 375.761Z" fill="#ECECEB"/>
<path d="M478.154 375.027C478.154 375.027 470.903 379.156 463.559 375.119C463.1 374.935 462.641 374.843 462.182 374.935C459.061 375.302 447.587 376.311 443.181 373.834C442.814 373.559 442.355 373.467 441.804 373.467C439.509 373.467 432.992 373.284 430.33 371.173C428.861 369.981 428.494 368.513 428.494 367.228C428.494 365.76 429.596 364.567 431.064 364.384C435.562 363.925 446.486 363.191 452.911 367.136C460.346 371.724 470.444 370.898 472.188 370.715C472.371 370.715 472.555 370.623 472.739 370.623L476.594 369.43C477.053 369.247 477.604 369.247 478.063 369.338C478.889 369.522 479.898 369.981 479.623 370.806C479.164 372.366 478.154 375.027 478.154 375.027Z" fill="#ECECEB"/>
<path d="M520.655 379.523C520.655 379.523 515.882 382.092 510.833 379.798C510.558 379.706 510.191 379.615 509.915 379.706C507.804 379.982 500.185 380.716 497.156 379.339C496.88 379.248 496.605 379.156 496.238 379.156C494.677 379.156 490.271 379.156 488.527 377.963C487.518 377.321 487.242 376.403 487.242 375.669C487.242 374.843 487.977 374.11 488.894 373.926C491.924 373.559 499.267 373.008 503.581 375.21C508.63 377.78 515.423 377.137 516.616 377.046C516.708 377.046 516.891 377.045 516.983 376.954L519.553 376.22C519.829 376.128 520.196 376.128 520.563 376.128C521.114 376.22 521.848 376.495 521.665 376.954C521.206 377.963 520.655 379.523 520.655 379.523Z" fill="#ECECEB"/>
<path d="M404.628 343.19C404.628 343.19 403.251 355.759 396.917 364.751" stroke="#1D1D1C" stroke-width="0.25" stroke-miterlimit="10"/>
<path d="M401.507 315.481C401.507 315.481 392.236 337.134 395.541 340.621L404.261 342.823L413.165 318.325C413.165 318.325 410.319 310.16 411.421 302.269L401.507 315.481Z" fill="#ECECEB"/>
<path d="M388.564 269.423C397.744 274.469 463.835 294.287 499.634 288.598C501.286 288.323 501.47 290.158 501.103 291.167C499.726 295.388 495.595 301.994 484.672 299.517C470.26 296.305 452.177 296.122 452.177 296.122C452.177 296.122 427.668 289.975 403.71 287.314C402.609 287.222 401.507 286.855 400.497 286.213L391.593 280.891C391.318 280.708 391.134 280.524 391.043 280.249C390.492 278.781 388.656 274.102 387.095 274.102C386.178 274.102 385.627 273.276 385.902 272.45L386.637 270.248C387.004 269.423 387.83 269.056 388.564 269.423Z" fill="#ECECEB"/>
<path d="M466.038 287.773C433.543 302.269 420.416 285.571 416.653 278.965C424.272 280.891 432.258 281.717 440.519 281.442C443.732 281.35 453.462 285.295 466.038 287.773Z" fill="#5B5A5A" stroke="#1D1D1C" stroke-width="0.25" stroke-miterlimit="10"/>
<path d="M417.755 369.705C418.213 369.705 418.672 369.614 419.131 369.522C419.407 369.43 419.774 369.43 420.049 369.522C421.793 369.889 428.035 371.357 428.035 370.898C428.035 370.623 427.944 369.522 427.76 368.604C427.668 367.687 426.842 366.953 425.924 366.953C424.088 366.953 421.243 366.861 419.866 366.127C419.59 365.944 419.223 365.852 418.856 365.944C418.489 365.944 418.122 366.035 417.571 366.035C415.184 366.127 415.368 369.797 417.755 369.705Z" fill="#ECECEB"/>
<path d="M425.648 323.372C432.138 323.372 437.398 318.114 437.398 311.628C437.398 305.142 432.138 299.884 425.648 299.884C419.159 299.884 413.899 305.142 413.899 311.628C413.899 318.114 419.159 323.372 425.648 323.372Z" fill="url(#paint0_linear_163_899)"/>
<path d="M425.741 315.481C428.174 315.481 430.147 313.674 430.147 311.444C430.147 309.214 428.174 307.407 425.741 307.407C423.307 307.407 421.334 309.214 421.334 311.444C421.334 313.674 423.307 315.481 425.741 315.481Z" fill="#FBEA1F"/>
<path d="M421.977 308.967C420.875 308.967 419.866 309.242 419.04 309.701C419.774 309.334 420.692 309.15 421.518 309.15C424.823 309.15 427.485 311.628 427.485 314.655C427.485 316.674 426.291 318.509 424.455 319.426C426.475 318.509 427.943 316.674 427.943 314.472C427.943 311.444 425.281 308.967 421.977 308.967Z" fill="url(#paint1_linear_163_899)"/>
<path d="M423.537 308.233C422.161 308.233 420.875 308.692 419.958 309.334C420.875 308.783 421.977 308.508 423.17 308.508C426.475 308.508 429.412 311.077 429.412 314.105C429.412 315.848 428.494 317.408 427.026 318.325C428.678 317.316 429.779 315.665 429.779 313.83C429.688 310.71 426.842 308.233 423.537 308.233Z" fill="url(#paint2_linear_163_899)"/>
<path d="M422.711 308.6C422.069 308.6 421.426 308.692 420.875 308.875C421.243 308.783 421.702 308.783 422.069 308.783C425.373 308.783 428.311 311.352 428.311 314.38C428.311 316.766 426.475 318.876 423.996 319.518C426.75 318.968 428.862 316.857 428.862 314.197C428.953 311.169 426.016 308.6 422.711 308.6Z" fill="url(#paint3_linear_163_899)"/>
<path d="M429.412 308.967C430.514 308.967 431.524 309.242 432.35 309.701C431.615 309.334 430.697 309.15 429.871 309.15C426.567 309.15 423.905 311.628 423.905 314.655C423.905 316.674 425.098 318.509 426.934 319.426C424.914 318.509 423.446 316.674 423.446 314.472C423.446 311.444 426.108 308.967 429.412 308.967Z" fill="url(#paint4_linear_163_899)"/>
<path d="M427.852 308.233C429.229 308.233 430.514 308.692 431.432 309.334C430.514 308.783 429.412 308.508 428.219 308.508C424.914 308.508 421.977 311.077 421.977 314.105C421.977 315.848 422.895 317.408 424.364 318.325C422.711 317.316 421.61 315.665 421.61 313.83C421.702 310.71 424.547 308.233 427.852 308.233Z" fill="url(#paint5_linear_163_899)"/>
<path d="M428.678 308.6C429.321 308.6 429.963 308.692 430.514 308.875C430.147 308.783 429.688 308.783 429.321 308.783C426.016 308.783 423.079 311.352 423.079 314.38C423.079 316.766 424.915 318.876 427.393 319.518C424.639 318.968 422.528 316.857 422.528 314.197C422.436 311.169 425.374 308.6 428.678 308.6Z" fill="url(#paint6_linear_163_899)"/>
<path d="M422.987 307.407C423.17 307.315 423.446 307.223 423.629 307.132C423.446 306.948 423.079 306.398 422.987 305.939C422.803 305.388 422.62 304.746 421.793 304.471C421.793 304.471 422.252 305.021 422.436 305.939C422.528 306.673 422.895 307.223 422.987 307.407Z" fill="#FBEA1F"/>
<path d="M423.446 305.572C423.446 306.306 423.629 306.856 423.721 307.132C423.905 307.04 424.18 306.948 424.364 306.948C424.272 306.765 423.997 306.122 423.905 305.664C423.813 305.113 423.813 304.471 422.987 304.104C423.079 304.012 423.538 304.654 423.446 305.572Z" fill="#FBEA1F"/>
<path d="M424.455 305.297C424.271 305.939 424.455 306.581 424.455 306.857C424.639 306.765 424.914 306.765 425.189 306.765C425.098 306.49 424.914 305.939 425.006 305.48C425.006 304.93 425.098 304.288 424.363 303.829C424.363 303.737 424.73 304.471 424.455 305.297Z" fill="#FBEA1F"/>
<path d="M421.518 306.49C421.702 307.132 422.161 307.682 422.344 307.866C422.528 307.682 422.711 307.591 422.895 307.499C422.711 307.315 422.252 306.857 422.069 306.398C421.793 305.939 421.518 305.297 420.692 305.113C420.692 305.205 421.334 305.664 421.518 306.49Z" fill="#FBEA1F"/>
<path d="M420.692 307.132C420.967 307.774 421.518 308.233 421.702 308.324C421.885 308.141 422.069 308.049 422.161 307.866C421.977 307.682 421.426 307.315 421.151 306.948C420.784 306.489 420.416 305.939 419.59 305.939C419.682 305.939 420.325 306.306 420.692 307.132Z" fill="#FBEA1F"/>
<path d="M420.6 310.343C420.692 310.159 420.692 309.884 420.784 309.701C420.508 309.609 419.866 309.517 419.407 309.334C418.856 309.058 418.305 308.691 417.479 309.058C417.479 309.058 418.213 309.15 419.039 309.701C419.682 310.159 420.325 310.343 420.6 310.343Z" fill="#FBEA1F"/>
<path d="M425.649 306.765C425.74 306.765 425.832 306.765 426.016 306.765C426.016 306.49 425.924 305.847 426.016 305.48C426.108 304.93 426.291 304.288 425.649 303.737C425.649 303.737 425.832 304.471 425.465 305.297C425.19 305.939 425.19 306.581 425.281 306.857C425.465 306.765 425.557 306.765 425.649 306.765Z" fill="#FBEA1F"/>
<path d="M419.498 308.783C420.049 309.334 420.6 309.609 420.875 309.701C420.967 309.517 421.059 309.334 421.243 309.15C420.967 309.059 420.325 308.783 419.957 308.508C419.498 308.141 418.948 307.774 418.122 307.957C418.122 307.957 418.856 308.141 419.498 308.783Z" fill="#FBEA1F"/>
<path d="M420.049 307.958C420.508 308.508 421.059 308.875 421.243 309.059C421.334 308.875 421.518 308.692 421.702 308.508C421.426 308.416 420.875 308.049 420.6 307.774C420.233 307.407 419.774 306.857 418.856 306.948C418.764 306.857 419.499 307.224 420.049 307.958Z" fill="#FBEA1F"/>
<path d="M428.494 307.499C428.678 307.591 428.861 307.774 429.045 307.866C429.137 307.682 429.504 307.132 429.871 306.765C430.33 306.398 430.789 305.939 430.697 305.205C430.697 305.205 430.422 305.847 429.596 306.398C428.953 306.765 428.586 307.224 428.494 307.499Z" fill="#FBEA1F"/>
<path d="M432.166 309.517C431.432 309.517 430.789 309.701 430.514 309.793C430.605 309.976 430.697 310.16 430.697 310.435C430.973 310.343 431.615 310.068 432.074 310.068C432.625 309.976 433.359 309.976 433.818 309.242C433.818 309.15 433.176 309.517 432.166 309.517Z" fill="#FBEA1F"/>
<path d="M430.146 309.058C430.238 309.242 430.422 309.425 430.514 309.609C430.697 309.517 431.34 309.15 431.799 308.967C432.35 308.783 433.084 308.691 433.359 307.866C433.359 307.866 432.717 308.324 431.799 308.416C430.973 308.6 430.422 308.967 430.146 309.058Z" fill="#FBEA1F"/>
<path d="M432.441 310.435C431.707 310.251 431.064 310.435 430.789 310.526C430.881 310.71 430.881 310.985 430.881 311.169C431.156 311.077 431.799 310.985 432.258 310.985C432.809 310.985 433.543 311.077 434.094 310.435C434.094 310.343 433.359 310.618 432.441 310.435Z" fill="#FBEA1F"/>
<path d="M432.35 311.903C432.9 311.995 433.635 312.178 434.277 311.628C434.277 311.628 433.543 311.811 432.625 311.444C431.891 311.169 431.248 311.261 430.973 311.261C430.973 311.352 430.973 311.444 430.973 311.628C430.973 311.719 430.973 311.811 430.973 311.995C431.156 311.903 431.891 311.811 432.35 311.903Z" fill="#FBEA1F"/>
<path d="M428.402 307.407C428.494 307.132 428.769 306.581 429.045 306.214C429.412 305.755 429.871 305.297 429.596 304.471C429.596 304.471 429.412 305.205 428.678 305.755C428.127 306.214 427.852 306.765 427.76 307.04C427.943 307.223 428.127 307.315 428.402 307.407Z" fill="#FBEA1F"/>
<path d="M418.856 310.71C419.498 311.077 420.233 311.169 420.416 311.169C420.416 310.985 420.508 310.71 420.508 310.527C420.233 310.527 419.498 310.435 419.131 310.343C418.581 310.16 417.938 309.884 417.204 310.343C417.295 310.343 418.03 310.251 418.856 310.71Z" fill="#FBEA1F"/>
<path d="M426.107 306.765C426.383 306.765 426.566 306.857 426.842 306.857C426.842 306.581 426.934 305.939 427.025 305.572C427.209 305.113 427.484 304.471 427.025 303.829C427.025 303.829 427.117 304.563 426.566 305.297C426.199 305.847 426.199 306.49 426.107 306.765Z" fill="#FBEA1F"/>
<path d="M429.137 307.958C429.32 308.141 429.504 308.233 429.596 308.416C429.779 308.233 430.238 307.682 430.605 307.499C431.064 307.224 431.707 306.857 431.707 306.031C431.707 306.031 431.248 306.673 430.422 307.04C429.779 307.224 429.32 307.774 429.137 307.958Z" fill="#FBEA1F"/>
<path d="M429.688 308.508C429.871 308.692 429.963 308.875 430.146 309.059C430.33 308.875 430.881 308.508 431.248 308.325C431.799 308.141 432.441 307.866 432.625 307.04C432.625 307.04 432.074 307.591 431.156 307.866C430.422 307.866 429.871 308.325 429.688 308.508Z" fill="#FBEA1F"/>
<path d="M427.668 307.04C427.76 306.765 427.852 306.122 428.127 305.755C428.402 305.297 428.769 304.746 428.402 304.012C428.402 304.012 428.31 304.746 427.76 305.388C427.301 305.939 427.117 306.581 427.025 306.765C427.209 306.948 427.393 307.04 427.668 307.04Z" fill="#FBEA1F"/>
<path d="M428.402 315.756C428.219 315.848 427.943 315.94 427.76 316.032C427.943 316.215 428.311 316.766 428.402 317.224C428.586 317.775 428.769 318.417 429.596 318.692C429.596 318.692 429.137 318.142 428.953 317.224C428.861 316.49 428.494 315.94 428.402 315.756Z" fill="#FBEA1F"/>
<path d="M429.871 316.674C429.687 316.032 429.228 315.481 429.045 315.298C428.861 315.481 428.678 315.573 428.494 315.665C428.678 315.848 429.137 316.307 429.32 316.766C429.596 317.224 429.871 317.867 430.697 318.05C430.697 317.958 430.055 317.5 429.871 316.674Z" fill="#FBEA1F"/>
<path d="M426.934 317.867C427.117 317.224 426.934 316.582 426.842 316.307C426.658 316.399 426.383 316.399 426.107 316.399C426.199 316.674 426.383 317.224 426.291 317.683C426.291 318.234 426.199 318.876 426.934 319.335C427.025 319.335 426.658 318.692 426.934 317.867Z" fill="#FBEA1F"/>
<path d="M430.697 315.94C430.422 315.298 429.871 314.839 429.687 314.747C429.504 314.931 429.32 315.022 429.229 315.206C429.412 315.389 429.963 315.756 430.238 316.123C430.605 316.582 430.973 317.133 431.799 317.133C431.707 317.133 431.064 316.766 430.697 315.94Z" fill="#FBEA1F"/>
<path d="M427.943 317.591C427.943 316.857 427.76 316.307 427.668 316.031C427.484 316.123 427.209 316.215 427.025 316.215C427.117 316.398 427.393 317.041 427.484 317.5C427.576 318.05 427.576 318.692 428.402 319.059C428.31 319.059 427.852 318.509 427.943 317.591Z" fill="#FBEA1F"/>
<path d="M430.789 312.729C430.697 312.912 430.697 313.187 430.605 313.371C430.881 313.463 431.523 313.554 431.982 313.738C432.533 314.013 433.084 314.288 433.91 314.013C433.91 314.013 433.084 313.921 432.35 313.371C431.707 313.004 430.973 312.82 430.789 312.729Z" fill="#FBEA1F"/>
<path d="M425.649 316.399C425.557 316.399 425.373 316.399 425.281 316.399C425.281 316.674 425.373 317.316 425.281 317.683C425.19 318.234 425.006 318.876 425.649 319.426C425.649 319.426 425.465 318.692 425.832 317.867C426.108 317.224 426.108 316.582 426.016 316.307C425.924 316.399 425.832 316.399 425.649 316.399Z" fill="#FBEA1F"/>
<path d="M432.533 312.453C431.891 312.086 431.156 311.995 430.881 311.995C430.881 312.178 430.789 312.453 430.789 312.637C431.064 312.637 431.799 312.729 432.166 312.82C432.717 313.004 433.359 313.279 434.094 312.82C434.094 312.82 433.359 312.912 432.533 312.453Z" fill="#FBEA1F"/>
<path d="M431.891 314.38C431.34 313.83 430.789 313.554 430.514 313.554C430.422 313.738 430.33 313.921 430.146 314.105C430.422 314.197 431.064 314.472 431.432 314.655C431.891 315.022 432.441 315.389 433.267 315.206C433.267 315.206 432.533 315.022 431.891 314.38Z" fill="#FBEA1F"/>
<path d="M431.34 315.206C430.881 314.655 430.33 314.288 430.146 314.105C430.055 314.288 429.871 314.472 429.688 314.655C429.963 314.747 430.514 315.114 430.881 315.389C431.248 315.756 431.707 316.307 432.625 316.215C432.625 316.215 431.891 315.94 431.34 315.206Z" fill="#FBEA1F"/>
<path d="M423.721 316.031C423.629 316.307 423.537 316.949 423.262 317.316C422.987 317.775 422.619 318.325 422.987 319.059C422.987 319.059 423.078 318.325 423.629 317.683C424.088 317.132 424.272 316.49 424.363 316.307C424.18 316.215 423.904 316.123 423.721 316.031Z" fill="#FBEA1F"/>
<path d="M419.223 313.646C419.957 313.646 420.6 313.463 420.875 313.371C420.784 313.187 420.692 313.004 420.692 312.729C420.416 312.82 419.774 313.096 419.315 313.096C418.764 313.187 418.03 313.187 417.571 313.921C417.571 314.013 418.213 313.646 419.223 313.646Z" fill="#FBEA1F"/>
<path d="M421.702 314.655C421.518 314.472 421.426 314.288 421.243 314.105C421.059 314.288 420.508 314.655 420.049 314.839C419.499 315.022 418.856 315.298 418.672 316.123C418.672 316.123 419.223 315.573 420.141 315.389C420.967 315.206 421.426 314.839 421.702 314.655Z" fill="#FBEA1F"/>
<path d="M421.151 314.013C421.059 313.83 420.967 313.646 420.784 313.463C420.6 313.554 419.957 313.921 419.498 314.013C418.948 314.197 418.213 314.288 417.938 315.114C417.938 315.114 418.581 314.655 419.498 314.564C420.325 314.472 420.967 314.197 421.151 314.013Z" fill="#FBEA1F"/>
<path d="M418.948 312.729C419.682 312.912 420.325 312.729 420.6 312.729C420.508 312.545 420.508 312.27 420.508 312.086C420.233 312.178 419.59 312.27 419.131 312.27C418.58 312.27 417.846 312.178 417.295 312.82C417.204 312.729 417.938 312.545 418.948 312.729Z" fill="#FBEA1F"/>
<path d="M422.252 315.206C422.069 315.022 421.885 314.931 421.793 314.747C421.61 314.931 421.151 315.481 420.784 315.665C420.325 315.94 419.682 316.307 419.682 317.133C419.682 317.133 420.141 316.49 420.967 316.123C421.61 315.848 422.069 315.389 422.252 315.206Z" fill="#FBEA1F"/>
<path d="M425.19 316.399C424.914 316.399 424.731 316.307 424.455 316.307C424.455 316.582 424.363 317.224 424.272 317.591C424.088 318.05 423.813 318.692 424.272 319.335C424.272 319.335 424.18 318.601 424.731 317.867C425.098 317.224 425.19 316.674 425.19 316.399Z" fill="#FBEA1F"/>
<path d="M422.987 315.756C422.895 316.032 422.62 316.582 422.344 316.949C421.977 317.408 421.518 317.867 421.793 318.692C421.793 318.692 421.977 317.958 422.711 317.408C423.262 316.949 423.538 316.399 423.629 316.123C423.446 315.94 423.17 315.848 422.987 315.756Z" fill="#FBEA1F"/>
<path d="M418.764 311.719C419.498 311.994 420.141 311.903 420.416 311.903C420.416 311.811 420.416 311.719 420.416 311.627C420.416 311.536 420.416 311.444 420.416 311.26C420.141 311.26 419.407 311.352 419.039 311.26C418.489 311.169 417.754 310.985 417.112 311.536C417.112 311.536 417.938 311.352 418.764 311.719Z" fill="#FBEA1F"/>
<path d="M422.895 315.665C422.711 315.573 422.528 315.389 422.344 315.298C422.252 315.481 421.885 316.032 421.518 316.399C421.059 316.766 420.6 317.224 420.692 317.958C420.692 317.958 420.967 317.316 421.794 316.766C422.344 316.399 422.803 315.848 422.895 315.665Z" fill="#FBEA1F"/>
</g>
</g>
<defs>
<linearGradient id="paint0_linear_163_899" x1="437.287" y1="313.651" x2="414.084" y2="309.557" gradientUnits="userSpaceOnUse">
<stop offset="0.00840336" stop-color="#CE1A17"/>
<stop offset="0.5168" stop-color="#AC1917"/>
<stop offset="1" stop-color="#CE1A17"/>
</linearGradient>
<linearGradient id="paint1_linear_163_899" x1="419.025" y1="314.208" x2="427.966" y2="314.208" gradientUnits="userSpaceOnUse">
<stop stop-color="#CE1A17"/>
<stop offset="1" stop-color="#CE1A17"/>
</linearGradient>
<linearGradient id="paint2_linear_163_899" x1="419.909" y1="313.242" x2="429.732" y2="313.242" gradientUnits="userSpaceOnUse">
<stop stop-color="#CE1A17"/>
<stop offset="1" stop-color="#CE1A17"/>
</linearGradient>
<linearGradient id="paint3_linear_163_899" x1="420.912" y1="314.079" x2="428.95" y2="314.079" gradientUnits="userSpaceOnUse">
<stop stop-color="#CE1A17"/>
<stop offset="1" stop-color="#CE1A17"/>
</linearGradient>
<linearGradient id="paint4_linear_163_899" x1="423.434" y1="314.208" x2="432.375" y2="314.208" gradientUnits="userSpaceOnUse">
<stop stop-color="#CE1A17"/>
<stop offset="1" stop-color="#CE1A17"/>
</linearGradient>
<linearGradient id="paint5_linear_163_899" x1="421.668" y1="313.242" x2="431.491" y2="313.242" gradientUnits="userSpaceOnUse">
<stop stop-color="#CE1A17"/>
<stop offset="1" stop-color="#CE1A17"/>
</linearGradient>
<linearGradient id="paint6_linear_163_899" x1="422.451" y1="314.079" x2="430.489" y2="314.079" gradientUnits="userSpaceOnUse">
<stop stop-color="#CE1A17"/>
<stop offset="1" stop-color="#CE1A17"/>
</linearGradient>
<clipPath id="clip0_163_899">
<rect width="646" height="399" fill="white" transform="matrix(-1 0 0 1 646 0)"/>
</clipPath>
<clipPath id="clip1_163_899">
<rect width="302" height="238" fill="white" transform="translate(330 144)"/>
</clipPath>
</defs>
</svg>
