<svg width="659" height="376" viewBox="0 0 659 376" fill="none" xmlns="http://www.w3.org/2000/svg">
<path d="M1 365H657.3" stroke="black" stroke-width="1.5" stroke-miterlimit="10" stroke-linecap="round"/>
<path d="M251.5 375.4H407" stroke="black" stroke-width="0.75" stroke-miterlimit="10" stroke-linecap="round"/>
<path d="M429.4 375.4H536.1" stroke="black" stroke-width="0.75" stroke-miterlimit="10" stroke-linecap="round"/>
<g clip-path="url(#clip0_275_200)">
<path d="M583.122 327.962C583.122 327.962 589.219 322.212 587.878 315.361C587.878 315.361 592.268 319.643 590.926 324.047C590.926 324.047 595.561 319.398 601.048 320.866C601.048 320.866 596.78 325.271 596.658 328.696C596.658 328.696 598.731 327.106 603 330.287C603 330.287 596.048 331.388 594.585 334.569L583.122 327.962Z" fill="#A2C037"/>
<path d="M585.561 345.213C581.293 345.213 574.585 344.846 567.878 344.723C564.707 344.723 561.414 344.723 558.488 344.846C553.975 345.09 541.658 344.356 530.561 343.622C519.463 342.888 509.585 342.154 509.585 342.154C509.585 342.154 509.097 339.218 511.536 335.792C513.975 332.367 516.049 330.898 517.39 326.005C518.732 321.111 522.634 292.116 522.634 292.116L531.293 292.483L581.414 294.562C581.414 294.562 581.536 295.664 581.658 297.499C582.146 304.105 583.488 320.255 584.585 325.026C585.927 331.021 587.39 329.43 591.049 331.143C594.707 332.856 595.439 336.771 595.439 336.771L578.244 338.606C582.634 340.931 585.561 345.213 585.561 345.213Z" fill="#9C897A"/>
<path d="M504.219 340.196C504.219 348.149 487.146 347.782 487.146 347.782C487.146 347.782 481.171 350.106 471.536 351.819C468.853 355.245 459.951 355.979 455.805 353.899C455.683 353.899 455.561 353.777 455.439 353.654C454.341 352.92 453.488 351.697 452.878 350.351C450.073 350.596 447.268 350.229 445.317 349.372C444.097 348.76 443.122 347.537 442.634 345.947C441.902 345.824 441.171 345.58 440.561 345.335C437.146 343.622 436.902 336.404 440.195 334.813C443.488 333.223 449.341 333.957 449.341 333.957C449.341 333.957 473.244 321.233 476.049 316.707C476.049 316.707 493.488 316.095 499.585 317.685C499.951 317.808 500.317 317.93 500.683 318.052C500.927 318.175 501.171 318.297 501.414 318.419C501.658 318.786 504.341 332.489 504.219 340.196Z" fill="#E28B5A"/>
<path d="M453 350.229C453 350.229 452.634 346.681 454.829 344.846C457.024 343.01 461.536 343.622 461.536 343.622C461.536 343.622 465.805 341.298 465.927 340.319C466.048 339.218 460.805 342.399 460.805 342.399C460.805 342.399 458.366 341.665 455.073 343.133C451.78 344.479 452.024 350.473 452.024 350.473L453 350.229Z" fill="#C16B40"/>
<path d="M442.756 345.824C442.756 345.824 442.878 342.643 444.585 340.564C446.414 338.484 450.561 338.484 450.561 338.484C450.561 338.484 452.878 337.138 452.756 336.282C452.634 335.425 449.707 337.627 449.707 337.627C449.707 337.627 445.195 337.138 443.122 339.585C441.048 342.032 441.536 345.457 441.536 345.457L442.756 345.824Z" fill="#C16B40"/>
<path d="M447.146 340.808C447.146 340.808 447.634 342.399 450.683 342.154C453.731 341.909 452.878 341.175 451.902 340.563C450.926 340.074 447.146 339.095 447.146 340.808Z" fill="#C16B40"/>
<path d="M441.049 335.303C441.049 335.303 441.293 336.771 444.22 336.404C447.146 336.037 444.707 334.691 443.366 334.691C442.146 334.446 441.049 335.303 441.049 335.303Z" fill="#C16B40"/>
<path d="M459.463 344.846C459.463 344.846 457.39 344.846 458 346.069C458.488 347.292 461.78 348.149 463.366 347.659C464.829 347.048 461.049 344.968 459.463 344.846Z" fill="#C16B40"/>
<path d="M495.927 318.052C495.927 318.052 498.732 321.6 498.975 326.249C499.097 330.898 496.78 333.223 496.78 333.223C496.78 333.223 498 330.654 495.561 325.515C493 320.499 495.927 318.052 495.927 318.052Z" fill="#C16B40"/>
<path d="M504.219 340.196C504.219 348.149 487.146 347.782 487.146 347.782C487.146 347.782 481.171 350.106 471.537 351.819C468.854 355.245 459.951 355.979 455.805 353.899C455.683 353.899 455.561 353.777 455.439 353.654C458 353.777 462.024 353.777 464.951 352.675C469.829 350.84 470.317 349.617 470.317 349.617C470.317 349.617 479.219 349.739 483.488 346.436C487.756 343.01 496.537 343.744 499.951 341.175C503.122 338.851 500.195 320.255 499.707 317.441C499.707 317.196 499.585 317.074 499.585 317.074L500.683 317.808L501.415 318.297C501.658 318.786 504.341 332.489 504.219 340.196Z" fill="#C16B40"/>
<path d="M567.878 344.723C564.707 344.723 561.414 344.723 558.487 344.846C553.975 345.09 541.658 344.356 530.561 343.622L531.292 292.483L581.414 294.562C581.414 294.562 581.536 295.664 581.658 297.499C573.243 299.212 560.682 302.759 555.804 308.999C549.951 316.217 561.902 336.037 567.878 344.723Z" fill="#897668"/>
<path d="M527.146 292.483C527.024 292.605 526.902 292.605 526.78 292.727C522.512 294.929 516.536 295.296 511.292 295.052C510.195 295.052 508.975 294.929 508 294.807C503.366 294.44 499.951 293.706 499.951 293.706L504.951 317.93L498.975 318.297H498.244L495.561 321.6L490.195 319.643L485.561 321.233H481.049L475.683 322.824L473 320.499L468.244 321.356L471.17 316.339C471.17 316.339 463.61 270.338 483.61 269.115C485.805 268.993 487.878 268.993 490.073 268.993C507.756 269.482 524.219 275.966 524.219 275.966C526.17 276.7 527.878 276.578 529.219 276.089C531.902 275.355 533.244 273.152 533.244 273.152C533.244 273.152 536.17 287.589 527.146 292.483Z" fill="#7C4F40"/>
<path d="M545.439 341.909C543.975 350.106 526.292 346.681 526.292 346.681C526.292 346.681 519.707 348.026 509.341 348.026C505.927 351.085 496.536 350.229 492.512 347.292C492.39 347.17 492.268 347.17 492.146 347.048C491.049 346.069 490.439 344.601 490.073 343.133C487.146 342.888 484.219 342.032 482.39 340.686C481.171 339.829 480.439 338.361 480.195 336.649C479.463 336.404 478.732 336.037 478.122 335.547C474.829 333.101 475.927 325.515 479.585 324.537C483.366 323.436 489.341 325.271 489.341 325.271C489.341 325.271 516.536 316.34 520.317 312.18C520.317 312.18 538.61 314.749 544.707 317.441C545.073 317.563 545.439 317.808 545.805 318.052C546.049 318.297 546.292 318.419 546.414 318.664C546.658 319.031 546.902 333.835 545.439 341.909Z" fill="#FFAC79"/>
<path d="M524.341 276.211C524.341 276.211 507.878 269.727 490.195 269.237C493.609 272.418 501.292 279.881 504.463 286.121C505.317 287.834 506.048 289.302 506.536 290.525L493.488 288.812L498 298.6L493.488 296.031C493.488 296.031 493.731 296.887 496.17 303.861C498 308.999 498.609 315.238 498.853 318.175L504.829 317.808L499.829 293.584C499.829 293.584 503.244 294.318 507.878 294.685C508.488 294.685 509.219 294.807 509.951 294.807C510.195 294.807 510.561 294.807 510.805 294.807C510.927 294.807 511.048 294.807 511.17 294.807C516.414 295.052 522.39 294.685 526.658 292.483L529.219 276.211C528 276.823 526.292 276.823 524.341 276.211Z" fill="#603D36"/>
<path d="M490.195 343.133C490.195 343.133 490.439 339.34 493.122 337.75C495.805 336.159 500.317 337.627 500.317 337.627C500.317 337.627 505.195 336.037 505.561 334.936C505.805 333.835 499.829 336.159 499.829 336.159C499.829 336.159 497.39 334.936 493.731 335.792C489.951 336.649 489.219 342.888 489.219 342.888L490.195 343.133Z" fill="#E28B5A"/>
<path d="M480.317 336.649C480.317 336.649 480.927 333.345 483.244 331.51C485.561 329.675 489.829 330.531 489.829 330.531C489.829 330.531 492.512 329.553 492.512 328.696C492.512 327.84 489.097 329.553 489.097 329.553C489.097 329.553 484.463 328.207 481.902 330.409C479.341 332.489 479.219 336.282 479.219 336.282L480.317 336.649Z" fill="#E28B5A"/>
<path d="M485.805 332.122C485.805 332.122 486.049 333.957 489.219 334.202C492.512 334.446 491.658 333.59 490.683 332.734C489.951 331.999 486.171 330.287 485.805 332.122Z" fill="#E28B5A"/>
<path d="M480.439 325.271C480.439 325.271 480.439 326.739 483.61 326.983C486.658 327.228 484.463 325.271 483.122 325.026C481.78 324.659 480.439 325.271 480.439 325.271Z" fill="#E28B5A"/>
<path d="M498 338.606C498 338.606 495.805 338.239 496.171 339.585C496.536 340.931 499.829 342.399 501.536 342.154C503.244 341.787 499.585 338.973 498 338.606Z" fill="#E28B5A"/>
<path d="M540.927 317.196C540.927 317.196 543.244 321.478 542.512 326.372C541.78 331.265 538.976 333.223 538.976 333.223C538.976 333.223 540.683 330.776 539.098 325.026C537.39 319.276 540.927 317.196 540.927 317.196Z" fill="#E28B5A"/>
<path d="M545.439 341.909C543.975 350.106 526.292 346.681 526.292 346.681C526.292 346.681 519.707 348.026 509.341 348.026C505.926 351.085 496.536 350.229 492.512 347.292C492.39 347.17 492.268 347.17 492.146 347.048C494.829 347.659 498.975 348.393 502.268 347.782C507.756 346.803 508.366 345.58 508.366 345.58C508.366 345.58 517.634 347.415 522.634 344.601C527.634 341.787 536.658 344.234 540.683 342.154C544.341 340.319 544.707 320.377 544.707 317.318C544.707 317.074 544.707 316.951 544.707 316.951L545.805 317.93L546.414 318.542C546.658 319.031 546.902 333.835 545.439 341.909Z" fill="#E28B5A"/>
<path d="M600.561 281.716C600.561 281.716 590.805 281.472 587.878 277.557C587.878 277.557 586.171 283.307 581.902 285.509L577.878 278.78L573 285.509C573 285.509 569.951 283.552 568.976 280.004C568.976 280.004 560.073 285.264 557.39 290.647C557.39 290.647 552.634 285.631 552.634 280.248C552.634 280.248 547.878 287.834 543.976 289.424V289.669C543.854 289.669 543.61 289.669 543.488 289.546C543.366 289.546 543.244 289.669 543.122 289.669V289.546C539.097 288.323 533.61 281.349 533.61 281.349C534.097 286.732 529.951 292.238 529.951 292.238C526.658 287.1 517.268 282.818 517.268 282.818C516.658 286.365 513.854 288.69 513.854 288.69L508.366 282.573L505.073 289.669C500.683 287.834 498.366 282.451 498.366 282.451C495.805 286.733 486.171 287.956 486.171 287.956L490.561 280.738C490.561 280.738 478.122 238.407 478.61 201.092C478.732 193.018 479.463 185.31 480.927 178.214C480.927 178.092 480.927 177.969 481.049 177.847C481.415 176.379 481.78 174.911 482.146 173.565C489.463 147.873 505.561 138.086 515.927 134.415H516.049C511.78 130.867 512.024 126.341 512.024 126.341C515.317 128.665 524.341 129.032 524.341 129.032C521.537 124.505 523.732 119 523.732 119C526.293 123.527 535.073 127.564 535.073 127.564C532.878 125.362 533.488 121.814 533.488 121.814C537.268 125.974 543.732 129.399 546.537 130.745C551.78 130.745 579.219 132.825 593.122 167.448C608.488 205.864 595.561 274.988 595.561 274.988L600.561 281.716Z" fill="#AF7354"/>
<path d="M466.902 221.524L484.585 226.54L512.512 218.587C512.512 218.587 518.244 249.051 518.61 255.657L493.732 263.365L475.073 258.349L466.902 221.524Z" fill="#FFDE50"/>
<path d="M543.366 188.369C543.366 190.204 542.878 191.794 542.024 193.262C537.268 201.092 521.415 200.848 521.415 200.848C521.415 200.848 522.756 216.385 508.61 216.385C493.61 216.997 494.707 202.193 494.707 202.193C494.707 202.193 485.683 203.294 478.976 200.725C479.098 192.895 479.707 185.188 481.293 178.214C481.293 177.969 481.415 177.602 481.415 177.358C490.195 172.953 502.268 172.097 506.049 171.975C505.927 171.975 543.366 168.549 543.366 188.369Z" fill="#FFAC79"/>
<path d="M506.902 199.38C506.902 199.38 508.244 195.465 506.414 195.342C504.585 195.22 503.853 197.422 503.853 197.422C503.853 197.422 502.512 195.22 500.073 195.954C497.634 196.566 500.073 200.358 500.073 200.358L506.902 199.38Z" fill="#AF7354"/>
<path d="M513.366 187.145C513.366 191.55 515.683 194.975 518.61 194.975C521.536 194.975 523.854 191.427 523.854 187.145C523.854 182.741 521.536 179.315 518.61 179.315C515.683 179.315 513.366 182.741 513.366 187.145Z" fill="#3F3E3E"/>
<path d="M488 231.311L491.049 239.386L493.732 238.652L491.902 234.003L493.366 235.226L493.732 233.269L495.439 237.918L497.634 237.061L494.829 228.987L493 229.843L492.512 232.535L490.317 230.699L488 231.311Z" fill="#D8BD4A"/>
<path d="M496.049 230.21L498.488 232.657L498.732 236.817L500.683 236.205L501.049 228.62L499.342 229.354V231.433L497.39 229.843L496.049 230.21Z" fill="#D8BD4A"/>
<path d="M501.658 228.375L502.146 230.699L504.097 229.965L504.951 234.737L507.146 233.88L506.414 229.354L507.512 228.987L507.268 226.417L501.658 228.375Z" fill="#D8BD4A"/>
<path d="M507.878 225.806L509.097 233.391L510.927 232.657L510.561 229.843L511.415 229.476L511.902 232.412L513.488 231.678L512.39 224.215L510.683 225.071L510.927 227.885L509.951 228.13L509.341 225.439L507.878 225.806Z" fill="#D8BD4A"/>
<path d="M520.439 185.922C521.314 185.922 522.024 184.881 522.024 183.597C522.024 182.313 521.314 181.273 520.439 181.273C519.563 181.273 518.854 182.313 518.854 183.597C518.854 184.881 519.563 185.922 520.439 185.922Z" fill="#868686"/>
<path d="M490.561 197.789C493.457 197.789 495.805 194.283 495.805 189.959C495.805 185.635 493.457 182.129 490.561 182.129C487.665 182.129 485.317 185.635 485.317 189.959C485.317 194.283 487.665 197.789 490.561 197.789Z" fill="#3F3E3E"/>
<path d="M490.805 186.411C490.805 187.757 491.536 188.736 492.39 188.736C493.244 188.736 493.975 187.634 493.975 186.411C493.975 185.065 493.244 184.087 492.39 184.087C491.414 184.087 490.805 185.188 490.805 186.411Z" fill="#868686"/>
<path d="M515.927 205.252C515.927 205.252 515.927 202.683 514.341 202.56C512.756 202.438 513.366 206.108 513.366 206.108L515.927 205.252Z" fill="white"/>
<path d="M499.219 206.231C499.219 206.231 499.219 203.661 500.805 203.539C502.39 203.417 501.78 207.087 501.78 207.087L499.219 206.231Z" fill="white"/>
<path d="M484.585 226.54L493.854 263.243L474.097 258.716L466.902 221.524L484.585 226.54Z" fill="#D8BD4A"/>
<path d="M517.39 203.539C517.39 203.539 514.707 206.842 507.878 207.209C501.049 207.577 497.512 205.374 497.512 205.374C497.512 205.374 500.439 210.146 505.805 210.023C511.171 209.901 516.293 207.087 517.39 203.539Z" fill="#AF7354"/>
<path d="M523.732 235.348C523.732 235.348 521.171 230.21 517.268 228.008C513.244 225.806 509.585 226.417 508.488 227.763C507.39 229.109 508.732 230.577 509.829 231.433C510.927 232.29 515.073 233.268 515.073 233.268L515.927 234.492C515.927 234.492 512.146 233.024 508.488 233.268C504.829 233.513 505.073 237.061 505.927 238.04C506.78 239.141 511.049 239.875 511.049 239.875L513.244 241.343C513.244 241.343 509.829 240.976 507.39 241.098C504.951 241.221 504.219 242.689 504.829 244.402C505.317 245.992 510.195 246.237 510.195 246.237C510.195 246.237 515.561 252.966 522.512 251.742C529.219 250.641 527.024 237.673 523.732 235.348Z" fill="#FFAC79"/>
<path d="M574.097 219.933C574.097 221.034 573.854 222.013 573.366 223.114C571.658 227.029 569.219 231.678 566.049 235.715C566.049 235.715 565.317 256.881 545.927 259.817C526.537 262.753 520.927 250.886 520.927 250.886L523.366 248.561L521.902 246.482L523.732 245.136L521.902 242.322L524.341 241.221L521.78 234.859C521.78 234.859 530.073 227.151 542.634 228.13C551.658 228.864 554.951 233.146 554.951 233.146L558.61 218.098C559.585 214.183 563.366 211.614 567.39 212.103H567.512C571.415 212.837 574.097 216.263 574.097 219.933Z" fill="#93604A"/>
<path d="M578 296.275C567.634 299.823 549.341 292.483 549.341 292.483L550.073 318.664L543 317.93L539.585 320.989L538.122 320.132L534.341 317.93L529.219 318.664L524.585 317.93L518.732 318.664L516.414 315.85H511.292L515.195 311.201C515.195 311.201 515.561 261.897 536.658 264.221C557.756 266.546 577.756 278.78 577.756 278.78C580.683 280.371 583.122 280.126 584.951 279.392C586.658 278.658 587.634 277.557 587.634 277.557C587.634 277.557 588.366 292.727 578 296.275Z" fill="#93604A"/>
<path d="M559.098 345.213C559.098 345.213 556.659 337.505 553.976 335.425C553.976 335.425 558.61 336.037 561.415 338.606V329.43C561.415 329.43 564.707 332.978 565.561 337.994C565.561 337.994 567.146 334.936 570.927 334.569C570.927 334.569 567.756 342.032 568.244 345.09H559.098V345.213Z" fill="#A2C037"/>
<path d="M464.951 244.035C464.951 244.035 464.097 239.753 465.561 235.715C467.024 231.678 473.61 230.577 475.805 232.534C478 234.492 475.805 236.694 474.585 237.306C473.366 238.04 470.927 239.141 470.927 239.141L471.049 239.753C471.049 239.753 476.293 238.285 478.244 240.364C480.195 242.444 476.171 245.38 472.39 245.38L472.634 246.482C472.634 246.482 476.049 244.646 478 246.482C479.951 248.317 473.61 250.764 473.61 250.764L474.585 254.801C474.341 254.923 465.927 252.354 464.951 244.035Z" fill="#E28B5A"/>
<path d="M545.195 158.761C545.195 158.761 547.39 166.469 554.219 168.182L553.853 161.086C553.853 161.086 557.024 163.778 560.439 164.267L560.073 160.352C560.073 160.352 563.122 161.942 566.536 162.309L565.317 157.293C565.317 157.293 567.512 159.74 572.146 159.74L568.366 149.83V156.559C568.366 156.559 565.073 153.99 563.244 151.054C563.244 151.054 562.146 155.214 563.366 159.251L558.488 153.623C558.488 153.623 557.268 157.171 558.488 161.086L551.902 155.703C551.902 155.703 550.561 158.639 551.78 162.432L545.195 158.761Z" fill="#995E44"/>
<path d="M561.049 260.184C561.049 260.184 561.537 268.136 567.878 271.195L568.976 264.221C568.976 264.221 571.537 267.525 574.829 268.748L575.317 264.833C575.317 264.833 578 267.035 581.171 268.014L580.927 262.876C580.927 262.876 582.634 265.689 587.146 266.668L585.439 256.269L584.098 262.876C584.098 262.876 581.415 259.695 580.195 256.391C580.195 256.391 578.244 260.184 578.61 264.466L574.951 257.982C574.951 257.982 573.122 261.163 573.366 265.2L568.244 258.471C568.244 258.471 566.293 261.04 566.781 265.078L561.049 260.184Z" fill="#995E44"/>
<path d="M543.366 188.369C543.366 190.204 542.878 191.794 542.024 193.262C542.024 181.64 537.024 177.725 519.463 174.421C504.951 171.608 487.878 176.257 481.17 178.459C481.17 178.214 481.292 177.847 481.292 177.602C490.073 173.198 502.146 172.342 505.927 172.219C505.927 171.975 543.366 168.549 543.366 188.369Z" fill="#FFCBAE"/>
<path d="M536.171 211.614C536.171 211.614 539.585 213.816 542.512 214.55L542.146 211.491C542.146 211.491 544.341 212.47 546.171 212.96L546.414 210.146C546.414 210.146 548.122 211.247 549.097 211.369L548.975 208.678C548.975 208.678 550.561 209.656 551.78 209.901L551.049 204.396L550.195 207.943L547.512 205.741L547.634 209.779L544.341 206.965L544.707 211.491L540.317 208.8V211.614C540.317 211.614 536.902 210.39 535.317 209.656C535.317 209.534 535.439 211.124 536.171 211.614Z" fill="#995E44"/>
<path d="M577.878 181.517C577.878 181.517 581.536 183.964 584.829 184.698L584.341 181.273C584.341 181.273 586.78 182.374 588.731 182.863L589.097 179.805C589.097 179.805 591.048 181.028 592.146 181.15L592.024 178.214C592.024 178.214 593.731 179.315 595.073 179.56L594.219 173.443L593.244 177.235L590.317 174.789L590.439 179.193L586.78 176.134L587.146 181.15L582.268 178.214V181.273C582.268 181.273 578.487 179.927 576.658 179.071C576.902 179.193 577.024 181.028 577.878 181.517Z" fill="#995E44"/>
<path d="M511.78 162.799C511.78 162.799 509.463 166.102 506.902 167.815L506.171 164.756C506.171 164.756 504.463 166.469 503 167.57L501.78 165.123C501.78 165.123 500.561 166.836 499.707 167.203L498.853 164.634C498.853 164.634 497.756 166.102 496.658 166.714L495.317 161.331L497.39 164.267L499.097 161.208L500.439 165.001L502.512 161.208L503.853 165.613L507.024 161.575L508 164.145C508 164.145 510.805 161.82 512.024 160.474C511.78 160.474 512.268 162.065 511.78 162.799Z" fill="#995E44"/>
<path d="M578 296.275C567.634 299.823 549.341 292.483 549.341 292.483L550.073 318.664L543 317.93L539.585 320.989L538.122 320.132C538.975 318.297 540.073 315.116 539.951 312.058L541.902 313.893C541.902 313.893 544.219 305.084 544.341 296.031C544.463 287.222 542.512 283.307 542.39 283.062C542.512 283.185 545.073 285.264 553.731 288.812C562.634 292.483 580.805 287.467 582.878 284.653C583.975 283.062 584.585 280.982 584.829 279.392C586.536 278.658 587.512 277.557 587.512 277.557C587.512 277.557 588.365 292.727 578 296.275Z" fill="#7C4F40"/>
<path d="M535.073 127.564C535.073 127.564 532.024 128.787 528.488 126.585C524.951 124.383 523.731 119 523.731 119C523.731 119 531.17 126.708 535.073 127.564Z" fill="#DB9D82"/>
<path d="M524.463 128.665C524.463 128.665 521.293 130.623 518.61 130.256C516.049 129.888 512.024 125.974 512.024 125.974L524.463 128.665Z" fill="#DB9D82"/>
<path d="M574.097 219.933C574.097 221.034 573.854 222.013 573.366 223.114C571.658 227.029 569.219 231.678 566.049 235.715C566.049 235.715 565.317 256.881 545.927 259.817C526.537 262.753 520.927 250.886 520.927 250.886C520.927 250.886 529.341 254.189 537.39 254.312C545.317 254.434 547.756 252.721 547.878 252.599L546.293 256.514C546.293 256.514 555.805 253.944 559.219 246.849C562.756 239.753 562.756 234.859 562.756 234.859C562.756 234.859 566.537 229.843 568.244 223.359C569.585 218.465 566.78 214.305 567.268 212.225H567.39C571.415 212.837 574.097 216.263 574.097 219.933Z" fill="#7C4F40"/>
<path d="M555.073 233.024C555.073 233.024 558.609 236.694 559.341 237.795C559.341 237.795 559.707 232.535 555.804 229.598L555.073 233.024Z" fill="#7C4F40"/>
<path d="M504.463 243.912C504.463 243.912 510.317 244.402 511.171 245.258C513.244 247.46 514.707 247.338 517.878 249.051C521.049 250.764 521.049 250.764 521.049 250.764L521.78 251.987C521.78 251.987 518 252.232 513.854 249.785C509.585 247.338 509.951 246.359 509.951 246.359C509.951 246.359 504.829 246.726 504.463 243.912Z" fill="#E28B5A"/>
<path d="M505.439 237.428C505.439 237.428 508.61 237.795 510.805 238.652C513 239.386 513.122 241.588 513.122 241.588L510.927 240.12C510.927 239.875 505.927 239.875 505.439 237.428Z" fill="#E28B5A"/>
<path d="M508 229.109C508 229.109 511.171 230.21 513.244 230.699C515.317 231.189 516.171 233.391 516.659 234.247C517.146 235.104 517.146 235.104 517.146 235.104L515.805 234.492L514.951 233.269C514.951 233.391 508.366 232.412 508 229.109Z" fill="#E28B5A"/>
<path d="M518.244 236.205C518.244 236.205 520.805 238.162 521.292 238.162C521.902 238.162 520.439 235.226 518.244 236.205Z" fill="#E28B5A"/>
<path d="M515.683 241.955C515.683 241.955 518.731 243.668 519.097 243.668C519.463 243.668 518.244 240.976 515.683 241.955Z" fill="#E28B5A"/>
<path d="M484.585 226.54C484.585 226.54 498.365 219.444 503.609 218.098C508.975 216.752 511.048 218.954 511.048 218.954L484.585 226.54Z" fill="#FFF5D7"/>
<path d="M468.122 221.891C468.122 221.891 468.975 220.545 472.024 220.423C475.073 220.3 485.317 226.173 485.317 226.173L484.585 226.54L468.122 221.891Z" fill="#E0D0A9"/>
<path d="M523.731 271.929C523.731 271.929 523.731 274.865 526.902 275.844C530.073 276.823 535.439 272.296 535.439 272.296L530.317 272.663L531.292 271.195C531.292 271.195 525.561 271.929 524.951 270.094L523.731 271.929Z" fill="#7C4F40"/>
<path d="M516.171 134.048C515.805 134.293 508 138.208 499.219 146.894C489.707 156.315 483.488 176.501 483.488 176.501L481.292 177.847C481.292 177.725 481.292 177.602 481.414 177.48C481.78 176.012 482.146 174.544 482.512 173.198C489.707 147.384 505.805 137.719 516.171 134.048Z" fill="#DB9D82"/>
<path d="M578.244 338.484C578.244 338.484 572.512 336.649 570.927 331.021C569.341 325.393 575.927 332 583.122 333.223C590.439 334.446 593.853 333.835 595.317 336.649L578.244 338.484Z" fill="#897668"/>
</g>
<g clip-path="url(#clip1_275_200)">
<path opacity="0.27" d="M205.102 365C243.953 365 275.448 359.926 275.448 353.667C275.448 347.407 243.953 342.333 205.102 342.333C166.251 342.333 134.756 347.407 134.756 353.667C134.756 359.926 166.251 365 205.102 365Z" fill="#B9B8A7"/>
<path d="M258.107 222.225C261.551 239.471 268.315 255.978 278.031 270.638C280.367 274.21 280.244 279.014 277.416 282.341C275.571 284.558 273.603 286.652 271.267 288.377C266.839 291.457 260.936 293.058 256.017 290.841C252.45 289.239 249.868 285.913 247.531 282.587C241.013 273.348 235.11 263.616 231.297 252.899C227.485 242.181 226.009 230.601 228.223 219.514C238.307 217.667 248.392 219.391 258.107 222.225Z" fill="#90A4AE"/>
<path d="M266.47 242.551C265.118 228.877 257.985 217.051 246.547 209.536C242.858 207.072 239.291 213.109 243.104 215.572C262.166 228.014 265.979 257.333 251.467 274.703C249.745 276.797 251.959 280.616 254.664 278.768C265.487 271.377 267.7 254.87 266.47 242.551Z" fill="#01579B"/>
<path d="M199.199 294.413C197.477 304.391 203.872 314 210.144 322.993C215.555 330.754 221.09 338.884 221.705 347.384C221.828 350.217 224.41 352.558 228.223 353.42C232.158 354.283 236.339 354.775 239.906 354.775C242.612 354.775 245.686 354.406 247.162 352.804C248.638 351.203 246.547 348.369 244.087 349.109C244.579 337.775 246.424 324.717 252.696 314.369L199.199 294.413Z" fill="#90A4AE"/>
<path d="M153.818 213.478C152.957 221.978 152.096 230.355 151.235 238.855C149.514 256.717 149.145 274.826 150.62 292.688C151.727 306.362 158.245 321.761 170.175 329.399C183.211 337.652 198.83 336.42 213.588 334.326C227.977 332.232 245.686 330.014 256.509 319.42C265.486 310.674 266.347 297.986 264.748 286.283C261.92 265.464 257.615 244.891 254.172 224.072C224.41 236.638 182.35 228.384 153.818 213.478Z" fill="#B0BEC5"/>
<path d="M249.991 197.464H155.417C154.925 202.761 154.31 208.181 153.818 213.478C182.35 228.507 224.41 236.638 254.049 224.072C253.434 220.377 252.819 216.804 252.327 213.109C251.466 207.812 250.729 202.638 249.991 197.464Z" fill="#90A4AE"/>
<path d="M154.433 298.478C152.711 308.457 159.106 318.065 165.379 327.058C170.79 334.819 176.324 342.949 176.939 351.449C177.062 354.283 179.645 356.623 183.457 357.486C187.392 358.348 191.574 358.841 195.14 358.841C197.846 358.841 200.921 358.471 202.396 356.87C203.872 355.268 201.781 352.435 199.322 353.174C199.814 341.841 201.658 328.906 207.931 318.435L154.433 298.478Z" fill="#B0BEC5"/>
<path d="M185.793 251.667C183.088 234.174 169.56 207.935 149.391 206.826C146.193 206.703 144.84 211.507 147.669 212.985C154.433 216.312 160.336 218.775 165.378 224.688C171.036 231.217 175.094 239.594 177.308 247.848C180.136 257.949 179.521 268.79 170.913 275.812C164.517 281.109 156.032 283.326 148.284 285.667C144.102 286.899 145.824 293.058 150.005 292.072C171.036 287.145 189.606 275.935 185.793 251.667Z" fill="#01579B"/>
<path d="M184.653 306.449L190.404 268.323L118.17 257.391L112.419 295.517L184.653 306.449Z" fill="#7B1FA2"/>
<path d="M183.648 305.524L189.399 267.398L119.597 256.833L113.847 294.96L183.648 305.524Z" fill="#FFEBEE"/>
<path d="M185.441 301.236L191.192 263.11L118.959 252.178L113.208 290.304L185.441 301.236Z" fill="#8E24AA"/>
<path d="M185.718 299.693L191.23 263.15L118.997 252.218L113.485 288.76L185.718 299.693Z" fill="#AB47BC"/>
<path d="M174.848 249.449C165.993 267.188 161.074 286.899 160.459 306.732C155.294 308.333 150.006 309.935 144.594 309.812C139.183 309.565 133.526 307.101 131.066 302.297C129.222 298.725 129.222 294.659 129.467 290.594C129.959 279.261 131.312 267.928 134.879 257.21C138.445 246.493 144.348 236.391 152.957 229C162.058 233.681 168.945 241.196 174.848 249.449Z" fill="#B0BEC5"/>
<path d="M151.235 160.138C140.659 152.254 126.024 149.543 114.095 154.964C102.165 160.384 94.2944 174.674 97.9839 187.239C101.919 201.036 116.8 208.674 124.548 220.746C128.484 226.906 130.697 234.297 135.986 239.101C141.889 244.398 150.866 245.507 158.122 242.551C165.501 239.594 171.036 233.065 173.741 225.674C176.447 218.283 176.447 210.029 174.725 202.268L151.235 160.138Z" fill="#B0BEC5"/>
<path d="M153.572 171.471C144.102 164.696 130.82 162.355 119.998 167.036C109.175 171.717 102.042 184.036 105.363 195C108.929 206.949 122.457 213.478 129.467 223.949C133.034 229.246 135.002 235.652 139.921 239.841C145.209 244.399 153.326 245.384 159.967 242.797C166.608 240.333 171.65 234.667 174.11 228.261C176.57 221.855 176.57 214.71 174.971 208.058L153.572 171.471Z" fill="#EF9A9A"/>
<path d="M159.844 193.152C157.262 186.746 147.423 185.514 141.151 185.638C134.018 185.761 125.532 187.978 122.212 194.877C121.966 195.369 122.58 195.985 123.072 195.493C131.804 185.884 147.915 187.978 157.385 195C158.491 195.862 160.336 194.507 159.844 193.152Z" fill="#E57373"/>
<path d="M160.951 196.478C158.246 192.413 152.465 197.587 150.252 199.804C146.316 203.746 143.734 208.674 142.75 214.094C142.627 214.71 143.488 215.203 143.857 214.587C145.578 210.891 147.669 207.442 150.375 204.362C151.604 203.007 152.711 201.775 154.187 200.667C156.278 199.065 158 198.819 160.459 198.08C160.951 197.833 161.32 197.094 160.951 196.478Z" fill="#E57373"/>
<path d="M163.411 202.268C160.336 202.761 158.122 206.21 156.647 208.674C154.925 211.63 154.31 214.833 154.187 218.283C154.187 218.775 154.925 218.898 155.048 218.406C155.663 215.326 157.016 212.493 158.737 209.906C160.336 207.565 163.042 205.964 164.395 203.623C164.764 202.761 164.149 202.145 163.411 202.268Z" fill="#E57373"/>
<path d="M216.908 135.746C221.213 123.304 231.789 112.71 244.702 110.493C257.615 108.152 272.127 115.543 276.186 127.985C280.736 141.659 272.619 156.319 273.111 170.732C273.357 178 275.694 185.391 273.972 192.413C272.127 200.051 265.24 206.087 257.616 207.812C249.868 209.536 241.628 207.319 235.233 202.761C228.838 198.203 224.164 191.428 221.336 184.036L216.908 135.746Z" fill="#B0BEC5"/>
<path d="M221.458 146.464C225.517 135.5 235.11 126.014 246.67 123.797C258.23 121.58 271.021 127.739 274.464 138.58C278.277 150.529 270.775 163.464 270.898 176.152C270.898 182.558 272.988 188.964 271.267 195.123C269.422 201.899 263.273 207.196 256.386 208.92C249.499 210.645 242.12 208.797 236.462 204.855C230.805 200.913 226.87 195.123 224.41 188.717L221.458 146.464Z" fill="#EF9A9A"/>
<path d="M228.469 167.898C226.87 161.123 234.372 154.471 239.537 151.145C245.44 147.326 253.803 144.246 260.321 148.065C260.813 148.312 260.567 149.174 259.952 149.051C247.285 146.094 235.233 156.935 231.42 168.022C231.051 169.377 228.838 169.254 228.469 167.898Z" fill="#E57373"/>
<path d="M229.453 171.225C229.453 166.297 237.078 167.406 240.152 167.898C245.563 168.884 250.483 171.471 254.418 175.413C254.91 175.906 254.418 176.768 253.803 176.398C250.36 174.304 246.67 172.58 242.612 171.594C240.89 171.225 239.168 170.855 237.447 170.732C234.741 170.485 233.265 171.348 230.805 172.087C230.191 172.333 229.453 171.964 229.453 171.225Z" fill="#E57373"/>
<path d="M230.559 177.384C233.388 176.029 237.2 177.63 239.783 178.862C242.857 180.341 245.194 182.681 247.285 185.391C247.531 185.761 247.039 186.254 246.67 186.007C244.456 183.79 241.628 182.188 238.799 181.08C236.093 180.094 233.019 180.341 230.559 179.109C229.821 178.616 229.944 177.63 230.559 177.384Z" fill="#E57373"/>
<path d="M229.944 209.659C213.342 222.717 188.499 224.565 170.544 213.355C152.588 202.145 143.119 178.616 149.145 158.29C155.048 137.964 176.324 123.058 197.354 125.152C218.384 127.246 236.585 146.34 236.954 167.529C237.077 179.109 251.466 186.254 261.182 192.536C265.855 195.616 271.021 198.08 276.555 198.819C282.089 199.558 287.992 198.449 292.42 195C296.847 191.551 299.184 185.391 297.585 180.094C295.986 174.797 289.837 170.978 284.549 172.58C283.073 172.087 282.458 170.362 282.704 168.884C282.95 167.406 284.426 166.174 286.024 166.174C283.565 163.71 286.147 157.304 289.345 156.072C292.543 154.84 296.601 157.674 296.478 161.123C308.653 168.145 317.262 180.71 318.123 194.754C318.861 208.797 304.103 220.254 290.206 222.225C262.412 226.29 239.291 214.587 229.944 209.659Z" fill="#B0BEC5"/>
<path d="M203.626 185.268C203.38 184.529 203.134 183.79 202.765 183.174C202.396 182.188 202.027 181.326 201.289 180.587C199.814 179.355 196.862 179.478 196.493 181.819C196.124 183.79 196.985 185.884 197.723 187.732C198.338 189.21 200.428 189.58 201.658 189.087C203.257 188.348 204.118 186.746 203.626 185.268Z" fill="#212121"/>
<path d="M231.789 174.674C231.543 173.935 231.297 173.319 230.928 172.58C230.559 171.594 230.19 170.732 229.452 169.993C227.977 168.761 225.025 168.884 224.656 171.225C224.287 173.196 225.148 175.29 225.886 177.138C226.501 178.616 228.592 178.986 229.821 178.493C231.42 177.877 232.281 176.275 231.789 174.674Z" fill="#212121"/>
<path d="M192.066 155.456C190.344 154.225 187.515 155.21 185.793 156.072C183.826 157.058 182.227 158.536 181.366 160.63C180.874 161.862 181.981 163.464 183.334 162.601C184.81 161.616 186.162 160.63 187.761 160.014C189.237 159.399 191.205 159.275 192.435 158.167C193.295 157.304 192.926 156.072 192.066 155.456Z" fill="#212121"/>
<path d="M221.459 147.942C221.336 147.326 220.721 146.71 220.106 146.587C217.4 145.848 214.695 146.587 212.604 148.558C211.251 149.913 212.973 152.377 214.695 151.268C215.801 150.529 217.154 150.159 218.507 150.283C219.491 150.406 220.229 150.652 220.967 149.913C221.582 149.297 221.582 148.681 221.459 147.942Z" fill="#212121"/>
<path d="M244.948 188.964C239.414 188.348 234.618 195 234.249 199.927C234.126 201.406 236.585 202.145 237.2 200.79C238.061 198.696 239.045 196.848 240.644 195.123C242.119 193.522 244.087 192.536 245.809 191.181C246.67 190.196 245.932 188.964 244.948 188.964Z" fill="#90A4AE"/>
<path d="M254.541 197.464C253.188 198.942 252.819 200.913 252.573 202.761C252.327 204.485 251.958 206.333 252.696 208.058C253.065 208.797 254.049 208.427 254.295 207.812C254.91 206.21 254.787 204.485 255.156 202.761C255.525 201.283 256.14 199.681 256.263 198.203C256.14 197.34 255.033 196.848 254.541 197.464Z" fill="#90A4AE"/>
<path d="M269.914 204.116C269.668 203.377 268.807 203.13 268.192 203.623C266.593 205.101 267.208 208.181 267.577 210.029C267.823 211.138 269.545 210.891 269.545 209.783C269.545 208.797 269.668 207.812 269.791 206.826C270.037 205.964 270.283 204.978 269.914 204.116Z" fill="#90A4AE"/>
<path d="M282.089 203.87C281.72 203.13 280.613 203.254 280.244 203.87C279.753 204.732 279.876 205.717 280.121 206.703C280.367 207.688 280.859 208.304 281.597 209.043C282.089 209.536 282.827 209.043 282.704 208.428C282.458 206.826 282.704 205.225 282.089 203.87Z" fill="#90A4AE"/>
<path d="M293.896 201.159C292.912 201.036 292.051 202.145 292.912 202.884C294.019 203.993 295.125 205.101 296.724 205.225C297.093 205.225 297.462 204.855 297.462 204.485C297.339 202.514 295.617 201.406 293.896 201.159Z" fill="#90A4AE"/>
<path d="M305.333 194.507C304.103 193.029 301.766 193.275 300.29 194.261C299.552 194.754 299.798 196.109 300.782 196.109C301.889 196.109 302.75 196.848 303.734 197.217C304.226 197.464 304.964 197.217 305.333 196.848C305.456 196.725 305.456 196.601 305.579 196.478C305.948 195.862 305.702 195 305.333 194.507Z" fill="#90A4AE"/>
<path d="M307.055 183.174C306.563 181.942 304.472 181.819 303.242 181.942C301.889 182.065 300.782 182.804 300.044 183.913C299.676 184.529 300.29 185.022 300.905 185.022C302.135 184.899 303.488 184.775 304.841 185.022C305.579 185.145 306.317 185.391 306.932 184.775C307.3 184.283 307.3 183.667 307.055 183.174Z" fill="#90A4AE"/>
<path d="M302.381 171.101C302.135 170.116 301.151 169.5 300.167 169.623C299.061 169.746 298.2 170.239 297.708 171.225C297.216 172.333 298.446 173.196 299.306 172.456C299.675 172.087 300.167 172.087 300.659 172.087C300.782 172.087 301.151 171.964 301.397 171.964C301.52 171.964 301.889 171.964 302.012 171.964C302.258 171.964 302.504 171.471 302.381 171.101Z" fill="#90A4AE"/>
<path d="M171.528 315.355C164.764 323.485 158.983 331.123 148.407 334.449C137.953 337.775 125.901 334.942 118.153 327.181C117.907 326.935 117.538 327.304 117.661 327.551C132.665 348.123 164.026 337.406 172.88 316.094C173.249 315.355 172.02 314.739 171.528 315.355Z" fill="#B0BEC5"/>
<path d="M120.244 326.688C119.875 324.594 120.244 322.13 119.014 320.406C117.784 318.681 115.201 318.435 114.095 320.406C112.496 323.239 113.972 326.688 116.062 328.906C117.415 330.384 119.506 332.355 121.597 332.109C121.719 332.109 121.842 331.985 121.842 331.862C121.597 330.014 120.49 328.536 120.244 326.688Z" fill="#90A4AE"/>
</g>
<path d="M343.917 272.535H433.913C444.371 272.535 452.809 262.976 452.809 251.127V21.4085C452.809 9.55914 444.371 0 433.913 0H343.917C333.458 0 325.021 9.55914 325.021 21.4085V251.027C324.933 262.976 333.458 272.535 343.917 272.535Z" fill="white"/>
<path d="M433.913 262.578C439.538 262.578 444.02 257.4 444.02 251.127V21.4085C444.02 15.0357 439.45 9.9574 433.913 9.9574H343.917C338.292 9.9574 333.81 15.1353 333.81 21.4085V251.027C333.81 257.4 338.38 262.478 343.917 262.478H433.913V262.578Z" stroke="black" stroke-width="0.75" stroke-miterlimit="10"/>
<path d="M343.917 5.97446C336.359 5.97446 330.294 12.9447 330.294 21.4085V251.027C330.294 259.59 336.446 266.461 343.917 266.461H433.913C441.471 266.461 447.535 259.491 447.535 251.027V21.4085C447.535 12.8451 441.383 5.97446 433.913 5.97446H343.917ZM343.917 0H433.913C444.371 0 452.809 9.55914 452.809 21.4085V251.027C452.809 262.876 444.371 272.436 433.913 272.436H343.917C333.458 272.436 325.021 262.876 325.021 251.027V21.4085C324.933 9.55914 333.458 0 343.917 0Z" fill="black"/>
<path d="M452.721 71.2952H453.16C453.951 71.2952 454.654 70.4986 454.654 69.6025V44.7089C454.654 43.8127 453.951 43.0161 453.16 43.0161H452.721V71.2952Z" fill="black"/>
<path d="M324.934 43.0161H324.494C323.703 43.0161 323 43.8127 323 44.7089V75.1786C323 76.0748 323.703 76.8714 324.494 76.8714H324.934V43.0161Z" fill="black"/>
<path d="M452.721 102.263H453.16C453.951 102.263 454.654 101.466 454.654 100.57V75.6765C454.654 74.7804 453.951 73.9838 453.16 73.9838H452.721V102.263Z" fill="black"/>
<path d="M358.211 170.05C341.497 151.112 341.497 120.409 358.211 101.471C374.926 82.5338 402.026 82.5338 418.74 101.471C435.455 120.409 435.455 151.112 418.74 170.05C402.026 188.987 374.926 188.987 358.211 170.05Z" stroke="#475DE3" stroke-width="1.5" stroke-miterlimit="10"/>
<path d="M388.475 184.213C376.583 184.213 366.943 162.502 366.943 135.72C366.943 108.938 376.583 87.2272 388.475 87.2272C400.367 87.2272 410.007 108.938 410.007 135.72C410.007 162.502 400.367 184.213 388.475 184.213Z" stroke="#475DE3" stroke-width="1.5" stroke-miterlimit="10"/>
<path d="M355.605 104.653C363.427 109.93 375.204 113.415 388.387 113.415C401.57 113.415 413.347 110.03 421.169 104.653" stroke="#475DE3" stroke-width="1.5" stroke-miterlimit="10"/>
<path d="M421.257 166.887C413.435 161.609 401.658 158.124 388.475 158.124C375.292 158.124 363.515 161.51 355.693 166.887" stroke="#475DE3" stroke-width="1.5" stroke-miterlimit="10"/>
<path d="M388.475 87.2272V184.213" stroke="#475DE3" stroke-width="1.5" stroke-miterlimit="10"/>
<path d="M345.675 135.72H431.188" stroke="#475DE3" stroke-width="1.5" stroke-miterlimit="10"/>
<path d="M367.382 222.449L370.634 192.577L346.114 204.327L352.617 209.903L346.378 219.263L354.639 226.233L360.791 216.873L367.382 222.449Z" fill="black"/>
<path d="M349.19 225.138C344.796 230.714 336.007 247.343 352.706 256.404" stroke="black" stroke-miterlimit="10" stroke-linecap="round"/>
<mask id="mask0_275_200" style="mask-type:luminance" maskUnits="userSpaceOnUse" x="334" y="24" width="76" height="51">
<path d="M409.685 24H334V74.2H409.685V24Z" fill="white"/>
</mask>
<g mask="url(#mask0_275_200)">
<mask id="mask1_275_200" style="mask-type:luminance" maskUnits="userSpaceOnUse" x="328" y="24" width="82" height="51">
<path d="M409.685 67.5238C409.685 71.247 406.668 74.2 403.009 74.2H334.963C331.24 74.2 328.287 71.1828 328.287 67.5238V31.0613C328.287 27.3381 331.304 24.3851 334.963 24.3851H403.073C406.796 24.3851 409.749 27.4023 409.749 31.0613V67.5238H409.685Z" fill="white"/>
</mask>
<g mask="url(#mask1_275_200)">
<path d="M328.223 24.3851V40.8831V41.2041V57.3168V57.702V74.2H409.685V57.702V57.3168V41.2041V40.8831V24.3851H328.223Z" fill="url(#paint0_linear_275_200)"/>
</g>
</g>
<path d="M373.708 55.7631C377.501 54.8579 379.842 51.0489 378.937 47.2555C378.032 43.4621 374.223 41.1207 370.43 42.0258C366.636 42.931 364.295 46.74 365.2 50.5334C366.105 54.3268 369.914 56.6682 373.708 55.7631Z" fill="#F9ED38"/>
<path d="M366.162 44.6062C364.428 44.6062 362.823 45.0556 361.411 45.8901C362.631 45.3123 363.979 44.9914 365.455 44.9914C370.719 44.9914 374.956 49.2282 374.956 54.4921C374.956 58.0228 373.03 61.1042 370.142 62.7732C373.415 61.2325 375.662 57.9586 375.662 54.1712C375.662 48.9072 371.425 44.6062 366.162 44.6062Z" fill="url(#paint1_linear_275_200)"/>
<path d="M368.601 43.3224C366.419 43.3224 364.429 44.0285 362.824 45.2482C364.3 44.2853 366.033 43.7718 367.959 43.7718C373.223 43.7718 377.845 48.137 377.845 53.4009C377.845 56.418 376.369 59.05 374.058 60.7191C376.69 59.05 378.487 56.1613 378.487 52.8874C378.487 47.6876 373.865 43.3224 368.601 43.3224Z" fill="url(#paint2_linear_275_200)"/>
<path d="M367.381 44.0284C366.354 44.0284 365.391 44.221 364.428 44.4778C365.07 44.3494 365.712 44.2852 366.418 44.2852C371.682 44.2852 376.304 48.6504 376.304 53.9144C376.304 58.087 373.351 61.6177 369.5 62.8374C373.801 61.9387 377.267 58.2154 377.267 53.6576C377.267 48.4579 372.645 44.0284 367.381 44.0284Z" fill="url(#paint3_linear_275_200)"/>
<path d="M377.973 44.6062C379.707 44.6062 381.312 45.0556 382.724 45.8901C381.504 45.3123 380.156 44.9914 378.68 44.9914C373.416 44.9914 369.179 49.2282 369.179 54.4921C369.179 58.0228 371.105 61.1042 373.993 62.7732C370.719 61.2325 368.473 57.9586 368.473 54.1712C368.473 48.9072 372.709 44.6062 377.973 44.6062Z" fill="url(#paint4_linear_275_200)"/>
<path d="M375.534 43.3224C377.716 43.3224 379.707 44.0285 381.311 45.2482C379.835 44.2853 378.102 43.7718 376.176 43.7718C370.912 43.7718 366.29 48.137 366.29 53.4009C366.29 56.418 367.766 59.05 370.077 60.7191C367.445 59.05 365.648 56.1613 365.648 52.8874C365.648 47.6876 370.27 43.3224 375.534 43.3224Z" fill="url(#paint5_linear_275_200)"/>
<path d="M376.754 44.0284C377.781 44.0284 378.744 44.221 379.707 44.4778C379.065 44.3494 378.423 44.2852 377.717 44.2852C372.453 44.2852 367.831 48.6504 367.831 53.9144C367.831 58.087 370.784 61.6177 374.635 62.8374C370.334 61.9387 366.868 58.2154 366.868 53.6576C366.868 48.4579 371.49 44.0284 376.754 44.0284Z" fill="url(#paint6_linear_275_200)"/>
<path d="M367.766 41.9743C368.087 41.7818 368.408 41.5892 368.794 41.4608C368.537 41.0756 367.959 40.1769 367.766 39.4708C367.51 38.572 367.253 37.4807 365.905 37.0314C365.905 37.0314 366.675 37.9943 366.868 39.535C366.996 40.6263 367.574 41.5892 367.766 41.9743Z" fill="#F9ED38"/>
<path d="M368.473 38.7647C368.408 39.9844 368.794 41.0115 368.986 41.3966C369.307 41.2683 369.692 41.1399 370.078 41.0757C369.885 40.6905 369.5 39.6634 369.371 38.8931C369.243 37.9943 369.179 36.8388 367.959 36.1969C367.895 36.1327 368.537 37.224 368.473 38.7647Z" fill="#F9ED38"/>
<path d="M370.142 38.3153C369.885 39.4708 370.077 40.5621 370.206 41.0115C370.591 40.9473 370.976 40.8831 371.297 40.8189C371.169 40.4337 370.912 39.3424 370.976 38.5721C370.976 37.6734 371.104 36.5179 370.013 35.6833C370.013 35.6833 370.463 36.8388 370.142 38.3153Z" fill="#F9ED38"/>
<path d="M365.455 40.3695C365.776 41.525 366.482 42.4237 366.739 42.7447C367.06 42.4879 367.317 42.2954 367.638 42.1028C367.381 41.7818 366.611 40.9473 366.29 40.2411C365.904 39.4066 365.455 38.3795 364.107 38.1227C364.107 38.0585 365.006 38.893 365.455 40.3695Z" fill="#F9ED38"/>
<path d="M364.107 41.525C364.621 42.6164 365.391 43.3867 365.712 43.6435C365.969 43.3867 366.225 43.0657 366.546 42.8731C366.225 42.6164 365.391 41.846 364.942 41.2683C364.428 40.4979 363.85 39.535 362.438 39.4708C362.438 39.4708 363.529 40.1128 364.107 41.525Z" fill="#F9ED38"/>
<path d="M363.915 47.1099C363.979 46.7248 364.107 46.4038 364.3 46.0186C363.915 45.9544 362.759 45.6977 362.117 45.3125C361.283 44.8631 360.32 44.2854 359.1 44.8631C359.1 44.8631 360.32 44.9915 361.539 45.9544C362.502 46.7248 363.53 46.9816 363.915 47.1099Z" fill="#F9ED38"/>
<path d="M372.067 40.8189C372.26 40.8189 372.452 40.8189 372.645 40.8189C372.581 40.3695 372.517 39.2782 372.645 38.5721C372.838 37.6733 373.094 36.582 372.131 35.5549C372.131 35.5549 372.388 36.7746 371.875 38.1869C371.425 39.3424 371.489 40.4337 371.554 40.8189C371.618 40.8189 371.81 40.8189 372.067 40.8189Z" fill="#F9ED38"/>
<path d="M362.181 44.3496C363.016 45.2483 363.979 45.6977 364.364 45.8902C364.492 45.5693 364.685 45.1841 364.878 44.8631C364.492 44.7347 363.465 44.2854 362.888 43.836C362.181 43.2583 361.283 42.5521 359.935 42.9373C359.935 42.8731 361.154 43.1941 362.181 44.3496Z" fill="#F9ED38"/>
<path d="M363.016 42.873C363.658 43.9001 364.62 44.4779 364.941 44.7347C365.134 44.4137 365.391 44.0927 365.583 43.8359C365.198 43.6434 364.235 43.0656 363.722 42.4879C363.08 41.8459 362.374 40.9472 360.961 41.1398C361.026 41.0756 362.181 41.5891 363.016 42.873Z" fill="#F9ED38"/>
<path d="M376.497 42.0385C376.818 42.2311 377.139 42.4879 377.395 42.6805C377.588 42.2953 378.166 41.3324 378.743 40.8188C379.385 40.1769 380.284 39.4707 380.091 38.0585C380.091 38.0585 379.578 39.214 378.358 40.0485C377.267 40.7546 376.689 41.7175 376.497 42.0385Z" fill="#F9ED38"/>
<path d="M382.402 45.505C381.183 45.4408 380.156 45.826 379.771 46.0186C379.899 46.3395 380.027 46.7247 380.091 47.1099C380.477 46.9173 381.504 46.4679 382.21 46.4037C383.109 46.2753 384.264 46.2111 384.906 44.9272C385.034 44.9272 383.943 45.5692 382.402 45.505Z" fill="#F9ED38"/>
<path d="M379.193 44.8631C379.385 45.1841 379.578 45.505 379.706 45.8902C380.092 45.6334 380.99 45.0557 381.696 44.8631C382.595 44.6063 383.686 44.3495 384.136 43.0015C384.136 43.0015 383.173 43.836 381.632 43.9644C380.541 44.0928 379.578 44.6063 379.193 44.8631Z" fill="#F9ED38"/>
<path d="M382.852 47.1741C381.696 46.9174 380.605 47.1741 380.156 47.2383C380.22 47.6235 380.284 48.0087 380.348 48.3296C380.734 48.2012 381.825 47.9445 382.595 47.9445C383.494 47.9445 384.649 48.0729 385.484 46.9174C385.484 47.0457 384.328 47.4951 382.852 47.1741Z" fill="#F9ED38"/>
<path d="M382.659 49.6777C383.558 49.8703 384.649 50.1271 385.677 49.1642C385.677 49.1642 384.457 49.4209 383.045 48.9074C381.889 48.458 380.798 48.5222 380.413 48.5864C380.413 48.779 380.413 48.9716 380.413 49.1642C380.413 49.3567 380.413 49.5493 380.413 49.7419C380.798 49.6777 381.889 49.5493 382.659 49.6777Z" fill="#F9ED38"/>
<path d="M376.304 41.9743C376.433 41.5892 376.882 40.5621 377.331 39.9843C377.909 39.2782 378.615 38.3795 378.23 37.0314C378.23 37.0314 377.909 38.2511 376.818 39.2782C375.919 40.1127 375.47 41.0756 375.341 41.4608C375.662 41.5892 375.983 41.7818 376.304 41.9743Z" fill="#F9ED38"/>
<path d="M361.154 47.6234C362.181 48.2012 363.273 48.3296 363.722 48.3938C363.786 48.0086 363.786 47.6234 363.915 47.3025C363.465 47.3025 362.374 47.1741 361.668 46.9173C360.769 46.5963 359.742 46.147 358.586 46.9815C358.586 46.9173 359.806 46.8531 361.154 47.6234Z" fill="#F9ED38"/>
<path d="M372.773 40.8189C373.159 40.8831 373.544 40.8831 373.865 41.0115C373.865 40.5621 373.993 39.4708 374.186 38.7647C374.507 37.866 374.892 36.8388 374.122 35.6833C374.122 35.6833 374.186 36.903 373.48 38.2511C372.902 39.2782 372.773 40.4337 372.773 40.8189Z" fill="#F9ED38"/>
<path d="M377.523 42.8731C377.78 43.1299 378.101 43.3867 378.358 43.6435C378.615 43.3225 379.321 42.4238 379.963 42.0386C380.733 41.5251 381.696 40.9473 381.696 39.535C381.696 39.535 381.054 40.6263 379.642 41.2041C378.551 41.7176 377.78 42.5522 377.523 42.8731Z" fill="#F9ED38"/>
<path d="M378.423 43.7719C378.68 44.0928 378.872 44.3496 379.065 44.6706C379.386 44.4138 380.22 43.6435 380.862 43.3225C381.697 42.9373 382.724 42.488 382.981 41.1399C382.981 41.1399 382.146 42.1028 380.67 42.488C379.578 42.8089 378.744 43.5151 378.423 43.7719Z" fill="#F9ED38"/>
<path d="M375.148 41.3966C375.213 41.0115 375.469 39.856 375.855 39.214C376.304 38.3795 376.882 37.4166 376.304 36.1969C376.304 36.1969 376.176 37.4166 375.213 38.6363C374.442 39.5992 374.186 40.6263 374.057 41.0757C374.442 41.1399 374.763 41.2683 375.148 41.3966Z" fill="#F9ED38"/>
<path d="M376.304 56.2897C375.983 56.4823 375.662 56.6748 375.277 56.8032C375.534 57.1884 376.111 58.0871 376.304 58.7933C376.561 59.692 376.818 60.7833 378.166 61.2326C378.166 61.2326 377.395 60.2697 377.203 58.7291C377.074 57.6378 376.561 56.6748 376.304 56.2897Z" fill="#F9ED38"/>
<path d="M378.679 57.8946C378.358 56.7391 377.652 55.8404 377.395 55.5836C377.074 55.8404 376.818 56.033 376.497 56.2256C376.753 56.5465 377.524 57.3811 377.845 58.0872C378.23 58.9217 378.679 59.9488 380.027 60.2056C380.027 60.2056 379.064 59.3711 378.679 57.8946Z" fill="#F9ED38"/>
<path d="M373.993 59.9487C374.25 58.7932 373.993 57.7019 373.929 57.2526C373.544 57.3168 373.158 57.3809 372.837 57.4451C372.966 57.8303 373.223 58.9216 373.223 59.6919C373.223 60.5907 373.094 61.7462 374.25 62.5807C374.121 62.5807 373.672 61.4252 373.993 59.9487Z" fill="#F9ED38"/>
<path d="M379.963 56.739C379.45 55.6477 378.615 54.8774 378.358 54.6206C378.101 54.8774 377.845 55.1984 377.588 55.3909C377.909 55.6477 378.808 56.3539 379.193 56.9958C379.706 57.7661 380.284 58.729 381.696 58.7932C381.632 58.7932 380.605 58.1513 379.963 56.739Z" fill="#F9ED38"/>
<path d="M375.662 59.4994C375.726 58.2797 375.341 57.2526 375.148 56.8674C374.827 56.9958 374.442 57.1242 374.057 57.1884C374.25 57.5736 374.635 58.6007 374.763 59.371C374.892 60.2697 374.956 61.4252 376.176 62.0672C376.24 62.1314 375.598 61.0401 375.662 59.4994Z" fill="#F9ED38"/>
<path d="M380.156 51.1542C380.092 51.5393 379.963 51.8603 379.835 52.2455C380.22 52.3097 381.376 52.5664 382.018 52.9516C382.852 53.401 383.815 53.9787 385.035 53.401C385.035 53.401 383.815 53.2726 382.595 52.3097C381.632 51.5393 380.541 51.2826 380.156 51.1542Z" fill="#F9ED38"/>
<path d="M372.067 57.5094C371.874 57.5094 371.682 57.5094 371.489 57.5094C371.553 57.9588 371.618 59.0501 371.489 59.7562C371.297 60.6549 371.04 61.7462 372.003 62.7733C372.003 62.7733 371.746 61.5536 372.26 60.1414C372.709 58.9859 372.645 57.8946 372.581 57.5094C372.388 57.5094 372.195 57.5094 372.067 57.5094Z" fill="#F9ED38"/>
<path d="M382.916 50.6406C381.889 50.0628 380.734 49.9344 380.348 49.8702C380.284 50.2554 380.284 50.6406 380.156 50.9615C380.605 50.9615 381.696 51.0899 382.403 51.2825C383.301 51.6035 384.328 51.9887 385.484 51.2183C385.484 51.2825 384.264 51.4109 382.916 50.6406Z" fill="#F9ED38"/>
<path d="M381.953 53.9145C381.118 53.0157 380.156 52.5664 379.77 52.438C379.642 52.759 379.449 53.1441 379.257 53.4651C379.642 53.5935 380.669 54.0428 381.247 54.4922C381.953 55.07 382.852 55.7761 384.2 55.3909C384.2 55.3267 382.98 55.07 381.953 53.9145Z" fill="#F9ED38"/>
<path d="M381.055 55.3909C380.413 54.3638 379.45 53.7861 379.129 53.5293C378.936 53.8503 378.679 54.1712 378.487 54.428C378.872 54.6206 379.835 55.1984 380.348 55.7761C380.99 56.418 381.697 57.3168 383.109 57.1242C383.045 57.1884 381.889 56.6748 381.055 55.3909Z" fill="#F9ED38"/>
<path d="M368.922 56.8674C368.858 57.2526 368.601 58.4081 368.216 59.05C367.767 59.8846 367.189 60.8475 367.767 62.0672C367.767 62.0672 367.895 60.8475 368.858 59.6278C369.628 58.6649 369.885 57.6378 370.013 57.1884C369.628 57.1242 369.243 57.06 368.922 56.8674Z" fill="#F9ED38"/>
<path d="M361.668 52.759C362.887 52.8232 363.914 52.4381 364.3 52.2455C364.171 51.9245 364.043 51.5393 363.979 51.1542C363.593 51.3468 362.566 51.7319 361.796 51.8603C360.897 51.9887 359.742 52.0529 359.1 53.2726C359.036 53.2726 360.127 52.6306 361.668 52.759Z" fill="#F9ED38"/>
<path d="M365.648 54.4922C365.391 54.1713 365.199 53.9145 365.006 53.5935C364.685 53.8503 363.85 54.6206 363.144 54.9416C362.31 55.3268 361.283 55.7761 361.026 57.1242C361.026 57.1242 361.86 56.1613 363.337 55.7761C364.428 55.4551 365.327 54.749 365.648 54.4922Z" fill="#F9ED38"/>
<path d="M364.878 53.401C364.685 53.08 364.492 52.7591 364.364 52.3739C363.979 52.6307 363.08 53.2084 362.374 53.401C361.475 53.6578 360.384 53.9146 359.935 55.2626C359.935 55.2626 360.897 54.4923 362.438 54.2997C363.529 54.1713 364.492 53.6578 364.878 53.401Z" fill="#F9ED38"/>
<path d="M361.218 51.0899C362.374 51.3467 363.465 51.0899 363.915 51.0258C363.85 50.6406 363.786 50.2554 363.722 49.9344C363.337 50.0628 362.246 50.3196 361.475 50.2554C360.576 50.2554 359.421 50.127 358.586 51.2183C358.586 51.2183 359.742 50.769 361.218 51.0899Z" fill="#F9ED38"/>
<path d="M366.547 55.4551C366.29 55.1984 365.969 54.9416 365.776 54.6206C365.52 54.9416 364.813 55.8403 364.171 56.2255C363.401 56.739 362.438 57.3168 362.374 58.729C362.374 58.729 363.016 57.7019 364.428 57.06C365.52 56.5464 366.29 55.7119 366.547 55.4551Z" fill="#F9ED38"/>
<path d="M371.297 57.4451C370.912 57.3809 370.526 57.381 370.205 57.2526C370.205 57.7019 370.077 58.7932 369.82 59.4994C369.499 60.3981 369.05 61.4252 369.884 62.5807C369.884 62.5807 369.82 61.361 370.591 60.0129C371.104 58.9858 371.233 57.8945 371.297 57.4451Z" fill="#F9ED38"/>
<path d="M367.766 56.2897C367.638 56.6748 367.188 57.7019 366.739 58.2797C366.161 58.9858 365.455 59.8846 365.84 61.2326C365.84 61.2326 366.161 60.0129 367.253 58.9858C368.151 58.1513 368.601 57.1884 368.729 56.8032C368.408 56.6748 368.087 56.4823 367.766 56.2897Z" fill="#F9ED38"/>
<path d="M361.026 49.3568C362.182 49.8061 363.273 49.7419 363.658 49.6777C363.658 49.4851 363.658 49.2926 363.658 49.1642C363.658 48.9716 363.658 48.779 363.658 48.5864C363.209 48.6506 362.117 48.7148 361.411 48.5864C360.512 48.3938 359.421 48.1371 358.394 49.1C358.394 49.1 359.614 48.779 361.026 49.3568Z" fill="#F9ED38"/>
<path d="M367.574 56.2256C367.253 56.033 366.932 55.7762 366.675 55.5836C366.482 55.9688 365.904 56.9317 365.327 57.4453C364.685 58.0872 363.786 58.7933 363.979 60.2056C363.979 60.2056 364.492 59.0501 365.776 58.2156C366.739 57.5094 367.381 56.5465 367.574 56.2256Z" fill="#F9ED38"/>
<defs>
<linearGradient id="paint0_linear_275_200" x1="328.249" y1="49.2811" x2="409.712" y2="49.2811" gradientUnits="userSpaceOnUse">
<stop stop-color="#B01B06"/>
<stop offset="1" stop-color="#B01B06"/>
</linearGradient>
<linearGradient id="paint1_linear_275_200" x1="361.41" y1="53.6908" x2="375.678" y2="53.6908" gradientUnits="userSpaceOnUse">
<stop stop-color="#B01B06"/>
<stop offset="1" stop-color="#B01B06"/>
</linearGradient>
<linearGradient id="paint2_linear_275_200" x1="362.821" y1="52.0242" x2="378.496" y2="52.0242" gradientUnits="userSpaceOnUse">
<stop stop-color="#B01B06"/>
<stop offset="1" stop-color="#B01B06"/>
</linearGradient>
<linearGradient id="paint3_linear_275_200" x1="364.42" y1="53.4696" x2="377.248" y2="53.4696" gradientUnits="userSpaceOnUse">
<stop stop-color="#B01B06"/>
<stop offset="1" stop-color="#B01B06"/>
</linearGradient>
<linearGradient id="paint4_linear_275_200" x1="368.446" y1="53.6908" x2="382.714" y2="53.6908" gradientUnits="userSpaceOnUse">
<stop stop-color="#B01B06"/>
<stop offset="1" stop-color="#B01B06"/>
</linearGradient>
<linearGradient id="paint5_linear_275_200" x1="365.628" y1="52.0242" x2="381.303" y2="52.0242" gradientUnits="userSpaceOnUse">
<stop stop-color="#B01B06"/>
<stop offset="1" stop-color="#B01B06"/>
</linearGradient>
<linearGradient id="paint6_linear_275_200" x1="366.876" y1="53.4696" x2="379.703" y2="53.4696" gradientUnits="userSpaceOnUse">
<stop stop-color="#B01B06"/>
<stop offset="1" stop-color="#B01B06"/>
</linearGradient>
<clipPath id="clip0_275_200">
<rect width="165" height="236" fill="white" transform="translate(438 119)"/>
</clipPath>
<clipPath id="clip1_275_200">
<rect width="221" height="255" fill="white" transform="translate(97 110)"/>
</clipPath>
</defs>
</svg>
